<svg xmlns="http://www.w3.org/2000/svg" viewBox="0 0 650 299.57" xmlns:v="https://vecta.io/nano"><style><![CDATA[.K{font-size:12px}.L{font-family:IBMPlexSerif}.M{font-family:IBMPlexSerif-Light}.N{font-size:10px}.O{fill:#d88271}.P{fill:#4e9695}.Q{stroke-dasharray:1.9968,1.9968}.R{stroke-miterlimit:10}]]></style><g fill="none" stroke="#878787" stroke-width=".5" class="R"><path d="M641.44 60.83h-1"/><path d="M638.44 60.82L4.47 60.57" class="Q"/><path d="M3.47 60.57h-1m638.97 72.78h-1"/><path d="M638.44 133.34L4.47 133.1" class="Q"/><path d="M3.47 133.1l-1-.01"/></g><text transform="translate(2.467 17.238)" font-family="IBMPlexSerif-SemiBold" class="K">Gross Sales of Ramen in Prison Commissaries</text><text><tspan x="2.467" y="43.808" class="M N">$300,000</tspan><tspan y="55.808" x="2.467" class="M N">in total sales</tspan></text><path d="M339.977 18.545h-18.02V7.925h18.02z" class="O"/><path d="M497.087 18.545h-18.02V7.925h18.02z" class="P"/><text transform="translate(344.973 17.549)" class="K L">Massachusetts</text><text transform="translate(501.729 17.549)" class="K L">Washington</text><text transform="translate(92.43 294.869)" class="K L">Beef</text><path d="M62.02 190.72h43.25v89.2H62.02z" class="O"/><path d="M105.26 65.33h43.25v214.6h-43.25z" class="P"/><text transform="translate(203.079 294.869)" class="K L">Chicken</text><path d="M183.58 116.27h43.25v163.65h-43.25z" class="O"/><path d="M226.83 222.84h43.25v57.1h-43.25z" class="P"/><text transform="translate(334.835 294.869)" class="K L">Chili</text><path d="M305.14 222.27h43.25v57.66h-43.25z" class="O"/><path d="M348.4 216.96h43.25v62.96H348.4z" class="P"/><text transform="translate(449.793 294.868)" class="K L">Shrimp</text><path d="M426.7 276.22h43.25v3.7H426.7z" class="O"/><path d="M469.95 227.36h43.25v52.57h-43.25z" class="P"/><text transform="translate(561.158 294.755)" class="K L">Vegetable</text><path d="M546.27 227.9h43.25v51.92h-43.25z" class="O"/><path d="M589.5 202.13h43.25v77.7H589.5z" class="P"/><g fill="none" class="R"><path d="M641.44 279.93l-638.97-.26" stroke="#000"/><g stroke="#878787" stroke-width=".5"><path d="M643.5 205.86h-1"/><path d="M640.5 205.86L6.5 205.6" class="Q"/><path d="M5.5 205.6h-1"/></g></g><text transform="translate(2.468 129.339)" class="M N">$200,000</text><text transform="translate(2.468 202.954)" class="M N">$100,000</text><text transform="translate(344.973 32.006)" class="M N">40 cents per unit</text><text transform="translate(504.305 32.006)" class="M N">25 cents per unit</text></svg>