<svg xmlns="http://www.w3.org/2000/svg" viewBox="0 0 300 385.28" xmlns:v="https://vecta.io/nano"><style><![CDATA[.K{font-size:12px}.L{font-family:IBMPlexSerif}.M{fill:#d88271}.N{fill:#4e9695}.O{font-family:IBMPlexSerif-Light}.P{font-size:10px}.Q{stroke-miterlimit:10}]]></style><text transform="translate(2 13.533)" font-family="IBMPlexSerif-SemiBold" class="K">Gross Sales of Ramen in Prison Commissaries</text><path d="M24.89 32.86H6.87V22.24h18.02z" class="M"/><path d="M24.89 50H6.87V39.38h18.02z" class="N"/><text transform="translate(29.889 31.145)" class="K L">Massachusetts</text><text transform="translate(29.53 48.279)" class="K L">Washington</text><text transform="translate(122.315 30.616)" class="O P">40 cents per unit</text><text transform="translate(122.315 47.75)" class="O P">25 cents per unit</text><g fill="none" stroke="#878787" stroke-width=".5" class="Q"><path d="M194.77 382.2v-1"/><path d="M194.78 379.2l1.3-315.66" stroke-dasharray="2.0042,2.0042"/><path d="M196.1 62.53v-1"/></g><path d="M6.08 81.6H120.9v18.93H6.08z" class="M"/><path d="M6.1 100.52h276.23v18.93H6.1z" class="N"/><path d="M6.1 144.8h210.65v18.93H6.1z" class="M"/><path d="M6.08 163.73h73.5v18.93H6.08z" class="N"/><path d="M6.08 210H80.3v18.93H6.08z" class="M"/><path d="M6.1 228.93h81.04v18.93H6.1z" class="N"/><path d="M6.08 275.2h4.78v18.93H6.08z" class="M"/><path d="M6.08 294.14h67.67v18.93H6.08z" class="N"/><path d="M6.24 341.54h66.83v18.93H6.24z" class="M"/><path d="M6.22 360.47h100v18.93h-100z" class="N"/><g fill="none" stroke="#878787" stroke-width=".5" class="Q"><path d="M101.42 383.1l.01-1"/><path d="M101.43 380.08l.33-316.65" stroke-dasharray="2.0105,2.0105"/><path d="M101.76 62.42v-1"/></g><text transform="translate(6.236 77.729)" class="K L">Beef</text><text transform="translate(6.236 140.311)" class="K L">Chicken</text><text transform="translate(6.236 205.239)" class="K L">Chili</text><text transform="translate(6.236 270.525)" class="K L">Shrimp</text><text transform="translate(6.236 336.383)" class="K L">Vegetable</text><text transform="translate(105.447 69.729)" class="O P">$100,000</text><text transform="translate(198.443 69.729)" class="O P">$200,000 total sales</text></svg>