<svg xmlns="http://www.w3.org/2000/svg" viewBox="0 0 650 137.06" xmlns:v="https://vecta.io/nano"><style><![CDATA[.G{font-size:12px}.H{font-family:IBMPlexSerif-SemiBold}.I{font-family:IBMPlexSerif}]]></style><text transform="translate(2.467 17.238)" class="G H">Per Capita Sales of Mail Supplies in Prison Commissaries</text><path d="M394.992 18.545h-18.02V7.925h18.02z" fill="#d88271"/><path d="M542.096 18.545h-18.02V7.925h18.02z" fill="#4e9695"/><text transform="translate(399.997 17.549)" class="G I">Pens and pencils</text><text transform="translate(548.64 17.238)" class="G I">Envelopes</text><text transform="translate(2.467 39.429)" class="G I">Illinois</text><text transform="translate(2.468 76.02)" class="G I">Washington</text><text transform="translate(2.468 111.457)" class="G I">Massachusetts</text><path d="M2.47 44.68h551.68v16.06H2.47zm0 70.3h81.78v16.06H2.47zm0-35.15h466.7v16.06H2.47z" fill="#d88271"/><path d="M554.15 44.68h81.78v16.06h-81.78zm-469.9 70.3h55.5v16.06h-55.5zm384.92-35.15h76.35v16.06h-76.35z" fill="#4e9695"/><path d="M84.24 114.97v16.06m384.92-51.2v16.06m85-51.2v16.06" fill="none" stroke="#fff" stroke-miterlimit="10"/><text transform="translate(62.178 126.854)" class="G H">5.5</text><text transform="translate(118.965 126.854)" class="G H">3.7</text><text transform="translate(523.953 91.901)" class="G H">5.1</text><text transform="translate(440.018 91.901)" class="G H">31.1</text><text transform="translate(525.49 56.505)" class="G H">36.8</text><text transform="translate(614.127 56.505)" class="G H">5.5</text></svg>