<svg xmlns="http://www.w3.org/2000/svg" viewBox="0 0 300 175.31" xmlns:v="https://vecta.io/nano"><style><![CDATA[.G{font-size:12px}.H{font-family:IBMPlexSerif-SemiBold}.I{font-family:IBMPlexSerif}]]></style><text><tspan x="4" y="15.294" class="G H">Per Capita Sales of Mail Supplies</tspan><tspan y="29.694" x="4" class="G H">in Prison Commissaries</tspan></text><path d="M23.08 50.722H5.06v-10.62h18.02z" fill="#d88271"/><path d="M168.02 50.722H150v-10.62h18.02z" fill="#4e9695"/><text transform="translate(28.085 49.718)" class="G I">Pens and pencils</text><text transform="translate(174.567 49.407)" class="G I">Envelopes</text><text transform="translate(5.065 71.487)" class="G I">Illinois</text><text transform="translate(5.066 111.078)" class="G I">Washington</text><text transform="translate(5.066 150.516)" class="G I">Massachusetts</text><path d="M5.07 76.74H245.3V92.8H5.07zm0 77.3h35.6v16.06H5.07zm0-39.15H208.3v16.06H5.07z" fill="#d88271"/><path d="M245.3 76.74h35.6V92.8h-35.6zm-204.63 77.3h24.17v16.06H40.67zm167.63-39.15h33.25v16.06H208.3z" fill="#4e9695"/><path d="M40.67 154.03v16.05m167.63-55.2v16.06m37-54.2V92.8" fill="none" stroke="#fff" stroke-miterlimit="10"/><text transform="translate(19.512 165.913)" class="G H">5.5</text><text transform="translate(44.723 165.912)" class="G H">3.7</text><text transform="translate(220.545 126.959)" class="G H">5.1</text><text transform="translate(177.838 126.959)" class="G H">31.1</text><text transform="translate(215.261 88.563)" class="G H">36.8</text><text transform="translate(258.461 88.563)" class="G H">5.5</text></svg>