<svg xmlns="http://www.w3.org/2000/svg" viewBox="0 0 650 338.29" xmlns:v="https://vecta.io/nano"><style><![CDATA[.P{font-size:12px}.Q{font-family:IBMPlexSerif}.R{font-family:IBMPlexSerif-SemiBold}.S{font-size:10px}.T{stroke-miterlimit:10}.U{font-family:IBMPlexSerif-Light}]]></style><text transform="translate(2.467 17.238)" class="P R">Coffee Sales as a Percentage of the Economy</text><path d="M234.74 121.1l7-15.2 2.34-5.06 4.66-10.14-4.74-2.05-4.84-1.83-4.92-1.58-5-1.34-5.05-1.12-5.1-.85-5.13-.62-5.17-.37-5.16-.12v33.47l5.34.2 5.32.57 5.26.96 5.18 1.34 5.07 1.7z" fill="#6d7c93"/><path d="M274.3 102.3l3.53-4.3 3.53-4.33 3.53-4.32 3.55-4.3 3.53-4.33 3.53-4.32-3.9-3.07-4.02-2.96-4.1-2.8-4.2-2.67-4.28-2.5-4.37-2.38-4.46-2.2-4.52-2.08-4.6-1.9-4.65-1.74-4.72-1.6-4.77-1.43-4.8-1.26-4.85-1.1-4.88-.93-4.9-.76-4.94-.6-4.96-.43-4.96-.25-4.97-.1V77.1l5.1.1 5.1.36 5.06.58 5.04.8 5 1.04 4.95 1.27 4.86 1.5 4.8 1.7 4.73 1.93 4.62 2.15 4.53 2.35 4.4 2.56 4.3 2.76 4.16 2.96z" fill="#ad7995"/><path d="M217.2 154.06l12.2-31.18-4.97-1.74-5.1-1.36-5.18-.98-5.24-.6-5.27-.2v33.47l6.9.65z" fill="#d88271"/><path d="M203.63 188.7l1.12-11.1.55-5.55.57-5.55 1.12-11.12-3.36-.16v33.48z" fill="#4e9695"/><g fill="none" stroke-linejoin="round" class="T"><path d="M203.63 97.56l4.93.13 4.92.4 4.9.66 4.85.94 4.8 1.2 4.7 1.44 4.63 1.7 4.54 1.95 4.42 2.2 4.3 2.42 4.15 2.66 4.02 2.87 3.84 3.1 3.67 3.3 3.5 3.5 3.3 3.68 3.1 3.85 2.9 4 2.65 4.17 2.43 4.3 2.2 4.42 1.95 4.54 1.7 4.63 1.44 4.7 1.2 4.8.94 4.85.66 4.9.4 4.92.13 4.93-.13 4.94-.4 4.92-.66 4.9-.94 4.85-1.2 4.78-1.44 4.73-1.7 4.63-1.95 4.54-2.2 4.42-2.43 4.3-2.65 4.16-2.9 4-3.1 3.85-3.3 3.67-3.5 3.5-3.67 3.3-3.84 3.1-4.02 2.9-4.15 2.65-4.3 2.43-4.42 2.2-4.54 1.95-4.63 1.7-4.7 1.46-4.8 1.18-4.85.93-4.9.68-4.92.4-4.93.12-4.94-.12-4.92-.4-4.9-.68-4.85-.93-4.78-1.18-4.73-1.46-4.63-1.7-4.54-1.95-4.42-2.2-4.3-2.43-4.16-2.65-4-2.9-3.85-3.1-3.67-3.3-3.5-3.5-3.3-3.67-3.1-3.85-2.9-4-2.65-4.16-2.43-4.3-2.2-4.42-1.95-4.54-1.7-4.63-1.46-4.73-1.2-4.78-.92-4.85-.68-4.9-.4-4.92-.13-4.94.13-4.93.4-4.92.68-4.9.92-4.85 1.2-4.8 1.46-4.7 1.7-4.63 1.95-4.54 2.2-4.42 2.43-4.3 2.65-4.17 2.9-4 3.1-3.85 3.3-3.68 3.5-3.5 3.67-3.3 3.85-3.1 4-2.87 4.16-2.66 4.3-2.42 4.42-2.2 4.54-1.95 4.63-1.7 4.73-1.44 4.78-1.2 4.85-.94 4.9-.66 4.92-.4 4.94-.13" stroke="#6d7c93"/><path d="M203.63 60.36l4.92.1 4.9.28 4.9.47 4.88.65 4.84.86 4.8 1 4.77 1.23 4.7 1.38L247 67.9l4.6 1.76 4.52 1.92 4.44 2.1 4.37 2.25 4.28 2.43 4.17 2.6 4.08 2.75 3.96 2.9 3.86 3.05 3.73 3.2 3.6 3.34 3.48 3.48 3.34 3.6 3.2 3.73 3.05 3.86 2.9 3.96 2.75 4.08 2.6 4.18 2.42 4.27 2.26 4.36 2.1 4.45 1.92 4.52 1.75 4.6 1.58 4.66 1.38 4.7 1.2 4.77 1.03 4.8.86 4.85.66 4.88.46 4.9.28 4.9.1 4.9-.1 4.9-.28 4.92-.46 4.9-.66 4.87-.86 4.85-1.03 4.8-1.2 4.77-1.38 4.7-1.58 4.66-1.75 4.6-1.92 4.52-2.1 4.45-2.26 4.37-2.42 4.27-2.6 4.18-2.75 4.07-2.9 3.97-3.05 3.85-3.2 3.74-3.34 3.6-3.48 3.47-3.6 3.34-3.73 3.2-3.86 3.07-3.96 2.9-4.08 2.75-4.17 2.6-4.28 2.44-4.37 2.26-4.44 2.1-4.52 1.94-4.6 1.75-4.66 1.56-4.7 1.4-4.77 1.2-4.8 1.03-4.84.84-4.88.66-4.9.47-4.9.3-4.92.1-4.92-.1-4.9-.3-4.9-.47-4.88-.66-4.84-.84-4.8-1.03-4.77-1.2-4.7-1.4-4.66-1.56-4.6-1.75-4.53-1.94-4.44-2.1-4.37-2.26-4.27-2.44-4.18-2.6-4.07-2.75-3.97-2.9-3.85-3.07-3.74-3.2-3.6-3.34-3.5-3.47-3.34-3.6-3.2-3.74-3.05-3.85-2.9-3.97-2.76-4.07-2.58-4.18-2.44-4.27-2.26-4.37-2.1-4.45-1.92-4.52-1.74-4.6-1.58-4.66-1.4-4.7-1.2-4.77-1.03-4.8-.84-4.85-.66-4.87-.47-4.9-.3-4.92-.1-4.9.1-4.9.3-4.9.47-4.9.66-4.88.84-4.85 1.03-4.8 1.2-4.77 1.4-4.7 1.58-4.66 1.74-4.6 1.92-4.52 2.1-4.45 2.26-4.36 2.44-4.27 2.58-4.18 2.76-4.08 2.9-3.96 3.05-3.86 3.2-3.73 3.34-3.6 3.5-3.48 3.6-3.34 3.74-3.2 3.85-3.05 3.97-2.9 4.07-2.75 4.18-2.6 4.27-2.43 4.37-2.25 4.44-2.1 4.53-1.92 4.6-1.76 4.66-1.57 4.7-1.38 4.77-1.23 4.8-1 4.84-.86 4.88-.65 4.9-.47 4.9-.28 4.92-.1" stroke="#ad7995"/><path d="M203.63 134.75l4.9.22 4.87.68 4.78 1.1 4.67 1.54 4.5 1.95 4.32 2.37 4.07 2.73 3.82 3.1 3.5 3.42 3.2 3.73 2.83 4.02 2.46 4.26 2.05 4.45 1.65 4.63 1.22 4.76.77 4.85.34 4.9-.1 4.92-.56 4.88-1 4.8-1.43 4.7-1.86 4.55-2.25 4.36-2.65 4.13-3 3.9-3.36 3.6-3.67 3.27-3.94 2.9-4.2 2.56-4.4 2.16-4.6 1.74-4.73 1.33-4.82.9-4.9.44h-4.92l-4.88-.44-4.84-.9-4.73-1.33-4.6-1.74-4.4-2.16-4.2-2.56-3.94-2.9-3.67-3.27-3.35-3.6-3-3.9-2.64-4.13-2.27-4.36-1.86-4.55-1.42-4.7-1-4.8-.55-4.88-.1-4.92.33-4.9.8-4.85 1.2-4.76 1.64-4.63 2.07-4.45 2.44-4.26 2.85-4.02 3.17-3.73 3.52-3.42 3.8-3.1 4.1-2.73 4.3-2.37 4.5-1.95 4.66-1.54 4.8-1.1 4.86-.68 4.9-.22" stroke="#d88271"/><path d="M203.63 171.95l4.93.76 4.5 2.16 3.67 3.4 2.5 4.33 1.1 4.86-.37 4.98-1.83 4.64-3.1 3.9-4.12 2.8-4.77 1.47h-5l-4.77-1.47-4.12-2.8-3.12-3.9-1.83-4.64-.37-4.98 1.1-4.86 2.5-4.33 3.66-3.4 4.5-2.16 4.94-.76" stroke="#4f9695"/></g><text transform="translate(50.667 50.628)" class="P Q">Revenue of Coffee Sales</text><path d="M190.44 47.44h9.62" fill="none" stroke="#000" class="T"/><text transform="translate(16.208 95.149)" class="P Q">Total Revenue</text><path d="M103.02 91.96h9.62" fill="none" stroke="#000" class="T"/><path d="M401.127 82.753h-18.02v-10.62h18.02z" fill="#ad7995"/><text transform="translate(407.676 81.442)" class="P Q">Washington prisons</text><path d="M401.127 102.947h-18.02v-10.62h18.02z" fill="#6d7c93"/><text transform="translate(407.676 101.65)" class="P Q">Massachusetts prisons</text><path d="M401.127 123.15h-18.02v-10.62h18.02z" fill="#d88271"/><text transform="translate(407.676 121.841)" class="P Q">Illinois prisons</text><path d="M401.127 143.344h-18.02v-10.62h18.02z" fill="#4e9695"/><text><tspan x="407.677" y="142.032" class="P Q">United States G.</tspan><tspan x="499.937" y="142.032" class="P Q">D.</tspan><tspan x="512.117" y="142.032" class="P Q">P.</tspan><tspan x="549.725" y="82.229" class="P R">10.9</tspan><tspan x="574.645" y="82.229" class="R S">%</tspan><tspan x="549.725" y="102.436" class="P R">6.9</tspan><tspan x="567.535" y="102.436" class="R S">%</tspan><tspan x="549.725" y="122.628" class="P R">5.9</tspan><tspan x="567.535" y="122.628" class="R S">%</tspan><tspan x="549.725" y="142.819" class="P R">1.9</tspan><tspan x="567.445" y="142.819" class="R S">%</tspan><tspan x="383.109" y="188.602" class="P U">In Washington, over ten percent of the</tspan><tspan y="202.102" x="383.109" class="P U">entire prison economy is based on a</tspan><tspan y="215.602" x="383.109" class="P U">single item.</tspan></text></svg>