<svg xmlns="http://www.w3.org/2000/svg" viewBox="0 0 300 375.37" xmlns:v="https://vecta.io/nano"><style><![CDATA[.O{font-size:12px}.P{font-family:IBMPlexSerif}.Q{font-family:IBMPlexSerif-SemiBold}.R{font-size:10px}.S{stroke-miterlimit:10}]]></style><text transform="translate(4 13.82)" class="O Q">Coffee Sales as a Percentage of the Economy</text><path d="M207.1 192.4l2.1-4.62 2.1-4.62 8.43-18.46-4.28-1.87-4.37-1.67-4.45-1.44-4.52-1.22-4.56-1.02-4.6-.77-4.63-.57-4.67-.33-4.67-.12v30.5l4.83.18 4.8.53 4.76.87 4.68 1.22 4.58 1.54z" fill="#6d7c93"/><path d="M242.84 175.27l9.57-11.8 3.2-3.93 3.2-3.95 3.2-3.93-3.53-2.8-3.62-2.7-3.72-2.55-3.8-2.43-3.87-2.3-3.95-2.17-4.02-2-4.1-1.9-4.15-1.74-4.2-1.6-4.26-1.46-4.3-1.3-4.35-1.15-4.38-1-4.4-.85-4.45-.7-4.46-.55-4.48-.4-4.48-.23-4.5-.08v30.5l4.6.1 4.6.33 4.57.52 4.56.74 4.5.95 4.48 1.15 4.4 1.37 4.35 1.56 4.27 1.76 4.17 1.96 4.1 2.14 4 2.33 3.88 2.52 3.76 2.7z" fill="#ad7995"/><path d="M191.23 222.42l11.03-28.4-4.5-1.6-4.6-1.24-4.68-.9-4.73-.54-4.77-.17v30.5l6.24.6z" fill="#d88271"/><path d="M178.97 254l1.02-10.12.5-5.06.5-5.06.5-5.06.5-5.07-3.04-.15V254z" fill="#4e9695"/><g fill="none" stroke-linejoin="round" class="S"><path d="M178.97 170.93l4.46.13 4.45.36 4.42.6 4.38.85 4.34 1.1 4.26 1.32 4.18 1.55 4.1 1.78 4 2 3.9 2.2 3.75 2.43 3.63 2.6 3.47 2.82 3.32 3 3.15 3.18 2.98 3.36 2.8 3.5 2.6 3.64 2.4 3.8 2.2 3.92 2 4.03 1.76 4.14 1.54 4.22 1.3 4.3 1.08 4.37.84 4.42.6 4.46.36 4.48.12 4.5-.12 4.5-.36 4.48-.6 4.46-.84 4.42-1.08 4.36-1.3 4.3-1.54 4.22-1.76 4.13-2 4.03-2.2 3.9-2.4 3.8-2.6 3.66-2.8 3.5-2.98 3.34-3.15 3.2-3.32 3-3.47 2.82-3.63 2.63-3.75 2.4-3.9 2.22-4 2-4.1 1.78-4.18 1.55-4.26 1.33-4.34 1.08-4.38.85-4.42.6-4.45.36-4.46.12-4.46-.12-4.44-.36-4.43-.6-4.38-.85-4.32-1.08-4.28-1.33-4.18-1.55-4.1-1.78-4-2-3.87-2.22-3.77-2.4-3.62-2.63-3.48-2.82-3.32-3-3.15-3.2-2.98-3.34-2.8-3.5-2.6-3.66-2.4-3.8-2.2-3.9-2-4.03-1.76-4.13-1.53-4.22-1.32-4.3-1.08-4.36-.83-4.42-.6-4.46-.36-4.48-.12-4.5.12-4.5.36-4.48.6-4.46.83-4.42 1.08-4.37 1.32-4.3 1.53-4.22 1.76-4.14 2-4.03 2.2-3.92 2.4-3.8 2.6-3.64 2.8-3.5 2.98-3.36 3.15-3.18 3.32-3 3.48-2.82 3.62-2.6 3.77-2.43 3.87-2.2 4-2 4.1-1.78 4.18-1.55 4.28-1.32 4.32-1.1 4.38-.85 4.43-.6 4.44-.36 4.46-.13" stroke="#6d7c93"/><path d="M178.97 137.04l4.45.1 4.43.25 4.42.42 4.4.6 4.37.78 4.35.93 4.3 1.1 4.26 1.27 4.2 1.42 4.16 1.6 4.1 1.75 4 1.9 3.95 2.06 3.86 2.2 3.78 2.37 3.7 2.5 3.57 2.66 3.5 2.78 3.37 2.92 3.27 3.04 3.14 3.17 3.02 3.3 2.9 3.4 2.76 3.52 2.63 3.6 2.5 3.72 2.34 3.8 2.2 3.9 2.05 3.97 1.9 4.05 1.74 4.12 1.57 4.2 1.43 4.24 1.26 4.3 1.1 4.34.93 4.37.77 4.42.6 4.45.42 4.45.25 4.47.1 4.5-.1 4.47-.25 4.48-.42 4.46-.6 4.43-.77 4.42-.93 4.38-1.1 4.35-1.26 4.3-1.43 4.25-1.57 4.18-1.74 4.12-1.9 4.05-2.05 4-2.2 3.9-2.34 3.8-2.5 3.7-2.63 3.62-2.76 3.5-2.9 3.4-3.02 3.28-3.14 3.17-3.27 3.04-3.37 2.92-3.5 2.8-3.57 2.64-3.7 2.5-3.78 2.37-3.86 2.2-3.95 2.07-4 1.9-4.1 1.77-4.16 1.6-4.2 1.42-4.26 1.28-4.3 1.1-4.35.94-4.37.77-4.4.6-4.42.42-4.43.27-4.45.08-4.45-.08-4.43-.27-4.42-.42-4.4-.6-4.37-.77-4.35-.94-4.3-1.1-4.26-1.28-4.2-1.42-4.15-1.6-4.1-1.77-4-1.9-3.95-2.07-3.86-2.2-3.78-2.37-3.67-2.5-3.6-2.64-3.48-2.8-3.38-2.92-3.25-3.04-3.16-3.17-3.02-3.28-2.9-3.4-2.76-3.5-2.62-3.62-2.5-3.7-2.34-3.8-2.2-3.9-2.05-4-1.9-4.05-1.74-4.12-1.57-4.18-1.43-4.25-1.26-4.3-1.1-4.35-.93-4.38-.76-4.42-.6-4.43-.43-4.46-.26-4.48-.08-4.47.08-4.5.26-4.47.43-4.45.6-4.45.76-4.42.93-4.37 1.1-4.34 1.26-4.3 1.43-4.24 1.57-4.2 1.74-4.12 1.9-4.05 2.05-3.97 2.2-3.9 2.34-3.8 2.5-3.72 2.62-3.6 2.76-3.52 2.9-3.4 3.02-3.3 3.16-3.17 3.25-3.04 3.38-2.92 3.48-2.78 3.6-2.66 3.67-2.5 3.78-2.37 3.86-2.2 3.95-2.06 4-1.9 4.1-1.75 4.15-1.6 4.2-1.42 4.26-1.27 4.3-1.1 4.35-.93 4.37-.78 4.4-.6 4.42-.42 4.43-.25 4.45-.1" stroke="#ad7995"/><path d="M178.97 204.83l4.43.2 4.4.6 4.32 1.02 4.23 1.4 4.06 1.78 3.9 2.15 3.67 2.5 3.46 2.83 3.16 3.12 2.9 3.4 2.55 3.65 2.23 3.88 1.85 4.06 1.5 4.22 1.1 4.33.7 4.42.3 4.46-.1 4.48-.5 4.45-.9 4.37-1.3 4.28-1.67 4.14-2.04 3.97-2.4 3.77-2.72 3.54-3.03 3.27-3.3 2.98-3.57 2.66-3.8 2.33-3.98 1.96-4.15 1.6-4.28 1.22-4.35.8-4.43.4h-4.44l-4.4-.4-4.37-.8-4.28-1.22-4.14-1.6-4-1.96-3.8-2.33-3.56-2.66-3.32-2.98-3.03-3.27-2.72-3.54-2.4-3.77-2.05-3.97-1.67-4.14-1.3-4.28-.9-4.37-.5-4.45-.1-4.48.3-4.46.7-4.42 1.1-4.33 1.5-4.22 1.87-4.06 2.2-3.88 2.57-3.65 2.87-3.4 3.18-3.12 3.44-2.83 3.7-2.5 3.88-2.15 4.08-1.78 4.2-1.4 4.32-1.02 4.4-.6 4.43-.2" stroke="#d88271"/><path d="M178.97 238.72l4.46.7 4.06 1.97 3.32 3.1 2.25 3.94 1 4.44-.33 4.53-1.66 4.23-2.8 3.56-3.73 2.55-4.3 1.34h-4.5l-4.3-1.34-3.72-2.55-2.82-3.56-1.65-4.23-.34-4.53 1-4.44 2.26-3.94 3.3-3.1 4.06-1.97 4.46-.7" stroke="#4f9695"/></g><text transform="matrix(.9919 0 0 1 28.701 128.1744)" class="O P">Revenue of Coffee Sales</text><path d="M167.05 125.27h8.7" fill="none" stroke="#000" class="S"/><text transform="matrix(.9919 0 0 1 2.3007 168.7408)" class="O P">Total Revenue</text><path d="M88.04 165.83h8.7" fill="none" stroke="#000" class="S"/><path d="M22.745 36.907H4.725v-10.62h18.02z" fill="#ad7995"/><text transform="translate(29.295 35.594)" class="O P">Washington prisons</text><path d="M22.745 57.1H4.725V46.48h18.02z" fill="#6d7c93"/><text transform="translate(29.295 55.802)" class="O P">Massachusetts prisons</text><path d="M22.745 77.294H4.725v-10.62h18.02z" fill="#d88271"/><text transform="translate(29.295 75.993)" class="O P">Illinois prisons</text><path d="M22.745 97.498H4.725v-10.62h18.02z" fill="#4e9695"/><text><tspan x="29.295" y="96.184" class="O P">United States G.</tspan><tspan x="121.555" y="96.184" class="O P">D.</tspan><tspan x="133.735" y="96.184" class="O P">P.</tspan><tspan x="171.344" y="36.381" class="O Q">10.9</tspan><tspan x="196.264" y="36.381" class="Q R">%</tspan><tspan x="171.344" y="56.589" class="O Q">6.9</tspan><tspan x="189.154" y="56.589" class="Q R">%</tspan><tspan x="171.344" y="76.78" class="O Q">5.9</tspan><tspan x="189.154" y="76.78" class="Q R">%</tspan><tspan x="171.344" y="96.971" class="O Q">1.9</tspan><tspan x="189.064" y="96.971" class="Q R">%</tspan></text></svg>