<?xml version="1.0" encoding="utf-8"?>
<!-- Generator: Adobe Illustrator 24.1.2, SVG Export Plug-In . SVG Version: 6.00 Build 0)  -->
<svg version="1.1" id="Layer_1" xmlns="http://www.w3.org/2000/svg" xmlns:xlink="http://www.w3.org/1999/xlink" x="0px" y="0px"
	 viewBox="0 0 600 249.24" style="enable-background:new 0 0 600 249.24;" xml:space="preserve">
<style type="text/css">
	.st0{fill:#8DA6CC;}
	.st1{font-family:'IBMPlexSerif';}
	.st2{font-size:12px;}
	.st3{font-family:'IBMPlexSerif-Bold';}
	.st4{font-size:5px;}
	.st5{font-size:8px;}
	.st6{font-family:'IBMPlexSerif-SemiBold';}
</style>
<rect x="288.92" y="-253.88" transform="matrix(6.123234e-17 -1 1 6.123234e-17 260.6832 339.29)" class="st0" width="22.12" height="586.37"/>
<text transform="matrix(1 0 0 1 11.5573 42.8974)" class="st1 st2">Indigenous</text>
<text transform="matrix(1 0 0 1 566.0422 43.3973)"><tspan x="0" y="0" class="st3 st2">28</tspan><tspan x="14.4" y="-2" class="st3 st4"> </tspan><tspan x="15.58" y="-2" class="st3 st5">%</tspan></text>
<rect x="278.11" y="-215.7" transform="matrix(6.123234e-17 -1 1 6.123234e-17 222.5025 355.8467)" class="st0" width="22.12" height="564.75"/>
<text transform="matrix(1 0 0 1 11.5575 70.266)" class="st1 st2">Black</text>
<text transform="matrix(1 0 0 1 551.4542 69.7663)" class="st3 st2">27</text>
<rect x="271.38" y="-181.6" transform="matrix(6.123234e-17 -1 1 6.123234e-17 188.3988 376.4803)" class="st0" width="22.12" height="551.28"/>
<text transform="matrix(1 0 0 1 11.5571 97.635)" class="st1 st2">Pacific Islander</text>
<text transform="matrix(1 0 0 1 537.1984 97.1348)" class="st3 st2">26</text>
<rect x="173.34" y="-56.19" transform="matrix(6.123234e-17 -1 1 6.123234e-17 62.9877 305.8065)" class="st0" width="22.12" height="355.19"/>
<text transform="matrix(1 0 0 1 11.5571 125.0036)" class="st1 st2">Hispanic</text>
<text transform="matrix(1 0 0 1 341.1603 125.0035)" class="st3 st2">17</text>
<rect x="168.08" y="-23.56" transform="matrix(6.123234e-17 -1 1 6.123234e-17 30.3649 327.921)" class="st0" width="22.12" height="344.68"/>
<text transform="matrix(1 0 0 1 11.5571 152.3723)" class="st1 st2">Two or More Races</text>
<text transform="matrix(1 0 0 1 330.8463 152.3718)" class="st3 st2">16</text>
<rect x="115.54" y="56.35" transform="matrix(6.123234e-17 -1 1 6.123234e-17 -49.5458 302.7476)" class="st0" width="22.12" height="239.6"/>
<text transform="matrix(1 0 0 1 11.5571 179.7406)" class="st1 st2">White</text>
<text transform="matrix(1 0 0 1 226.6582 179.5009)" class="st3 st2">12</text>
<rect x="63.12" y="136.13" transform="matrix(6.123234e-17 -1 1 6.123234e-17 -129.3326 277.6981)" class="st0" width="22.12" height="134.76"/>
<text transform="matrix(1 0 0 1 11.5572 207.1092)" class="st1 st2">Filipino</text>
<text transform="matrix(1 0 0 1 128.5172 207.1383)" class="st3 st2">7</text>
<rect x="63.12" y="163.5" transform="matrix(6.123234e-17 -1 1 6.123234e-17 -156.7013 305.0668)" class="st0" width="22.12" height="134.76"/>
<text transform="matrix(1 0 0 1 11.5571 234.478)" class="st1 st2">Asian</text>
<text transform="matrix(1 0 0 1 128.5172 234.5067)" class="st3 st2">7</text>
<text transform="matrix(1 0 0 1 6.8018 19.399)" class="st6 st2">Chronic Absenteeism Rate</text>
</svg>
