<?xml version="1.0" encoding="utf-8"?>
<!-- Generator: Adobe Illustrator 24.1.2, SVG Export Plug-In . SVG Version: 6.00 Build 0)  -->
<svg version="1.1" id="Layer_1" xmlns="http://www.w3.org/2000/svg" xmlns:xlink="http://www.w3.org/1999/xlink" x="0px" y="0px"
	 viewBox="0 0 300 244.65" style="enable-background:new 0 0 300 244.65;" xml:space="preserve">
<style type="text/css">
	.st0{fill:#8DA6CC;}
	.st1{font-family:'IBMPlexSerif';}
	.st2{font-size:12px;}
	.st3{font-family:'IBMPlexSerif-Bold';}
	.st4{font-size:5px;}
	.st5{font-size:8px;}
	.st6{font-family:'IBMPlexSerif-SemiBold';}
</style>
<rect x="139.35" y="-110.73" transform="matrix(6.123234e-17 -1 1 6.123234e-17 114.5456 186.2694)" class="st0" width="22.12" height="293.18"/>
<text transform="matrix(1 0 0 1 8.5704 39.4559)" class="st1 st2">Indigenous</text>
<text transform="matrix(1 0 0 1 270.9239 39.4562)"><tspan x="0" y="0" class="st3 st2">28</tspan><tspan x="14.4" y="-2" class="st3 st4"> </tspan><tspan x="15.58" y="-2" class="st3 st5">%</tspan></text>
<rect x="133.94" y="-77.96" transform="matrix(6.123234e-17 -1 1 6.123234e-17 81.7709 208.2321)" class="st0" width="22.12" height="282.37"/>
<text transform="matrix(1 0 0 1 8.5707 66.8245)" class="st1 st2">Black</text>
<text transform="matrix(1 0 0 1 267.0516 66.8246)" class="st3 st2">27</text>
<rect x="130.57" y="-47.22" transform="matrix(6.123234e-17 -1 1 6.123234e-17 51.0347 232.2332)" class="st0" width="22.12" height="275.64"/>
<text transform="matrix(1 0 0 1 8.5703 94.1935)" class="st1 st2">Pacific Islander</text>
<text transform="matrix(1 0 0 1 261.275 94.1939)" class="st3 st2">26</text>
<rect x="81.55" y="29.17" transform="matrix(6.123234e-17 -1 1 6.123234e-17 -25.3551 210.5807)" class="st0" width="22.12" height="177.6"/>
<text transform="matrix(1 0 0 1 8.5703 121.5621)" class="st1 st2">Hispanic</text>
<text transform="matrix(1 0 0 1 185.2056 122.3231)" class="st3 st2">17</text>
<rect x="78.92" y="59.17" transform="matrix(6.123234e-17 -1 1 6.123234e-17 -55.3509 235.3222)" class="st0" width="22.12" height="172.34"/>
<text transform="matrix(1 0 0 1 8.5703 148.9307)" class="st1 st2">Two or More Races</text>
<text transform="matrix(1 0 0 1 179.5676 148.9302)" class="st3 st2">16</text>
<rect x="52.65" y="112.81" transform="matrix(6.123234e-17 -1 1 6.123234e-17 -108.9906 236.4199)" class="st0" width="22.12" height="119.8"/>
<text transform="matrix(1 0 0 1 8.5703 176.2991)" class="st1 st2">White</text>
<text transform="matrix(1 0 0 1 127.8879 176.2993)" class="st3 st2">12</text>
<rect x="26.44" y="166.38" transform="matrix(6.123234e-17 -1 1 6.123234e-17 -162.5683 237.5795)" class="st0" width="22.12" height="67.38"/>
<text transform="matrix(1 0 0 1 8.5703 203.6676)" class="st1 st2">Filipino</text>
<text transform="matrix(1 0 0 1 75.7308 202.6968)" class="st3 st2">7</text>
<rect x="26.44" y="193.75" transform="matrix(6.123234e-17 -1 1 6.123234e-17 -189.937 264.9481)" class="st0" width="22.12" height="67.38"/>
<text transform="matrix(1 0 0 1 8.5703 231.0364)" class="st1 st2">Asian</text>
<text transform="matrix(1 0 0 1 75.7308 230.0652)" class="st3 st2">7</text>
<text transform="matrix(1 0 0 1 3.815 15.9576)" class="st6 st2">Chronic Absenteeism Rate</text>
</svg>
