<?xml version="1.0" encoding="utf-8"?>
<!-- Generator: Adobe Illustrator 24.1.2, SVG Export Plug-In . SVG Version: 6.00 Build 0)  -->
<svg version="1.1" id="Layer_1" xmlns="http://www.w3.org/2000/svg" xmlns:xlink="http://www.w3.org/1999/xlink" x="0px" y="0px"
	 viewBox="0 0 650 221.35" style="enable-background:new 0 0 650 221.35;" xml:space="preserve">
<style type="text/css">
	.st0{fill:none;stroke:#6D7C93;stroke-width:2;stroke-linecap:round;stroke-miterlimit:10;}
	.st1{fill:none;stroke:#6D7C93;stroke-width:2;stroke-linecap:round;stroke-miterlimit:10;stroke-dasharray:0.4924,3.9395;}
	.st2{fill:#6D7C93;}
	.st3{fill:none;stroke:#6D7C93;stroke-width:2;stroke-linecap:round;stroke-miterlimit:10;stroke-dasharray:0.587,4.6959;}
	.st4{fill:none;stroke:#6D7C93;stroke-width:2;stroke-linecap:round;stroke-miterlimit:10;stroke-dasharray:0.497,3.9762;}
	.st5{fill:none;stroke:#6D7C93;stroke-width:2;stroke-linecap:round;stroke-miterlimit:10;stroke-dasharray:0.503,4.0239;}
	.st6{fill:none;stroke:#6D7C93;stroke-width:2;stroke-linecap:round;stroke-miterlimit:10;stroke-dasharray:0.4909,3.9273;}
	.st7{fill:none;stroke:#6D7C93;stroke-width:2;stroke-linecap:round;stroke-miterlimit:10;stroke-dasharray:0.5075,4.0598;}
	.st8{fill:none;stroke:#8F2625;stroke-width:2;stroke-linecap:round;stroke-miterlimit:10;}
	.st9{fill:none;stroke:#8F2625;stroke-width:2;stroke-linecap:round;stroke-miterlimit:10;stroke-dasharray:0.4951,3.9611;}
	.st10{fill:#8F2625;}
	.st11{fill:none;stroke:#000000;stroke-width:0.5;stroke-miterlimit:10;}
	.st12{font-family:'IBMPlexSerif-SemiBold';}
	.st13{font-size:12px;}
	.st14{fill:none;stroke:#6D7C93;stroke-width:2;stroke-linecap:round;stroke-miterlimit:10;stroke-dasharray:0.4977,3.9819;}
	.st15{font-family:'IBMPlexSerif';}
	.st16{fill:none;stroke:#6D7C93;stroke-width:2;stroke-linecap:round;stroke-miterlimit:10;stroke-dasharray:0.4943,3.9544;}
	.st17{fill:none;stroke:#6D7C93;stroke-width:2;stroke-linecap:round;stroke-miterlimit:10;stroke-dasharray:0.5006,4.0048;}
	.st18{fill:none;stroke:#6D7C93;stroke-width:2;stroke-linecap:round;stroke-miterlimit:10;stroke-dasharray:0.5,4.0002;}
	.st19{fill:none;stroke:#6D7C93;stroke-width:2;stroke-linecap:round;stroke-miterlimit:10;stroke-dasharray:0.4997,3.9977;}
	.st20{fill:none;stroke:#6D7C93;stroke-width:2;stroke-linecap:round;stroke-miterlimit:10;stroke-dasharray:0.4979,3.9831;}
	.st21{fill:none;stroke:#8F2625;stroke-width:2;stroke-linecap:round;stroke-miterlimit:10;stroke-dasharray:0.499,3.9917;}
	.st22{font-family:'IBMPlexSerif-Light';}
	.st23{font-size:10px;}
</style>
<text transform="matrix(1 0 0 1 2.3352 15.6084)" class="st12 st13">Chronic Absenteeism Rate</text>
<g>
	<g>
		<line class="st0" x1="156.65" y1="173.71" x2="156.4" y2="173.71"/>
		<line class="st14" x1="152.42" y1="173.71" x2="6.58" y2="173.88"/>
		<line class="st0" x1="4.59" y1="173.88" x2="4.34" y2="173.88"/>
		<g>
			<path class="st2" d="M156.51,171c1.49,0,2.71,1.21,2.71,2.7s-1.21,2.71-2.7,2.71c-1.49,0-2.71-1.21-2.71-2.7
				S155.01,171,156.51,171z"/>
		</g>
	</g>
</g>
<text transform="matrix(1 0 0 1 3.0501 168.5325)" class="st15 st13">English language learners</text>
<g>
	<g>
		<line class="st0" x1="31.03" y1="200.44" x2="30.78" y2="200.44"/>
		<line class="st16" x1="26.83" y1="200.44" x2="6.56" y2="200.44"/>
		<line class="st0" x1="4.59" y1="200.44" x2="4.34" y2="200.44"/>
		<g>
			<circle class="st2" cx="30.9" cy="200.44" r="2.71"/>
		</g>
	</g>
</g>
<text transform="matrix(1 0 0 1 3.0505 194.1798)" class="st15 st13">immigrants</text>
<g>
	<g>
		<line class="st0" x1="639.59" y1="43.32" x2="639.34" y2="43.32"/>
		<line class="st17" x1="635.33" y1="43.32" x2="6.59" y2="43.32"/>
		<line class="st0" x1="4.59" y1="43.32" x2="4.34" y2="43.32"/>
		<g>
			<path class="st2" d="M639.45,40.61c1.49,0,2.71,1.21,2.71,2.71s-1.21,2.71-2.71,2.71c-1.49,0-2.71-1.21-2.71-2.71
				S637.96,40.61,639.45,40.61z"/>
		</g>
	</g>
</g>
<text transform="matrix(1 0 0 1 3.0503 38.0603)" class="st15 st13">experiencing homelessness</text>
<g>
	<g>
		<line class="st0" x1="494.86" y1="69.42" x2="494.61" y2="69.42"/>
		<line class="st18" x1="490.61" y1="69.42" x2="6.59" y2="69.42"/>
		<line class="st0" x1="4.59" y1="69.42" x2="4.34" y2="69.42"/>
		<g>
			<circle class="st2" cx="494.73" cy="69.42" r="2.71"/>
		</g>
	</g>
</g>
<text transform="matrix(1 0 0 1 3.0504 64.1637)" class="st15 st13">in foster care</text>
<g>
	<g>
		<line class="st0" x1="265.19" y1="95.53" x2="264.94" y2="95.53"/>
		<line class="st19" x1="260.94" y1="95.53" x2="6.58" y2="95.53"/>
		<line class="st0" x1="4.59" y1="95.53" x2="4.34" y2="95.53"/>
		<g>
			<circle class="st2" cx="265.05" cy="95.53" r="2.71"/>
		</g>
	</g>
</g>
<text transform="matrix(1 0 0 1 3.0501 90.2669)" class="st15 st13">with disabilities</text>
<g>
	<g>
		<line class="st0" x1="235.75" y1="121.06" x2="235.5" y2="121.06"/>
		<line class="st20" x1="231.52" y1="121.06" x2="9.46" y2="121.06"/>
		<line class="st0" x1="7.47" y1="121.06" x2="7.22" y2="121.06"/>
		<g>
			<circle class="st2" cx="235.62" cy="121.06" r="2.71"/>
		</g>
	</g>
</g>
<text transform="matrix(1 0 0 1 3.0503 116.9431)" class="st15 st13">with low SES</text>
<g>
	<g>
		<line class="st8" x1="197.44" y1="148.07" x2="197.19" y2="148.07"/>
		<line class="st21" x1="193.2" y1="148.07" x2="6.58" y2="148.29"/>
		<line class="st8" x1="4.59" y1="148.29" x2="4.34" y2="148.29"/>
		<g>
			<path class="st10" d="M197.3,145.36c1.49,0,2.71,1.21,2.71,2.7s-1.21,2.71-2.7,2.71c-1.49,0-2.71-1.21-2.71-2.7
				C194.59,146.58,195.8,145.36,197.3,145.36z"/>
		</g>
	</g>
</g>
<text transform="matrix(1 0 0 1 3.0508 141.9176)" class="st15 st13">District average</text>
<line class="st11" x1="125.62" y1="215.98" x2="125.62" y2="210.55"/>
<line class="st11" x1="252.38" y1="215.98" x2="252.38" y2="210.55"/>
<line class="st11" x1="379.14" y1="215.98" x2="379.14" y2="210.55"/>
<line class="st11" x1="505.9" y1="215.98" x2="505.9" y2="210.55"/>
<line class="st11" x1="632.66" y1="215.98" x2="632.66" y2="210.55"/>
<text transform="matrix(1 0 0 1 102.6429 219.9828)" class="st22 st23">10%</text>
<text transform="matrix(1 0 0 1 238.383 219.9825)" class="st22 st23">20</text>
<text transform="matrix(1 0 0 1 365.143 219.9826)" class="st22 st23">30</text>
<text transform="matrix(1 0 0 1 491.9021 219.9826)" class="st22 st23">40</text>
<text transform="matrix(1 0 0 1 618.6626 219.9827)" class="st22 st23">50</text>
<line class="st11" x1="4.34" y1="210.55" x2="632.66" y2="210.55"/>
</svg>
