<?xml version="1.0" encoding="utf-8"?>
<!-- Generator: Adobe Illustrator 24.1.2, SVG Export Plug-In . SVG Version: 6.00 Build 0)  -->
<svg version="1.1" id="Layer_1" xmlns="http://www.w3.org/2000/svg" xmlns:xlink="http://www.w3.org/1999/xlink" x="0px" y="0px"
	 viewBox="0 0 300 221.35" style="enable-background:new 0 0 300 221.35;" xml:space="preserve">
<style type="text/css">
	.st0{font-family:'IBMPlexSerif-SemiBold';}
	.st1{font-size:12px;}
	.st2{fill:none;stroke:#6D7C93;stroke-width:2;stroke-linecap:round;stroke-miterlimit:10;}
	.st3{fill:none;stroke:#6D7C93;stroke-width:2;stroke-linecap:round;stroke-miterlimit:10;stroke-dasharray:0.4924,3.9395;}
	.st4{fill:#6D7C93;}
	.st5{font-family:'IBMPlexSerif';}
	.st6{fill:none;stroke:#6D7C93;stroke-width:2;stroke-linecap:round;stroke-miterlimit:10;stroke-dasharray:0.587,4.6959;}
	.st7{fill:none;stroke:#6D7C93;stroke-width:2;stroke-linecap:round;stroke-miterlimit:10;stroke-dasharray:0.497,3.9762;}
	.st8{fill:none;stroke:#6D7C93;stroke-width:2;stroke-linecap:round;stroke-miterlimit:10;stroke-dasharray:0.503,4.0239;}
	.st9{fill:none;stroke:#6D7C93;stroke-width:2;stroke-linecap:round;stroke-miterlimit:10;stroke-dasharray:0.4909,3.9273;}
	.st10{fill:none;stroke:#6D7C93;stroke-width:2;stroke-linecap:round;stroke-miterlimit:10;stroke-dasharray:0.5075,4.0598;}
	.st11{fill:none;stroke:#8F2625;stroke-width:2;stroke-linecap:round;stroke-miterlimit:10;}
	.st12{fill:none;stroke:#8F2625;stroke-width:2;stroke-linecap:round;stroke-miterlimit:10;stroke-dasharray:0.4951,3.9611;}
	.st13{fill:#8F2625;}
	.st14{fill:none;stroke:#000000;stroke-width:0.5;stroke-miterlimit:10;}
	.st15{font-family:'IBMPlexSerif-Light';}
	.st16{font-size:10px;}
	.st17{fill:none;stroke:#6D7C93;stroke-width:2;stroke-linecap:round;stroke-miterlimit:10;stroke-dasharray:0.4977,3.9819;}
	.st18{fill:none;stroke:#6D7C93;stroke-width:2;stroke-linecap:round;stroke-miterlimit:10;stroke-dasharray:0.4943,3.9544;}
	.st19{fill:none;stroke:#6D7C93;stroke-width:2;stroke-linecap:round;stroke-miterlimit:10;stroke-dasharray:0.5006,4.0048;}
	.st20{fill:none;stroke:#6D7C93;stroke-width:2;stroke-linecap:round;stroke-miterlimit:10;stroke-dasharray:0.5,4.0002;}
	.st21{fill:none;stroke:#6D7C93;stroke-width:2;stroke-linecap:round;stroke-miterlimit:10;stroke-dasharray:0.4997,3.9977;}
	.st22{fill:none;stroke:#6D7C93;stroke-width:2;stroke-linecap:round;stroke-miterlimit:10;stroke-dasharray:0.4979,3.9831;}
	.st23{fill:none;stroke:#8F2625;stroke-width:2;stroke-linecap:round;stroke-miterlimit:10;stroke-dasharray:0.499,3.9917;}
</style>
<text transform="matrix(1 0 0 1 1.7954 15.4609)" class="st0 st1">Chronic Absenteeism Rate</text>
<g>
	<g>
		<g>
			<line class="st2" x1="70.28" y1="173.56" x2="70.03" y2="173.56"/>
			<line class="st3" x1="66.09" y1="173.57" x2="6.02" y2="173.73"/>
			<line class="st2" x1="4.05" y1="173.73" x2="3.8" y2="173.73"/>
			<g>
				<path class="st4" d="M70.14,170.86c1.49,0,2.71,1.21,2.71,2.7s-1.21,2.71-2.7,2.71c-1.49,0-2.71-1.21-2.71-2.7
					C67.44,172.08,68.65,170.86,70.14,170.86z"/>
			</g>
		</g>
	</g>
	<text transform="matrix(1 0 0 1 2.5104 168.3849)" class="st5 st1">English language learners</text>
</g>
<g>
	<g>
		<g>
			<line class="st2" x1="14.27" y1="200.29" x2="14.02" y2="200.29"/>
			<line class="st6" x1="9.33" y1="200.29" x2="6.39" y2="200.29"/>
			<line class="st2" x1="4.05" y1="200.29" x2="3.8" y2="200.29"/>
			<g>
				<circle class="st4" cx="14.14" cy="200.29" r="2.71"/>
			</g>
		</g>
	</g>
	<text transform="matrix(1 0 0 1 2.5107 194.0322)" class="st5 st1">immigrants</text>
</g>
<g>
	<g>
		<g>
			<line class="st2" x1="285.61" y1="43.17" x2="285.36" y2="43.17"/>
			<line class="st7" x1="281.39" y1="43.17" x2="6.03" y2="43.17"/>
			<line class="st2" x1="4.05" y1="43.17" x2="3.8" y2="43.17"/>
			<g>
				<path class="st4" d="M285.48,40.47c1.49,0,2.71,1.21,2.71,2.71s-1.21,2.71-2.71,2.71c-1.49,0-2.71-1.21-2.71-2.71
					S283.98,40.47,285.48,40.47z"/>
			</g>
		</g>
	</g>
	<text transform="matrix(1 0 0 1 2.5105 37.9127)" class="st5 st1">experiencing homelessness</text>
</g>
<g>
	<g>
		<g>
			<line class="st2" x1="221.08" y1="69.28" x2="220.83" y2="69.28"/>
			<line class="st8" x1="216.81" y1="69.28" x2="6.06" y2="69.28"/>
			<line class="st2" x1="4.05" y1="69.28" x2="3.8" y2="69.28"/>
			<g>
				<circle class="st4" cx="220.95" cy="69.28" r="2.71"/>
			</g>
		</g>
	</g>
	<text transform="matrix(1 0 0 1 2.5106 64.0162)" class="st5 st1">in foster care</text>
</g>
<g>
	<g>
		<g>
			<line class="st2" x1="118.68" y1="95.38" x2="118.43" y2="95.38"/>
			<line class="st9" x1="114.5" y1="95.38" x2="6.01" y2="95.38"/>
			<line class="st2" x1="4.05" y1="95.38" x2="3.8" y2="95.38"/>
			<g>
				<path class="st4" d="M118.54,92.67c1.49,0,2.71,1.21,2.71,2.71s-1.21,2.71-2.71,2.71c-1.49,0-2.71-1.21-2.71-2.71
					S117.05,92.67,118.54,92.67z"/>
			</g>
		</g>
	</g>
	<text transform="matrix(1 0 0 1 2.5104 90.1193)" class="st5 st1">with disabilities</text>
</g>
<g>
	<g>
		<g>
			<line class="st2" x1="105.55" y1="120.91" x2="105.3" y2="120.91"/>
			<line class="st10" x1="101.24" y1="120.91" x2="7.36" y2="120.91"/>
			<line class="st2" x1="5.33" y1="120.91" x2="5.08" y2="120.91"/>
			<g>
				<path class="st4" d="M105.42,118.2c1.49,0,2.71,1.21,2.71,2.71s-1.21,2.71-2.71,2.71c-1.49,0-2.71-1.21-2.71-2.71
					S103.92,118.2,105.42,118.2z"/>
			</g>
		</g>
	</g>
	<text transform="matrix(1 0 0 1 2.5105 116.7955)" class="st5 st1">with low SES</text>
</g>
<g>
	<g>
		<g>
			<line class="st11" x1="88.47" y1="147.93" x2="88.22" y2="147.93"/>
			<line class="st12" x1="84.26" y1="147.94" x2="6.03" y2="148.14"/>
			<line class="st11" x1="4.05" y1="148.14" x2="3.8" y2="148.14"/>
			<g>
				<path class="st13" d="M88.33,145.22c1.49,0,2.71,1.21,2.71,2.7c0,1.49-1.21,2.71-2.7,2.71c-1.49,0-2.71-1.21-2.71-2.7
					C85.62,146.44,86.83,145.22,88.33,145.22z"/>
			</g>
		</g>
	</g>
	<text transform="matrix(1 0 0 1 2.511 141.77)" class="st5 st1">District average</text>
</g>
<line class="st14" x1="57.87" y1="215.83" x2="57.87" y2="210.4"/>
<line class="st14" x1="114.39" y1="215.83" x2="114.39" y2="210.4"/>
<line class="st14" x1="170.91" y1="215.83" x2="170.91" y2="210.4"/>
<line class="st14" x1="227.43" y1="215.83" x2="227.43" y2="210.4"/>
<line class="st14" x1="283.95" y1="215.83" x2="283.95" y2="210.4"/>
<text transform="matrix(1 0 0 1 34.5933 219.8352)" class="st15 st16">10%</text>
<text transform="matrix(1 0 0 1 99.3879 219.8349)" class="st15 st16">20</text>
<text transform="matrix(1 0 0 1 155.4243 219.835)" class="st15 st16">30</text>
<text transform="matrix(1 0 0 1 212.1042 219.835)" class="st15 st16">40</text>
<text transform="matrix(1 0 0 1 269.0424 219.835)" class="st15 st16">50</text>
<line class="st14" x1="3.8" y1="210.4" x2="283.95" y2="210.4"/>
</svg>
