<?xml version="1.0" encoding="utf-8"?>
<!-- Generator: Adobe Illustrator 24.1.2, SVG Export Plug-In . SVG Version: 6.00 Build 0)  -->
<svg version="1.1" id="Layer_1" xmlns="http://www.w3.org/2000/svg" xmlns:xlink="http://www.w3.org/1999/xlink" x="0px" y="0px"
	 viewBox="0 0 650 339.78" style="enable-background:new 0 0 650 339.78;" xml:space="preserve">
<style type="text/css">
	.st0{fill:none;stroke:#939598;stroke-width:0.5;stroke-linecap:round;stroke-miterlimit:10;}
	.st1{fill:none;stroke:#939598;stroke-width:0.5;stroke-linecap:round;stroke-miterlimit:10;stroke-dasharray:1.0042,2.0084;}
	.st2{fill:#6D7C93;}
	.st3{fill:none;stroke:#000000;stroke-width:0.5;stroke-linecap:round;stroke-miterlimit:10;}
	.st4{fill:none;stroke:#939598;stroke-width:0.5;stroke-linecap:round;stroke-miterlimit:10;stroke-dasharray:0.9981,1.9962;}
	.st5{font-family:'IBMPlexSerif-SemiBold';}
	.st6{font-size:12px;}
	.st7{font-family:'IBMPlexSerif-Light';}
	.st8{font-size:10px;}
	.st9{font-family:'IBMPlexSerif';}
	.st10{fill:none;stroke:#000000;stroke-width:0.5;stroke-miterlimit:10;}
	.st11{fill:#FFFFFF;}
</style>
<g>
	<g>
		<line class="st0" x1="7" y1="76.79" x2="7.5" y2="76.79"/>
		<line class="st4" x1="9.5" y1="76.79" x2="640.3" y2="76.79"/>
		<line class="st0" x1="641.3" y1="76.79" x2="641.8" y2="76.79"/>
	</g>
</g>
<g>
	<g>
		<line class="st0" x1="7" y1="153.27" x2="7.5" y2="153.27"/>
		<line class="st4" x1="9.5" y1="153.27" x2="640.3" y2="153.27"/>
		<line class="st0" x1="641.3" y1="153.27" x2="641.8" y2="153.27"/>
	</g>
</g>
<g>
	<g>
		<line class="st0" x1="7" y1="228.9" x2="7.5" y2="228.9"/>
		<line class="st4" x1="9.5" y1="228.9" x2="640.3" y2="228.9"/>
		<line class="st0" x1="641.3" y1="228.9" x2="641.8" y2="228.9"/>
	</g>
</g>
<g>
	<g>
		<line class="st0" x1="7" y1="302.43" x2="7.5" y2="302.43"/>
		<line class="st4" x1="9.5" y1="302.43" x2="640.3" y2="302.43"/>
		<line class="st0" x1="641.3" y1="302.43" x2="641.8" y2="302.43"/>
	</g>
</g>
<text transform="matrix(1 0 0 1 3.7079 15.4608)" class="st5 st6">Chronic Absenteeism and College Going Rates</text>
<circle class="st2" cx="92.17" cy="44.84" r="3.82"/>
<circle class="st2" cx="159.47" cy="166.43" r="3.82"/>
<circle class="st2" cx="201.93" cy="96.05" r="3.82"/>
<circle class="st2" cx="270.6" cy="39.49" r="3.82"/>
<circle class="st2" cx="299.9" cy="220.08" r="3.82"/>
<circle class="st2" cx="274.26" cy="209.27" r="3.82"/>
<circle class="st2" cx="363.54" cy="126.61" r="3.82"/>
<circle class="st2" cx="365.2" cy="155.81" r="3.82"/>
<circle class="st2" cx="396.35" cy="212.17" r="3.82"/>
<circle class="st2" cx="434.61" cy="132.65" r="3.82"/>
<circle class="st2" cx="494.57" cy="226.35" r="3.82"/>
<circle class="st2" cx="545.52" cy="263.27" r="3.82"/>
<circle class="st2" cx="538.34" cy="326.69" r="3.82"/>
<line class="st3" x1="189.9" y1="321.58" x2="189.9" y2="333.48"/>
<line class="st3" x1="372.79" y1="321.58" x2="372.79" y2="333.48"/>
<text transform="matrix(1 0 0 1 7.0007 322.582)"><tspan x="0" y="0" class="st7 st8">Percentage of students</tspan><tspan x="0" y="12" class="st7 st8">who are chronically absent</tspan></text>
<text transform="matrix(1 0 0 1 7.001 61.4046)"><tspan x="0" y="0" class="st7 st8">80% attend</tspan><tspan x="0" y="12" class="st7 st8">college</tspan></text>
<text transform="matrix(1 0 0 1 7.0004 150.2663)" class="st7 st8">70</text>
<text transform="matrix(1 0 0 1 7.0005 225.8969)" class="st7 st8">60</text>
<text transform="matrix(1 0 0 1 7.0012 299.4321)" class="st7 st8">50</text>
<text transform="matrix(1 0 0 1 192.8961 332.4767)" class="st7 st8">10%</text>
<text transform="matrix(1 0 0 1 375.7908 332.4767)" class="st7 st8">20</text>
<text transform="matrix(1 0 0 1 110.4282 47.6603)"><tspan x="0" y="0" class="st9 st8">West Campus H.S.</tspan><tspan x="0" y="12" class="st7 st8">79% students of color</tspan><tspan x="0" y="24" class="st7 st8">4.8% of whom are chronically absent</tspan></text>
<line class="st10" x1="99.18" y1="44.84" x2="107.58" y2="44.84"/>
<text transform="matrix(1 0 0 1 430.896 266.4883)"><tspan x="0" y="0" class="st9 st8">Hiram Johnson H.S.</tspan><tspan x="0" y="12" class="st7 st8">88% students of color</tspan><tspan x="0" y="24" class="st7 st8">29% of whom are chronically absent</tspan></text>
<line class="st10" x1="529.12" y1="263.27" x2="537.53" y2="263.27"/>
<rect x="404.9" y="70.9" class="st11" width="210.96" height="9.98"/>
<text transform="matrix(1 0 0 1 408.1178 43.3011)"><tspan x="0" y="0" class="st9 st8">West Campus H.S. and Hiram Johnson H.S.</tspan><tspan x="0" y="12.5" class="st9 st8">both serve majority-minority populations.</tspan><tspan x="0" y="25" class="st9 st8">However, West Campus H.S. has a much</tspan><tspan x="0" y="37.5" class="st9 st8">lower rate of absenteeism, and many more</tspan><tspan x="0" y="50" class="st9 st8">of its students go on to attend college.</tspan></text>
</svg>
