<?xml version="1.0" encoding="utf-8"?>
<!-- Generator: Adobe Illustrator 24.1.2, SVG Export Plug-In . SVG Version: 6.00 Build 0)  -->
<svg version="1.1" id="Layer_1" xmlns="http://www.w3.org/2000/svg" xmlns:xlink="http://www.w3.org/1999/xlink" x="0px" y="0px"
	 viewBox="0 0 300 217.81" style="enable-background:new 0 0 300 217.81;" xml:space="preserve">
<style type="text/css">
	.st0{fill:none;stroke:#939598;stroke-width:0.5;stroke-linecap:round;stroke-miterlimit:10;}
	.st1{fill:none;stroke:#939598;stroke-width:0.5;stroke-linecap:round;stroke-miterlimit:10;stroke-dasharray:1.0042,2.0084;}
	.st2{font-family:'IBMPlexSerif-SemiBold';}
	.st3{font-size:12px;}
	.st4{fill:#6D7C93;}
	.st5{fill:none;stroke:#000000;stroke-width:0.5;stroke-linecap:round;stroke-miterlimit:10;}
	.st6{font-family:'IBMPlexSerif-Light';}
	.st7{font-size:10px;}
	.st8{fill:none;stroke:#939598;stroke-width:0.5;stroke-linecap:round;stroke-miterlimit:10;stroke-dasharray:0.9981,1.9962;}
	.st9{fill:none;stroke:#000000;stroke-width:0.5;stroke-miterlimit:10;}
	.st10{fill:#FFFFFF;}
</style>
<g>
	<g>
		<line class="st0" x1="2.36" y1="60.76" x2="2.86" y2="60.76"/>
		<line class="st1" x1="4.87" y1="60.76" x2="296.08" y2="60.76"/>
		<line class="st0" x1="297.09" y1="60.76" x2="297.59" y2="60.76"/>
	</g>
</g>
<g>
	<g>
		<line class="st0" x1="2.36" y1="102.11" x2="2.86" y2="102.11"/>
		<line class="st1" x1="4.87" y1="102.11" x2="296.08" y2="102.11"/>
		<line class="st0" x1="297.09" y1="102.11" x2="297.59" y2="102.11"/>
	</g>
</g>
<g>
	<g>
		<line class="st0" x1="2.36" y1="143" x2="2.86" y2="143"/>
		<line class="st1" x1="4.87" y1="143" x2="296.08" y2="143"/>
		<line class="st0" x1="297.09" y1="143" x2="297.59" y2="143"/>
	</g>
</g>
<g>
	<g>
		<line class="st0" x1="2.36" y1="182.75" x2="2.86" y2="182.75"/>
		<line class="st1" x1="4.87" y1="182.75" x2="296.08" y2="182.75"/>
		<line class="st0" x1="297.09" y1="182.75" x2="297.59" y2="182.75"/>
	</g>
</g>
<text transform="matrix(1 0 0 1 3.7957 15.4609)" class="st2 st3">Chronic Absenteeism and College Going Rates</text>
<circle class="st4" cx="48.41" cy="43.5" r="2.06"/>
<circle class="st4" cx="84.79" cy="109.23" r="2.06"/>
<circle class="st4" cx="107.74" cy="71.18" r="2.06"/>
<circle class="st4" cx="144.87" cy="40.6" r="2.06"/>
<circle class="st4" cx="160.71" cy="138.23" r="2.06"/>
<circle class="st4" cx="146.85" cy="132.39" r="2.06"/>
<circle class="st4" cx="195.11" cy="87.7" r="2.06"/>
<circle class="st4" cx="196.01" cy="103.49" r="2.06"/>
<circle class="st4" cx="212.85" cy="133.96" r="2.06"/>
<circle class="st4" cx="233.54" cy="90.97" r="2.06"/>
<circle class="st4" cx="265.95" cy="141.62" r="2.06"/>
<circle class="st4" cx="293.5" cy="161.58" r="2.06"/>
<circle class="st4" cx="289.61" cy="195.87" r="2.06"/>
<line class="st5" x1="101.24" y1="208.24" x2="101.24" y2="214.68"/>
<line class="st5" x1="200.11" y1="208.24" x2="200.11" y2="214.68"/>
<text transform="matrix(1 0 0 1 2.36 70.9005)" class="st6 st7">80% attend college</text>
<text transform="matrix(1 0 0 1 2.3603 112.2478)" class="st6 st7">70</text>
<text transform="matrix(1 0 0 1 2.3601 153.1351)" class="st6 st7">60</text>
<text transform="matrix(1 0 0 1 2.3604 192.8899)" class="st6 st7">50</text>
<text transform="matrix(1 0 0 1 76.8222 214.6754)" class="st6 st7">10%</text>
<text transform="matrix(1 0 0 1 176.0447 214.6755)" class="st6 st7">20%</text>
<text transform="matrix(1 0 0 1 203.0331 214.6754)" class="st6 st7">chronically absent</text>
<text transform="matrix(1 0 0 1 52.5735 46.7866)" class="st6 st7">West Campus H.S.</text>
</svg>
