<svg xmlns="http://www.w3.org/2000/svg" viewBox="0 0 650 233.95" xmlns:v="https://vecta.io/nano"><style><![CDATA[.G{font-size:12px}.H{font-family:IBMPlexSerif}.I{fill:#fff}.J{font-family:IBMPlexSerif-Bold}.K{font-family:IBMPlexSerif-SemiBold}]]></style><text transform="translate(4.118 13.37)" class="G K">Number of Nursing Homes by CMS Rating</text><path d="M4.12 162.43h53.06v53H4.12zm59.45-42.93h53.06v95.93H63.57zm59.46-10.06h53.06v106h-53.06zm59.45-6.17h53.06v112.16h-53.06zm59.46-68.4H295v180.57h-53.06z" fill="#6d7c93"/><text transform="translate(18.001 159.43)" class="G H">10%</text><text transform="translate(77.455 116.498)" class="G H">18%</text><text transform="translate(137.674 106.435)" class="G H">19%</text><text transform="translate(196.364 100.27)" class="G H">21%</text><text transform="translate(255.668 31.859)" class="G H">33%</text><text transform="translate(116.36 229.107)" class="G H">CMS Rating</text><text transform="translate(27.042 211.425)" class="G I J">1</text><text transform="translate(86.503 211.425)" class="G I J">2</text><text transform="translate(145.958 211.425)" class="G I J">3</text><text transform="translate(205.412 211.425)" class="G I J">4</text><text transform="translate(264.866 211.425)" class="G I J">5</text><text transform="translate(353.124 13.371)" class="G K">Cases Per 100 Residents by CMS Rating</text><text transform="translate(465.365 229.107)" class="G H">CMS Rating</text><path d="M353.12 34.86h53.06v180.57h-53.06zm59.46 0h53.06v180.57h-53.06zm59.45 14.66h53.06v165.9h-53.06zm59.47 53.83h53.06V215.5H531.5zm59.44 29.12H644v82.95h-53.06z" fill="#6d7c93"/><text transform="translate(371.689 31.859)" class="G H">25</text><text transform="translate(431.143 31.859)" class="G H">25</text><text transform="translate(490.598 46.52)" class="G H">23</text><text transform="translate(550.968 100.353)" class="G H">15</text><text transform="translate(610.572 129.473)" class="G H">11</text><text transform="translate(376.048 211.426)" class="G I J">1</text><text transform="translate(435.509 211.426)" class="G I J">2</text><text transform="translate(494.963 211.426)" class="G I J">3</text><text transform="translate(554.418 211.426)" class="G I J">4</text><text transform="translate(613.872 211.426)" class="G I J">5</text></svg>