<?xml version="1.0" encoding="utf-8"?>
<!-- Generator: Adobe Illustrator 24.1.2, SVG Export Plug-In . SVG Version: 6.00 Build 0)  -->
<svg version="1.1" id="Layer_1" xmlns="http://www.w3.org/2000/svg" xmlns:xlink="http://www.w3.org/1999/xlink" x="0px" y="0px"
	 viewBox="0 0 300 484.59" style="enable-background:new 0 0 300 484.59;" xml:space="preserve">
<style type="text/css">
	.st0{font-family:'IBMPlexSerif-SemiBold';}
	.st1{font-size:12px;}
	.st2{fill:#6D7C93;}
	.st3{font-family:'IBMPlexSerif';}
	.st4{fill:#FFFFFF;}
	.st5{font-family:'IBMPlexSerif-Bold';}
</style>
<text transform="matrix(1 0 0 1 3.7957 15.4609)" class="st0 st1">Number of Nursing Homes by CMS Rating</text>
<rect x="3.8" y="164.52" class="st2" width="53.06" height="53"/>
<rect x="63.25" y="121.59" class="st2" width="53.06" height="95.93"/>
<rect x="122.7" y="111.53" class="st2" width="53.06" height="105.99"/>
<rect x="182.16" y="105.36" class="st2" width="53.06" height="112.16"/>
<rect x="241.61" y="36.95" class="st2" width="53.06" height="180.57"/>
<text transform="matrix(1 0 0 1 17.6783 161.5213)" class="st3 st1">10%</text>
<text transform="matrix(1 0 0 1 77.1323 118.5886)" class="st3 st1">18%</text>
<text transform="matrix(1 0 0 1 137.3522 108.5262)" class="st3 st1">19%</text>
<text transform="matrix(1 0 0 1 196.0414 102.3608)" class="st3 st1">21%</text>
<text transform="matrix(1 0 0 1 255.3454 33.9495)" class="st3 st1">33%</text>
<text transform="matrix(1 0 0 1 116.0373 231.1976)" class="st3 st1">CMS Rating</text>
<text transform="matrix(1 0 0 1 26.7199 213.5161)" class="st4 st5 st1">1</text>
<text transform="matrix(1 0 0 1 86.1807 213.5162)" class="st4 st5 st1">2</text>
<text transform="matrix(1 0 0 1 145.6353 213.5162)" class="st4 st5 st1">3</text>
<text transform="matrix(1 0 0 1 205.0895 213.5162)" class="st4 st5 st1">4</text>
<text transform="matrix(1 0 0 1 264.5437 213.5162)" class="st4 st5 st1">5</text>
<text transform="matrix(1 0 0 1 4.5609 264.1801)" class="st0 st1">Cases Per 100 Residents by CMS Rating</text>
<text transform="matrix(1 0 0 1 116.8026 479.9166)" class="st3 st1">CMS Rating</text>
<rect x="4.56" y="285.67" class="st2" width="53.06" height="180.57"/>
<rect x="64.02" y="285.67" class="st2" width="53.06" height="180.57"/>
<rect x="123.47" y="300.33" class="st2" width="53.06" height="165.91"/>
<rect x="182.92" y="354.16" class="st2" width="53.06" height="112.16"/>
<rect x="242.38" y="383.28" class="st2" width="53.06" height="82.95"/>
<text transform="matrix(1 0 0 1 23.1264 282.6683)" class="st3 st1">25</text>
<text transform="matrix(1 0 0 1 82.5807 282.6686)" class="st3 st1">25</text>
<text transform="matrix(1 0 0 1 142.0355 297.3293)" class="st3 st1">23</text>
<text transform="matrix(1 0 0 1 202.4052 351.162)" class="st3 st1">15</text>
<text transform="matrix(1 0 0 1 262.0095 380.2825)" class="st3 st1">11</text>
<text transform="matrix(1 0 0 1 27.4852 462.2351)" class="st4 st5 st1">1</text>
<text transform="matrix(1 0 0 1 86.946 462.2352)" class="st4 st5 st1">2</text>
<text transform="matrix(1 0 0 1 146.4006 462.2352)" class="st4 st5 st1">3</text>
<text transform="matrix(1 0 0 1 205.8548 462.2352)" class="st4 st5 st1">4</text>
<text transform="matrix(1 0 0 1 265.309 462.2352)" class="st4 st5 st1">5</text>
</svg>
