<svg xmlns="http://www.w3.org/2000/svg" viewBox="0 0 300 484.59" xmlns:v="https://vecta.io/nano"><style><![CDATA[.G{font-size:12px}.H{font-family:IBMPlexSerif}.I{fill:#fff}.J{font-family:IBMPlexSerif-Bold}.K{font-family:IBMPlexSerif-SemiBold}]]></style><text transform="translate(3.796 15.461)" class="G K">Number of Nursing Homes by CMS Rating</text><path d="M3.8 164.52h53.06v53H3.8zm59.45-42.92h53.06v95.93H63.25zm59.45-10.07h53.06v106H122.7zm59.46-6.17h53.06v112.16h-53.06zm59.44-68.4h53.06v180.57H241.6z" fill="#6d7c93"/><text transform="translate(17.678 161.521)" class="G H">10%</text><text transform="translate(77.132 118.589)" class="G H">18%</text><text transform="translate(137.352 108.526)" class="G H">19%</text><text transform="translate(196.041 102.361)" class="G H">21%</text><text transform="translate(255.345 33.95)" class="G H">33%</text><text transform="translate(116.037 231.198)" class="G H">CMS Rating</text><text transform="translate(26.72 213.516)" class="G I J">1</text><text transform="translate(86.181 213.516)" class="G I J">2</text><text transform="translate(145.635 213.516)" class="G I J">3</text><text transform="translate(205.09 213.516)" class="G I J">4</text><text transform="translate(264.544 213.516)" class="G I J">5</text><text transform="translate(4.561 264.18)" class="G K">Cases Per 100 Residents by CMS Rating</text><text transform="translate(116.803 479.917)" class="G H">CMS Rating</text><path d="M4.56 285.67h53.06v180.57H4.56zm59.46 0h53.06v180.57H64.02zm59.45 14.66h53.06v165.9h-53.06zm59.45 53.83h53.06v112.16h-53.06zm59.46 29.12h53.06v82.95h-53.06z" fill="#6d7c93"/><text transform="translate(23.126 282.668)" class="G H">25</text><text transform="translate(82.581 282.669)" class="G H">25</text><text transform="translate(142.036 297.329)" class="G H">23</text><text transform="translate(202.405 351.162)" class="G H">15</text><text transform="translate(262.01 380.283)" class="G H">11</text><text transform="translate(27.485 462.235)" class="G I J">1</text><text transform="translate(86.946 462.235)" class="G I J">2</text><text transform="translate(146.401 462.235)" class="G I J">3</text><text transform="translate(205.855 462.235)" class="G I J">4</text><text transform="translate(265.309 462.235)" class="G I J">5</text></svg>