<?xml version="1.0" encoding="utf-8"?>
<!-- Generator: Adobe Illustrator 24.1.2, SVG Export Plug-In . SVG Version: 6.00 Build 0)  -->
<svg version="1.1" id="Layer_1" xmlns="http://www.w3.org/2000/svg" xmlns:xlink="http://www.w3.org/1999/xlink" x="0px" y="0px"
	 viewBox="0 0 650 237.86" style="enable-background:new 0 0 650 237.86;" xml:space="preserve">
<style type="text/css">
	.st0{fill:#6D7C93;}
	.st1{font-family:'IBMPlexSerif-SemiBold';}
	.st2{font-size:12px;}
	.st3{font-family:'IBMPlexSerif';}
	.st4{fill:#FFFFFF;}
	.st5{font-family:'IBMPlexSerif-Bold';}
</style>
<text transform="matrix(1 0 0 1 3.5903 15.4607)" class="st1 st2">Cases Per 100 Residents by Staffing Rating</text>
<text transform="matrix(1 0 0 1 106.3105 231.1974)" class="st3 st2">Staffing Rating</text>
<rect x="63.04" y="36.95" class="st0" width="53.06" height="180.57"/>
<rect x="3.59" y="111.46" class="st0" width="53.06" height="105.99"/>
<rect x="123.26" y="84.91" class="st0" width="53.06" height="132.6"/>
<rect x="181.95" y="144.75" class="st0" width="53.06" height="72.76"/>
<rect x="241.41" y="164.46" class="st0" width="53.06" height="53.06"/>
<text transform="matrix(1 0 0 1 23.0709 108.4604)" class="st3 st2">15</text>
<text transform="matrix(1 0 0 1 82.3752 33.9491)" class="st3 st2">26</text>
<text transform="matrix(1 0 0 1 142.7451 81.9124)" class="st3 st2">19</text>
<text transform="matrix(1 0 0 1 201.5844 141.7525)" class="st3 st2">11</text>
<text transform="matrix(1 0 0 1 264.3376 161.4555)" class="st3 st2">8</text>
<text transform="matrix(1 0 0 1 26.5146 213.5159)" class="st4 st5 st2">1</text>
<text transform="matrix(1 0 0 1 85.9754 213.516)" class="st4 st5 st2">2</text>
<text transform="matrix(1 0 0 1 145.4299 213.516)" class="st4 st5 st2">3</text>
<text transform="matrix(1 0 0 1 204.8843 213.516)" class="st4 st5 st2">4</text>
<text transform="matrix(1 0 0 1 264.3385 213.516)" class="st4 st5 st2">5</text>
<text transform="matrix(1 0 0 1 351.5314 15.4608)" class="st1 st2">Cases Per 100 Residents by RN Staffing Rating</text>
<text transform="matrix(1 0 0 1 443.9557 231.1976)" class="st3 st2">RN Staffing Rating</text>
<rect x="410.99" y="36.95" class="st0" width="53.06" height="180.57"/>
<rect x="351.53" y="60.76" class="st0" width="53.06" height="156.75"/>
<rect x="470.44" y="105.24" class="st0" width="53.06" height="112.42"/>
<rect x="529.89" y="139.14" class="st0" width="53.06" height="77.35"/>
<rect x="589.35" y="160.27" class="st0" width="53.06" height="56.21"/>
<text transform="matrix(1 0 0 1 370.8617 57.7635)" class="st3 st2">22</text>
<text transform="matrix(1 0 0 1 430.3163 33.9494)" class="st3 st2">25</text>
<text transform="matrix(1 0 0 1 490.6863 102.2429)" class="st3 st2">15</text>
<text transform="matrix(1 0 0 1 549.5256 136.1396)" class="st3 st2">11</text>
<text transform="matrix(1 0 0 1 612.2791 157.2727)" class="st3 st2">8</text>
<text transform="matrix(1 0 0 1 374.4557 213.516)" class="st4 st5 st2">1</text>
<text transform="matrix(1 0 0 1 433.9165 213.5161)" class="st4 st5 st2">2</text>
<text transform="matrix(1 0 0 1 493.3711 213.5161)" class="st4 st5 st2">3</text>
<text transform="matrix(1 0 0 1 552.8256 213.5161)" class="st4 st5 st2">4</text>
<text transform="matrix(1 0 0 1 612.2797 213.5161)" class="st4 st5 st2">5</text>
</svg>
