<svg xmlns="http://www.w3.org/2000/svg" viewBox="0 0 650 237.86" xmlns:v="https://vecta.io/nano"><style><![CDATA[.G{font-size:12px}.H{font-family:IBMPlexSerif}.I{fill:#fff}.J{font-family:IBMPlexSerif-Bold}.K{font-family:IBMPlexSerif-SemiBold}]]></style><text transform="translate(3.59 15.461)" class="G K">Cases Per 100 Residents by Staffing Rating</text><text transform="translate(106.311 231.197)" class="G H">Staffing Rating</text><path d="M63.04 36.95h53.06v180.57H63.04zM3.6 111.46h53.06v106H3.6zM123.26 84.9h53.06v132.6h-53.06zm58.7 59.85H235v72.76h-53.06zm59.45 19.7h53.06v53.06H241.4z" fill="#6d7c93"/><text transform="translate(23.071 108.46)" class="G H">15</text><text transform="translate(82.375 33.949)" class="G H">26</text><text transform="translate(142.745 81.912)" class="G H">19</text><text transform="translate(201.584 141.753)" class="G H">11</text><text transform="translate(264.338 161.456)" class="G H">8</text><text transform="translate(26.515 213.516)" class="G I J">1</text><text transform="translate(85.975 213.516)" class="G I J">2</text><text transform="translate(145.43 213.516)" class="G I J">3</text><text transform="translate(204.884 213.516)" class="G I J">4</text><text transform="translate(264.339 213.516)" class="G I J">5</text><text transform="translate(351.531 15.461)" class="G K">Cases Per 100 Residents by RN Staffing Rating</text><text transform="translate(443.956 231.198)" class="G H">RN Staffing Rating</text><path d="M411 36.95h53.06v180.57H411zm-59.47 23.8h53.06V217.5h-53.06zm118.9 44.48h53.06v112.42h-53.06zm59.46 33.9h53.06v77.35H529.9zm59.45 21.13h53.06v56.2h-53.06z" fill="#6d7c93"/><text transform="translate(370.862 57.764)" class="G H">22</text><text transform="translate(430.316 33.949)" class="G H">25</text><text transform="translate(490.686 102.243)" class="G H">15</text><text transform="translate(549.526 136.14)" class="G H">11</text><text transform="translate(612.279 157.273)" class="G H">8</text><text transform="translate(374.456 213.516)" class="G I J">1</text><text transform="translate(433.917 213.516)" class="G I J">2</text><text transform="translate(493.371 213.516)" class="G I J">3</text><text transform="translate(552.826 213.516)" class="G I J">4</text><text transform="translate(612.28 213.516)" class="G I J">5</text></svg>