<svg xmlns="http://www.w3.org/2000/svg" viewBox="0 0 300 507.89" xmlns:v="https://vecta.io/nano"><style><![CDATA[.G{font-size:12px}.H{font-family:IBMPlexSerif}.I{fill:#fff}.J{font-family:IBMPlexSerif-Bold}.K{font-family:IBMPlexSerif-SemiBold}]]></style><text transform="translate(3.796 15.461)" class="G K">Cases Per 100 Residents by Staffing Rating</text><text transform="translate(106.516 231.198)" class="G H">Staffing Rating</text><path d="M63.25 36.95h53.06v180.57H63.25zM3.8 111.46h53.06v106H3.8zM123.47 84.9h53.06v132.6h-53.06zm58.7 59.85h53.06v72.76h-53.06zm59.44 19.7h53.06v53.06H241.6z" fill="#6d7c93"/><text transform="translate(23.276 108.461)" class="G H">15</text><text transform="translate(82.581 33.949)" class="G H">26</text><text transform="translate(142.95 81.913)" class="G H">19</text><text transform="translate(201.79 141.753)" class="G H">11</text><text transform="translate(264.543 161.456)" class="G H">8</text><text transform="translate(26.72 213.516)" class="G I J">1</text><text transform="translate(86.181 213.516)" class="G I J">2</text><text transform="translate(145.635 213.516)" class="G I J">3</text><text transform="translate(205.09 213.516)" class="G I J">4</text><text transform="translate(264.544 213.516)" class="G I J">5</text><text transform="translate(4.562 277.179)" class="G K">Cases Per 100 Residents by RN Staffing Rating</text><text transform="translate(96.986 492.916)" class="G H">RN Staffing Rating</text><path d="M64.02 298.67h53.06v180.57H64.02zm-59.46 23.8h53.06v156.75H4.56zm118.9 44.48h53.06v112.42h-53.06zm59.45 33.9h53.06v77.35h-53.06zM242.38 422h53.06v56.2h-53.06z" fill="#6d7c93"/><text transform="translate(23.892 319.482)" class="G H">22</text><text transform="translate(83.346 295.668)" class="G H">25</text><text transform="translate(143.716 363.961)" class="G H">15</text><text transform="translate(202.555 397.858)" class="G H">11</text><text transform="translate(265.309 418.991)" class="G H">8</text><text transform="translate(27.486 475.235)" class="G I J">1</text><text transform="translate(86.947 475.235)" class="G I J">2</text><text transform="translate(146.401 475.235)" class="G I J">3</text><text transform="translate(205.855 475.235)" class="G I J">4</text><text transform="translate(265.31 475.235)" class="G I J">5</text></svg>