<?xml version="1.0" encoding="utf-8"?>
<!-- Generator: Adobe Illustrator 24.1.2, SVG Export Plug-In . SVG Version: 6.00 Build 0)  -->
<svg version="1.1" id="Layer_1" xmlns="http://www.w3.org/2000/svg" xmlns:xlink="http://www.w3.org/1999/xlink" x="0px" y="0px"
	 viewBox="0 0 300 507.89" style="enable-background:new 0 0 300 507.89;" xml:space="preserve">
<style type="text/css">
	.st0{font-family:'IBMPlexSerif-SemiBold';}
	.st1{font-size:12px;}
	.st2{font-family:'IBMPlexSerif';}
	.st3{fill:#6D7C93;}
	.st4{fill:#FFFFFF;}
	.st5{font-family:'IBMPlexSerif-Bold';}
</style>
<text transform="matrix(1 0 0 1 3.7957 15.4609)" class="st0 st1">Cases Per 100 Residents by Staffing Rating</text>
<text transform="matrix(1 0 0 1 106.5158 231.1976)" class="st2 st1">Staffing Rating</text>
<rect x="63.25" y="36.95" class="st3" width="53.06" height="180.57"/>
<rect x="3.8" y="111.46" class="st3" width="53.06" height="105.99"/>
<rect x="123.47" y="84.91" class="st3" width="53.06" height="132.6"/>
<rect x="182.16" y="144.75" class="st3" width="53.06" height="72.76"/>
<rect x="241.61" y="164.46" class="st3" width="53.06" height="53.06"/>
<text transform="matrix(1 0 0 1 23.2762 108.4605)" class="st2 st1">15</text>
<text transform="matrix(1 0 0 1 82.5806 33.9493)" class="st2 st1">26</text>
<text transform="matrix(1 0 0 1 142.9504 81.9125)" class="st2 st1">19</text>
<text transform="matrix(1 0 0 1 201.7896 141.7527)" class="st2 st1">11</text>
<text transform="matrix(1 0 0 1 264.5428 161.4556)" class="st2 st1">8</text>
<text transform="matrix(1 0 0 1 26.7199 213.5161)" class="st4 st5 st1">1</text>
<text transform="matrix(1 0 0 1 86.1807 213.5162)" class="st4 st5 st1">2</text>
<text transform="matrix(1 0 0 1 145.6353 213.5162)" class="st4 st5 st1">3</text>
<text transform="matrix(1 0 0 1 205.0895 213.5162)" class="st4 st5 st1">4</text>
<text transform="matrix(1 0 0 1 264.5437 213.5162)" class="st4 st5 st1">5</text>
<text transform="matrix(1 0 0 1 4.5615 277.1793)" class="st0 st1">Cases Per 100 Residents by RN Staffing Rating</text>
<text transform="matrix(1 0 0 1 96.9857 492.916)" class="st2 st1">RN Staffing Rating</text>
<rect x="64.02" y="298.67" class="st3" width="53.06" height="180.57"/>
<rect x="4.56" y="322.48" class="st3" width="53.06" height="156.75"/>
<rect x="123.47" y="366.96" class="st3" width="53.06" height="112.42"/>
<rect x="182.92" y="400.86" class="st3" width="53.06" height="77.35"/>
<rect x="242.38" y="421.99" class="st3" width="53.06" height="56.21"/>
<text transform="matrix(1 0 0 1 23.8918 319.482)" class="st2 st1">22</text>
<text transform="matrix(1 0 0 1 83.3464 295.6678)" class="st2 st1">25</text>
<text transform="matrix(1 0 0 1 143.7163 363.9614)" class="st2 st1">15</text>
<text transform="matrix(1 0 0 1 202.5554 397.8582)" class="st2 st1">11</text>
<text transform="matrix(1 0 0 1 265.3089 418.9911)" class="st2 st1">8</text>
<text transform="matrix(1 0 0 1 27.4857 475.2345)" class="st4 st5 st1">1</text>
<text transform="matrix(1 0 0 1 86.9465 475.2346)" class="st4 st5 st1">2</text>
<text transform="matrix(1 0 0 1 146.4011 475.2346)" class="st4 st5 st1">3</text>
<text transform="matrix(1 0 0 1 205.8553 475.2346)" class="st4 st5 st1">4</text>
<text transform="matrix(1 0 0 1 265.3095 475.2346)" class="st4 st5 st1">5</text>
</svg>
