<?xml version="1.0" encoding="utf-8"?>
<!-- Generator: Adobe Illustrator 24.1.2, SVG Export Plug-In . SVG Version: 6.00 Build 0)  -->
<svg version="1.1" id="Layer_1" xmlns="http://www.w3.org/2000/svg" xmlns:xlink="http://www.w3.org/1999/xlink" x="0px" y="0px"
	 viewBox="0 0 650 236.65" style="enable-background:new 0 0 650 236.65;" xml:space="preserve">
<style type="text/css">
	.st0{fill:#6D7C93;}
	.st1{font-family:'IBMPlexSerif-SemiBold';}
	.st2{font-size:12px;}
	.st3{font-family:'IBMPlexSerif';}
	.st4{fill:#FFFFFF;}
	.st5{font-family:'IBMPlexSerif-Bold';}
</style>
<text transform="matrix(1 0 0 1 5.8254 15.4607)" class="st1 st2">Cases Per 100 Residents by Long Stay Rating</text>
<text transform="matrix(1 0 0 1 102.7736 231.1974)" class="st3 st2">Long Stay Rating</text>
<rect x="65.28" y="38.13" class="st0" width="53.06" height="180.57"/>
<rect x="5.82" y="130.46" class="st0" width="53.06" height="88.23"/>
<rect x="124.73" y="132.68" class="st0" width="53.06" height="86.01"/>
<rect x="184.19" y="118.63" class="st0" width="53.06" height="99.45"/>
<rect x="243.64" y="105.06" class="st0" width="53.06" height="113.02"/>
<text transform="matrix(1 0 0 1 25.3059 127.4639)" class="st3 st2">15</text>
<text transform="matrix(1 0 0 1 84.6103 35.1305)" class="st3 st2">30</text>
<text transform="matrix(1 0 0 1 144.2144 129.6836)" class="st3 st2">14</text>
<text transform="matrix(1 0 0 1 203.6694 115.6293)" class="st3 st2">17</text>
<text transform="matrix(1 0 0 1 264.0863 102.0602)" class="st3 st2">19</text>
<text transform="matrix(1 0 0 1 28.7496 213.5159)" class="st4 st5 st2">1</text>
<text transform="matrix(1 0 0 1 88.2104 213.516)" class="st4 st5 st2">2</text>
<text transform="matrix(1 0 0 1 147.665 213.516)" class="st4 st5 st2">3</text>
<text transform="matrix(1 0 0 1 207.1192 213.516)" class="st4 st5 st2">4</text>
<text transform="matrix(1 0 0 1 266.5733 213.516)" class="st4 st5 st2">5</text>
<text transform="matrix(1 0 0 1 352.296 15.4607)" class="st1 st2">Cases Per 100 Residents by Short Stay Rating</text>
<text transform="matrix(1 0 0 1 447.8037 231.1976)" class="st3 st2">Short Stay Rating</text>
<rect x="411.75" y="37.18" class="st0" width="53.06" height="180.57"/>
<rect x="352.3" y="64.26" class="st0" width="53.06" height="153.82"/>
<rect x="471.97" y="85.46" class="st0" width="53.06" height="132.62"/>
<rect x="530.66" y="95.38" class="st0" width="53.06" height="122.37"/>
<rect x="590.11" y="98.01" class="st0" width="53.06" height="120.08"/>
<text transform="matrix(1 0 0 1 371.6263 61.2564)" class="st3 st2">23</text>
<text transform="matrix(1 0 0 1 431.081 34.1805)" class="st3 st2">27</text>
<text transform="matrix(1 0 0 1 490.5353 82.4584)" class="st3 st2">20</text>
<text transform="matrix(1 0 0 1 550.1402 92.3757)" class="st3 st2">19</text>
<text transform="matrix(1 0 0 1 610.5571 95.0059)" class="st3 st2">18</text>
<text transform="matrix(1 0 0 1 375.2202 213.5161)" class="st4 st5 st2">1</text>
<text transform="matrix(1 0 0 1 434.6811 213.5162)" class="st4 st5 st2">2</text>
<text transform="matrix(1 0 0 1 494.1357 213.5162)" class="st4 st5 st2">3</text>
<text transform="matrix(1 0 0 1 553.5899 213.5162)" class="st4 st5 st2">4</text>
<text transform="matrix(1 0 0 1 613.0439 213.5162)" class="st4 st5 st2">5</text>
</svg>
