<svg xmlns="http://www.w3.org/2000/svg" viewBox="0 0 650 236.65" xmlns:v="https://vecta.io/nano"><style><![CDATA[.G{font-size:12px}.H{font-family:IBMPlexSerif}.I{fill:#fff}.J{font-family:IBMPlexSerif-Bold}.K{font-family:IBMPlexSerif-SemiBold}]]></style><text transform="translate(5.825 15.461)" class="G K">Cases Per 100 Residents by Long Stay Rating</text><text transform="translate(102.774 231.197)" class="G H">Long Stay Rating</text><path d="M65.28 38.13h53.06V218.7H65.28zM5.82 130.46h53.06v88.23H5.82zm118.9 2.22h53.06v86h-53.06zm59.47-14.05h53.06v99.45H184.2zm59.44-13.57h53.06v113.02h-53.06z" fill="#6d7c93"/><text transform="translate(25.306 127.464)" class="G H">15</text><text transform="translate(84.61 35.131)" class="G H">30</text><text transform="translate(144.214 129.684)" class="G H">14</text><text transform="translate(203.669 115.629)" class="G H">17</text><text transform="translate(264.086 102.06)" class="G H">19</text><text transform="translate(28.75 213.516)" class="G I J">1</text><text transform="translate(88.21 213.516)" class="G I J">2</text><text transform="translate(147.665 213.516)" class="G I J">3</text><text transform="translate(207.119 213.516)" class="G I J">4</text><text transform="translate(266.573 213.516)" class="G I J">5</text><text transform="translate(352.296 15.461)" class="G K">Cases Per 100 Residents by Short Stay Rating</text><text transform="translate(447.804 231.198)" class="G H">Short Stay Rating</text><path d="M411.75 37.18h53.06v180.57h-53.06zM352.3 64.26h53.06v153.82H352.3zm119.67 21.2h53.06v132.62h-53.06zm58.7 9.92h53.06v122.37h-53.06zM590.1 98h53.06v120.1H590.1z" fill="#6d7c93"/><text transform="translate(371.626 61.256)" class="G H">23</text><text transform="translate(431.081 34.181)" class="G H">27</text><text transform="translate(490.535 82.458)" class="G H">20</text><text transform="translate(550.14 92.376)" class="G H">19</text><text transform="translate(610.557 95.006)" class="G H">18</text><text transform="translate(375.22 213.516)" class="G I J">1</text><text transform="translate(434.681 213.516)" class="G I J">2</text><text transform="translate(494.136 213.516)" class="G I J">3</text><text transform="translate(553.59 213.516)" class="G I J">4</text><text transform="translate(613.044 213.516)" class="G I J">5</text></svg>