<svg xmlns="http://www.w3.org/2000/svg" viewBox="0 0 300 487.53" xmlns:v="https://vecta.io/nano"><style><![CDATA[.G{font-size:12px}.H{font-family:IBMPlexSerif}.I{fill:#fff}.J{font-family:IBMPlexSerif-Bold}.K{font-family:IBMPlexSerif-SemiBold}]]></style><text transform="translate(3.796 15.461)" class="G K">Cases Per 100 Residents by Long Stay Rating</text><text transform="translate(100.744 231.198)" class="G H">Long Stay Rating</text><path d="M63.25 38.13h53.06V218.7H63.25zM3.8 130.46h53.06v88.23H3.8zm118.9 2.22h53.06v86H122.7zm59.46-14.05h53.06v99.45h-53.06zm59.44-13.57h53.06v113.02H241.6z" fill="#6d7c93"/><text transform="translate(23.276 127.464)" class="G H">15</text><text transform="translate(82.581 35.131)" class="G H">30</text><text transform="translate(142.185 129.684)" class="G H">14</text><text transform="translate(201.64 115.629)" class="G H">17</text><text transform="translate(262.057 102.06)" class="G H">19</text><text transform="translate(26.72 213.516)" class="G I J">1</text><text transform="translate(86.181 213.516)" class="G I J">2</text><text transform="translate(145.635 213.516)" class="G I J">3</text><text transform="translate(205.09 213.516)" class="G I J">4</text><text transform="translate(264.544 213.516)" class="G I J">5</text><text transform="translate(4.561 260.443)" class="G K">Cases Per 100 Residents by Short Stay Rating</text><text transform="translate(100.069 476.18)" class="G H">Short Stay Rating</text><path d="M64 282.16h53.06v180.57H64zM4.56 309.24h53.06v153.82H4.56zm119.67 21.2h53.06v132.62h-53.06zm58.7 9.92h53.06v122.37h-53.06zm59.46 2.64h53.06v120.08h-53.06z" fill="#6d7c93"/><text transform="translate(23.891 306.239)" class="G H">23</text><text transform="translate(83.346 279.163)" class="G H">27</text><text transform="translate(142.8 327.441)" class="G H">20</text><text transform="translate(202.405 337.358)" class="G H">19</text><text transform="translate(262.822 339.988)" class="G H">18</text><text transform="translate(27.485 458.499)" class="G I J">1</text><text transform="translate(86.946 458.499)" class="G I J">2</text><text transform="translate(146.4 458.499)" class="G I J">3</text><text transform="translate(205.855 458.499)" class="G I J">4</text><text transform="translate(265.309 458.499)" class="G I J">5</text></svg>