<?xml version="1.0" encoding="utf-8"?>
<!-- Generator: Adobe Illustrator 24.1.2, SVG Export Plug-In . SVG Version: 6.00 Build 0)  -->
<svg version="1.1" id="Layer_1" xmlns="http://www.w3.org/2000/svg" xmlns:xlink="http://www.w3.org/1999/xlink" x="0px" y="0px"
	 viewBox="0 0 300 487.53" style="enable-background:new 0 0 300 487.53;" xml:space="preserve">
<style type="text/css">
	.st0{font-family:'IBMPlexSerif-SemiBold';}
	.st1{font-size:12px;}
	.st2{font-family:'IBMPlexSerif';}
	.st3{fill:#6D7C93;}
	.st4{fill:#FFFFFF;}
	.st5{font-family:'IBMPlexSerif-Bold';}
</style>
<text transform="matrix(1 0 0 1 3.7957 15.4609)" class="st0 st1">Cases Per 100 Residents by Long Stay Rating</text>
<text transform="matrix(1 0 0 1 100.7439 231.1976)" class="st2 st1">Long Stay Rating</text>
<rect x="63.25" y="38.13" class="st3" width="53.06" height="180.57"/>
<rect x="3.8" y="130.46" class="st3" width="53.06" height="88.23"/>
<rect x="122.7" y="132.68" class="st3" width="53.06" height="86.01"/>
<rect x="182.16" y="118.63" class="st3" width="53.06" height="99.45"/>
<rect x="241.61" y="105.06" class="st3" width="53.06" height="113.02"/>
<text transform="matrix(1 0 0 1 23.2762 127.4641)" class="st2 st1">15</text>
<text transform="matrix(1 0 0 1 82.5806 35.1306)" class="st2 st1">30</text>
<text transform="matrix(1 0 0 1 142.1847 129.6838)" class="st2 st1">14</text>
<text transform="matrix(1 0 0 1 201.6396 115.6294)" class="st2 st1">17</text>
<text transform="matrix(1 0 0 1 262.0568 102.0604)" class="st2 st1">19</text>
<text transform="matrix(1 0 0 1 26.7199 213.5161)" class="st4 st5 st1">1</text>
<text transform="matrix(1 0 0 1 86.1807 213.5162)" class="st4 st5 st1">2</text>
<text transform="matrix(1 0 0 1 145.6353 213.5162)" class="st4 st5 st1">3</text>
<text transform="matrix(1 0 0 1 205.0895 213.5162)" class="st4 st5 st1">4</text>
<text transform="matrix(1 0 0 1 264.5437 213.5162)" class="st4 st5 st1">5</text>
<text transform="matrix(1 0 0 1 4.5608 260.4432)" class="st0 st1">Cases Per 100 Residents by Short Stay Rating</text>
<text transform="matrix(1 0 0 1 100.0685 476.1801)" class="st2 st1">Short Stay Rating</text>
<rect x="64.01" y="282.16" class="st3" width="53.06" height="180.57"/>
<rect x="4.56" y="309.24" class="st3" width="53.06" height="153.82"/>
<rect x="124.23" y="330.44" class="st3" width="53.06" height="132.62"/>
<rect x="182.92" y="340.36" class="st3" width="53.06" height="122.37"/>
<rect x="242.38" y="342.99" class="st3" width="53.06" height="120.08"/>
<text transform="matrix(1 0 0 1 23.8911 306.2389)" class="st2 st1">23</text>
<text transform="matrix(1 0 0 1 83.3457 279.163)" class="st2 st1">27</text>
<text transform="matrix(1 0 0 1 142.8001 327.4409)" class="st2 st1">20</text>
<text transform="matrix(1 0 0 1 202.4049 337.3582)" class="st2 st1">19</text>
<text transform="matrix(1 0 0 1 262.8221 339.9884)" class="st2 st1">18</text>
<text transform="matrix(1 0 0 1 27.485 458.4986)" class="st4 st5 st1">1</text>
<text transform="matrix(1 0 0 1 86.9458 458.4987)" class="st4 st5 st1">2</text>
<text transform="matrix(1 0 0 1 146.4004 458.4987)" class="st4 st5 st1">3</text>
<text transform="matrix(1 0 0 1 205.8546 458.4987)" class="st4 st5 st1">4</text>
<text transform="matrix(1 0 0 1 265.3089 458.4987)" class="st4 st5 st1">5</text>
</svg>
