<?xml version="1.0" encoding="utf-8"?>
<!-- Generator: Adobe Illustrator 24.1.2, SVG Export Plug-In . SVG Version: 6.00 Build 0)  -->
<svg version="1.1" id="Layer_1" xmlns="http://www.w3.org/2000/svg" xmlns:xlink="http://www.w3.org/1999/xlink" x="0px" y="0px"
	 viewBox="0 0 650 237.26" style="enable-background:new 0 0 650 237.26;" xml:space="preserve">
<style type="text/css">
	.st0{fill:#6D7C93;}
	.st1{font-family:'IBMPlexSerif-SemiBold';}
	.st2{font-size:12px;}
	.st3{font-family:'IBMPlexSerif';}
	.st4{fill:#FFFFFF;}
	.st5{font-family:'IBMPlexSerif-Bold';}
	.st6{font-family:'IBMPlexSerif-Light';}
	.st7{font-size:14px;}
</style>
<text transform="matrix(1 0 0 1 5.8627 15.7705)" class="st1 st2">Cases Per 100 Residents by Health Inspection Rating</text>
<text transform="matrix(1 0 0 1 79.471 231.5072)" class="st3 st2">Health Inspection Rating</text>
<rect x="65.32" y="37.82" class="st0" width="53.06" height="180.57"/>
<rect x="5.86" y="44.49" class="st0" width="53.06" height="173.9"/>
<rect x="124.77" y="108.51" class="st0" width="53.06" height="109.88"/>
<rect x="184.23" y="123.95" class="st0" width="53.06" height="94.44"/>
<rect x="244.64" y="142.86" class="st0" width="53.06" height="75.54"/>
<text transform="matrix(1 0 0 1 25.1931 41.4937)" class="st3 st2">23</text>
<text transform="matrix(1 0 0 1 84.6475 34.8234)" class="st3 st2">24</text>
<text transform="matrix(1 0 0 1 144.2516 105.5104)" class="st3 st2">15</text>
<text transform="matrix(1 0 0 1 203.7069 120.9483)" class="st3 st2">13</text>
<text transform="matrix(1 0 0 1 263.1613 139.8554)" class="st3 st2">10</text>
<text transform="matrix(1 0 0 1 28.7869 213.8257)" class="st4 st5 st2">1</text>
<text transform="matrix(1 0 0 1 88.2477 213.8258)" class="st4 st5 st2">2</text>
<text transform="matrix(1 0 0 1 147.7022 213.8258)" class="st4 st5 st2">3</text>
<text transform="matrix(1 0 0 1 207.1565 213.8258)" class="st4 st5 st2">4</text>
<text transform="matrix(1 0 0 1 266.6107 213.8258)" class="st4 st5 st2">5</text>
<text transform="matrix(1 0 0 1 352.885 84.7008)"><tspan x="0" y="0" class="st6 st7">Nursing homes that performed poorly on</tspan><tspan x="0" y="21" class="st6 st7">health inspections have seen far more</tspan><tspan x="0" y="42" class="st6 st7">cases per hundred residents than homes</tspan><tspan x="0" y="63" class="st6 st7">with better health inspection scores.</tspan></text>
</svg>
