<?xml version="1.0" encoding="utf-8"?>
<!-- Generator: Adobe Illustrator 24.1.2, SVG Export Plug-In . SVG Version: 6.00 Build 0)  -->
<svg version="1.1" id="Layer_1" xmlns="http://www.w3.org/2000/svg" xmlns:xlink="http://www.w3.org/1999/xlink" x="0px" y="0px"
	 viewBox="0 0 300 237.26" style="enable-background:new 0 0 300 237.26;" xml:space="preserve">
<style type="text/css">
	.st0{font-family:'IBMPlexSerif-SemiBold';}
	.st1{font-size:12px;}
	.st2{font-family:'IBMPlexSerif';}
	.st3{fill:#6D7C93;}
	.st4{fill:#FFFFFF;}
	.st5{font-family:'IBMPlexSerif-Bold';}
</style>
<text transform="matrix(1 0 0 1 3.7957 15.4609)" class="st0 st1">Cases Per 100 Residents by Health Rating</text>
<text transform="matrix(1 0 0 1 77.404 231.1976)" class="st2 st1">Health Inspection Rating</text>
<rect x="63.25" y="37.51" class="st3" width="53.06" height="180.57"/>
<rect x="3.8" y="44.18" class="st3" width="53.06" height="173.9"/>
<rect x="122.7" y="108.2" class="st3" width="53.06" height="109.88"/>
<rect x="182.16" y="123.64" class="st3" width="53.06" height="94.44"/>
<rect x="242.58" y="142.55" class="st3" width="53.06" height="75.54"/>
<text transform="matrix(1 0 0 1 23.1261 41.1841)" class="st2 st1">23</text>
<text transform="matrix(1 0 0 1 82.5806 34.5138)" class="st2 st1">24</text>
<text transform="matrix(1 0 0 1 142.1847 105.2008)" class="st2 st1">15</text>
<text transform="matrix(1 0 0 1 201.64 120.6387)" class="st2 st1">13</text>
<text transform="matrix(1 0 0 1 261.0943 139.5457)" class="st2 st1">10</text>
<text transform="matrix(1 0 0 1 26.7199 213.5161)" class="st4 st5 st1">1</text>
<text transform="matrix(1 0 0 1 86.1807 213.5162)" class="st4 st5 st1">2</text>
<text transform="matrix(1 0 0 1 145.6353 213.5162)" class="st4 st5 st1">3</text>
<text transform="matrix(1 0 0 1 205.0895 213.5162)" class="st4 st5 st1">4</text>
<text transform="matrix(1 0 0 1 264.5437 213.5162)" class="st4 st5 st1">5</text>
</svg>
