<?xml version="1.0" encoding="utf-8"?>
<!-- Generator: Adobe Illustrator 24.1.2, SVG Export Plug-In . SVG Version: 6.00 Build 0)  -->
<svg version="1.1" id="Layer_1" xmlns="http://www.w3.org/2000/svg" xmlns:xlink="http://www.w3.org/1999/xlink" x="0px" y="0px"
	 viewBox="0 0 650 154.76" style="enable-background:new 0 0 650 154.76;" xml:space="preserve">
<style type="text/css">
	.st0{font-family:'IBMPlexSerif-SemiBold';}
	.st1{font-size:12px;}
	.st2{fill:none;stroke:#6D6E71;stroke-width:0.5;stroke-miterlimit:10;}
	.st3{fill:none;stroke:#6D6E71;stroke-width:0.5;stroke-miterlimit:10;stroke-dasharray:1.0017,1.0017;}
	.st4{fill:#6D6E71;}
	.st5{fill:#D4C9E3;}
	.st6{fill:none;stroke:#6D6E71;stroke-width:0.5;stroke-miterlimit:10;stroke-dasharray:0.9994,0.9994;}
	.st7{font-family:'IBMPlexSerif-Light';}
	.st8{font-size:10px;}
	.st9{font-family:'IBMPlexSerif';}
	.st10{font-family:'IBMPlexSerif-Bold';}
</style>
<text transform="matrix(1 0 0 1 4.118 13.3699)" class="st0 st1">How strict are states’ mask policies?</text>
<g>
	<g>
		<line class="st2" x1="9.77" y1="111.53" x2="10.27" y2="111.53"/>
		<line class="st6" x1="11.27" y1="111.53" x2="634.4" y2="111.53"/>
		<line class="st2" x1="634.9" y1="111.53" x2="635.4" y2="111.53"/>
		<g>
			<polygon class="st4" points="7.65,111.53 10.64,112.75 9.93,111.53 10.64,110.31 			"/>
		</g>
		<g>
			<path class="st4" d="M637.21,111.53c-0.85,0.32-1.91,0.86-2.56,1.43l0.52-1.43l-0.52-1.43
				C635.3,110.67,636.36,111.21,637.21,111.53z"/>
		</g>
	</g>
</g>
<text transform="matrix(1 0 0 1 7.6529 40.1736)" class="st4 st7 st8">Least strict</text>
<text transform="matrix(1 0 0 1 587.9806 40.1734)" class="st4 st7 st8">Most strict</text>
<text transform="matrix(1 0 0 1 9.2043 125.8648)"><tspan x="0" y="0" class="st9 st1">Encouraged or</tspan><tspan x="0.05" y="13.5" class="st9 st1">recommended</tspan></text>
<text transform="matrix(1 0 0 1 118.0553 125.8646)"><tspan x="0" y="0" class="st9 st1">Required in</tspan><tspan x="1.38" y="13.5" class="st9 st1">some cities</tspan><tspan x="1.5" y="27" class="st9 st1">or counties</tspan></text>
<text transform="matrix(1 0 0 1 225.4182 125.8646)"><tspan x="0" y="0" class="st9 st1">Required in </tspan><tspan x="-3.62" y="13.5" class="st9 st1">indoor public</tspan><tspan x="15.72" y="27" class="st9 st1">spaces</tspan></text>
<text transform="matrix(1 0 0 1 338.7483 125.8647)"><tspan x="0" y="0" class="st9 st1">Required in </tspan><tspan x="-21.47" y="13.5" class="st9 st1">public when unable</tspan><tspan x="3.65" y="27" class="st9 st1">to distance</tspan></text>
<text transform="matrix(1 0 0 1 452.4591 125.8647)"><tspan x="0" y="0" class="st9 st1">Required in</tspan><tspan x="-8.01" y="13.5" class="st9 st1">public indoors</tspan><tspan x="2.28" y="27" class="st9 st1">at all times</tspan></text>
<text transform="matrix(1 0 0 1 547.4598 125.8648)"><tspan x="0" y="0" class="st9 st1">Required in all</tspan><tspan x="3.16" y="13.5" class="st9 st1">public spaces</tspan></text>
<g>
	<rect x="20.44" y="87.69" class="st5" width="19.25" height="19.25"/>
	<text transform="matrix(0.894 0 0 1 23.7275 101.1087)" class="st10 st8">SD</text>
</g>
<g>
	<rect x="42" y="87.69" class="st5" width="19.25" height="19.25"/>
	<text transform="matrix(0.894 0 0 1 44.5575 101.1087)" class="st10 st8">ND</text>
</g>
<g>
	<rect x="63.55" y="87.69" class="st5" width="19.25" height="19.25"/>
	<text transform="matrix(0.894 0 0 1 65.3021 101.1087)" class="st10 st8">WY</text>
</g>
<g>
	<rect x="109.86" y="24.24" class="st5" width="19.25" height="19.25"/>
	<text transform="matrix(0.894 0 0 1 113.2977 37.6597)" class="st10 st8">AZ</text>
</g>
<g>
	<rect x="109.86" y="45.39" class="st5" width="19.25" height="19.25"/>
	<text transform="matrix(0.894 0 0 1 113.7447 58.8095)" class="st10 st8">FL</text>
</g>
<g>
	<rect x="131.42" y="45.39" class="st5" width="19.25" height="19.25"/>
	<text transform="matrix(0.894 0 0 1 134.2885 58.8095)" class="st10 st8">GA</text>
</g>
<g>
	<rect x="152.73" y="45.39" class="st5" width="19.25" height="19.25"/>
	<text transform="matrix(0.894 0 0 1 157.135 58.8093)" class="st10 st8">ID</text>
</g>
<g>
	<rect x="174.28" y="45.39" class="st5" width="19.25" height="19.25"/>
	<text transform="matrix(0.894 0 0 1 178.944 58.8093)" class="st10 st8">IA</text>
</g>
<g>
	<rect x="109.86" y="66.54" class="st5" width="19.25" height="19.25"/>
	<text transform="matrix(0.894 0 0 1 111.921 79.9591)" class="st10 st8">MO</text>
</g>
<g>
	<rect x="131.42" y="66.54" class="st5" width="19.25" height="19.25"/>
	<text transform="matrix(0.894 0 0 1 133.6893 79.9591)" class="st10 st8">MT</text>
</g>
<g>
	<rect x="152.97" y="66.54" class="st5" width="19.25" height="19.25"/>
	<text transform="matrix(0.894 0 0 1 155.9811 79.9591)" class="st10 st8">NE</text>
</g>
<g>
	<rect x="174.53" y="66.54" class="st5" width="19.25" height="19.25"/>
	<text transform="matrix(0.894 0 0 1 176.8333 79.9589)" class="st10 st8">NH</text>
</g>
<g>
	<rect x="109.86" y="87.69" class="st5" width="19.25" height="19.25"/>
	<text transform="matrix(0.894 0 0 1 112.4975 101.1087)" class="st10 st8">OK</text>
</g>
<g>
	<rect x="131.42" y="87.69" class="st5" width="19.25" height="19.25"/>
	<text transform="matrix(0.894 0 0 1 135.1156 101.1087)" class="st10 st8">SC</text>
</g>
<g>
	<rect x="152.97" y="87.69" class="st5" width="19.25" height="19.25"/>
	<text transform="matrix(0.894 0 0 1 155.722 101.1087)" class="st10 st8">TN</text>
</g>
<g>
	<rect x="174.53" y="87.69" class="st5" width="19.25" height="19.25"/>
	<text transform="matrix(0.894 0 0 1 177.37 101.1087)" class="st10 st8">UT</text>
</g>
<g>
	<rect x="218.02" y="66.54" class="st5" width="19.25" height="19.25"/>
	<text transform="matrix(0.894 0 0 1 221.1262 79.9591)" class="st10 st8">CO</text>
</g>
<g>
	<rect x="239.57" y="66.54" class="st5" width="19.25" height="19.25"/>
	<text transform="matrix(0.894 0 0 1 243.7311 79.9591)" class="st10 st8">HI</text>
</g>
<g>
	<rect x="261.13" y="66.54" class="st5" width="19.25" height="19.25"/>
	<text transform="matrix(0.894 0 0 1 263.0499 79.959)" class="st10 st8">MN</text>
</g>
<g>
	<rect x="218.02" y="87.69" class="st5" width="19.25" height="19.25"/>
	<text transform="matrix(0.894 0 0 1 221.14 101.1087)" class="st10 st8">PR</text>
</g>
<g>
	<rect x="239.57" y="87.69" class="st5" width="19.25" height="19.25"/>
	<text transform="matrix(0.894 0 0 1 242.8146 101.1087)" class="st10 st8">VA</text>
</g>
<g>
	<rect x="261.13" y="87.69" class="st5" width="19.25" height="19.25"/>
	<text transform="matrix(0.894 0 0 1 262.8444 101.1087)" class="st10 st8">WV</text>
</g>
<g>
	<rect x="282.68" y="87.69" class="st5" width="19.25" height="19.25"/>
	<text transform="matrix(0.894 0 0 1 285.8198 101.1087)" class="st10 st8">WI</text>
</g>
<g>
	<rect x="329.73" y="45.39" class="st5" width="19.25" height="19.25"/>
	<text transform="matrix(0.894 0 0 1 333.0481 58.8093)" class="st10 st8">CT</text>
</g>
<g>
	<rect x="351.28" y="45.39" class="st5" width="19.25" height="19.25"/>
	<text transform="matrix(0.894 0 0 1 356.3141 58.8093)" class="st10 st8">IL</text>
</g>
<g>
	<rect x="329.73" y="66.54" class="st5" width="19.25" height="19.25"/>
	<text transform="matrix(0.894 0 0 1 333.9778 79.9591)" class="st10 st8">IN</text>
</g>
<g>
	<rect x="351.28" y="66.54" class="st5" width="19.25" height="19.25"/>
	<text transform="matrix(0.894 0 0 1 354.2399 79.9591)" class="st10 st8">KY</text>
</g>
<g>
	<rect x="372.83" y="66.54" class="st5" width="19.25" height="19.25"/>
	<text transform="matrix(0.894 0 0 1 375.3648 79.9591)" class="st10 st8">ME</text>
</g>
<g>
	<rect x="394.39" y="66.54" class="st5" width="19.25" height="19.25"/>
	<text transform="matrix(0.894 0 0 1 396.7221 79.9591)" class="st10 st8">MA</text>
</g>
<g>
	<rect x="329.73" y="87.69" class="st5" width="19.25" height="19.25"/>
	<text transform="matrix(0.894 0 0 1 331.6487 101.1089)" class="st10 st8">NM</text>
</g>
<g>
	<rect x="351.28" y="87.69" class="st5" width="19.25" height="19.25"/>
	<text transform="matrix(0.894 0 0 1 354.1418 101.1089)" class="st10 st8">NY</text>
</g>
<g>
	<rect x="372.83" y="87.69" class="st5" width="19.25" height="19.25"/>
	<text transform="matrix(0.894 0 0 1 375.8077 101.1089)" class="st10 st8">NC</text>
</g>
<g>
	<rect x="394.39" y="87.69" class="st5" width="19.25" height="19.25"/>
	<text transform="matrix(0.894 0 0 1 397.5674 101.1089)" class="st10 st8">VT</text>
</g>
<g>
	<rect x="440.18" y="45.39" class="st5" width="19.25" height="19.25"/>
	<text transform="matrix(0.894 0 0 1 443.7725 58.8093)" class="st10 st8">AL</text>
</g>
<g>
	<rect x="461.73" y="45.39" class="st5" width="19.25" height="19.25"/>
	<text transform="matrix(0.894 0 0 1 464.7812 58.8093)" class="st10 st8">AR</text>
</g>
<g>
	<rect x="440.18" y="66.54" class="st5" width="19.25" height="19.25"/>
	<text transform="matrix(0.894 0 0 1 443.7726 79.9591)" class="st10 st8">LA</text>
</g>
<g>
	<rect x="461.73" y="66.54" class="st5" width="19.25" height="19.25"/>
	<text transform="matrix(0.894 0 0 1 465.5054 79.9591)" class="st10 st8">MI</text>
</g>
<g>
	<rect x="483.29" y="66.54" class="st5" width="19.25" height="19.25"/>
	<text transform="matrix(0.894 0 0 1 485.933 79.9591)" class="st10 st8">MS</text>
</g>
<g>
	<rect x="504.84" y="66.54" class="st5" width="19.25" height="19.25"/>
	<text transform="matrix(0.894 0 0 1 508.4886 79.9591)" class="st10 st8">NJ</text>
</g>
<g>
	<rect x="440.18" y="87.69" class="st5" width="19.25" height="19.25"/>
	<text transform="matrix(0.894 0 0 1 442.6192 101.1089)" class="st10 st8">OH</text>
</g>
<g>
	<rect x="461.73" y="87.69" class="st5" width="19.25" height="19.25"/>
	<text transform="matrix(0.894 0 0 1 464.5044 101.1089)" class="st10 st8">OR</text>
</g>
<g>
	<rect x="483.29" y="87.69" class="st5" width="19.25" height="19.25"/>
	<text transform="matrix(0.894 0 0 1 486.3221 101.1089)" class="st10 st8">TX</text>
</g>
<g>
	<rect x="504.84" y="87.69" class="st5" width="19.25" height="19.25"/>
	<text transform="matrix(0.894 0 0 1 506.5394 101.1089)" class="st10 st8">WA</text>
</g>
<g>
	<rect x="547.36" y="66.54" class="st5" width="19.25" height="19.25"/>
	<text transform="matrix(0.894 0 0 1 550.7421 79.9594)" class="st10 st8">CA</text>
</g>
<g>
	<rect x="568.91" y="66.54" class="st5" width="19.25" height="19.25"/>
	<text transform="matrix(0.894 0 0 1 572.077 79.9594)" class="st10 st8">DE</text>
</g>
<g>
	<rect x="590.46" y="66.54" class="st5" width="19.25" height="19.25"/>
	<text transform="matrix(0.894 0 0 1 593.5955 79.9594)" class="st10 st8">DC</text>
</g>
<g>
	<rect x="612.02" y="66.54" class="st5" width="19.25" height="19.25"/>
	<text transform="matrix(0.894 0 0 1 615.2433 79.9594)" class="st10 st8">KS</text>
</g>
<g>
	<rect x="547.36" y="87.69" class="st5" width="19.25" height="19.25"/>
	<text transform="matrix(0.894 0 0 1 549.437 101.1092)" class="st10 st8">MD</text>
</g>
<g>
	<rect x="568.91" y="87.69" class="st5" width="19.25" height="19.25"/>
	<text transform="matrix(0.894 0 0 1 571.7421 101.1092)" class="st10 st8">NV</text>
</g>
<g>
	<rect x="590.46" y="87.69" class="st5" width="19.25" height="19.25"/>
	<text transform="matrix(0.894 0 0 1 593.761 101.1092)" class="st10 st8">PA</text>
</g>
<g>
	<rect x="612.02" y="87.69" class="st5" width="19.25" height="19.25"/>
	<text transform="matrix(0.894 0 0 1 616.5084 101.1092)" class="st10 st8">RI</text>
</g>
</svg>
