<svg xmlns="http://www.w3.org/2000/svg" xmlns:xlink="http://www.w3.org/1999/xlink" viewBox="0 0 650 154.8" xmlns:v="https://vecta.io/nano"><style><![CDATA[.K{font-size:10px}.L{fill:#d4c9e3}.M{font-family:IBMPlexSerif-Bold}.N{font-size:12px}.O{font-family:IBMPlexSerif}.P{fill:#6d6e71}.Q{font-family:IBMPlexSerif-Light}]]></style><text transform="translate(4.118 13.37)" font-family="IBMPlexSerif-SemiBold" class="N">How strict are states’ mask policies?</text><g fill="none" stroke="#6d6e71" stroke-width=".5" stroke-miterlimit="10"><path d="M9.8 111.5h.5"/><path d="M11.3,111.5h623.1" stroke-dasharray="0.9994,0.9994"/><path d="M634.9 111.5h.5"/></g><path d="M7.7 111.5l3 1.2-.7-1.2.7-1.2-3 1.2zm629.5 0a13.05 13.05 0 0 0-2.6 1.4l.5-1.4-.5-1.4c.7.6 1.7 1.1 2.6 1.4z" class="P"/><text transform="translate(7.653 40.174)" class="K P Q">Least strict</text><text transform="translate(587.981 40.173)" class="K P Q">Most strict</text><text transform="translate(9.204 125.865)" class="N O">Encouraged or</text><text transform="translate(9.254 139.365)" class="N O">recommended</text><text transform="translate(118.055 125.865)" class="N O">Required in</text><text transform="translate(119.435 139.365)" class="N O">some cities</text><text transform="translate(119.555 152.865)" class="N O">or counties</text><text transform="translate(207.113 125.865)" class="N O">Required indoors </text><text transform="translate(214.643 139.365)" class="N O">when unable to</text><text transform="translate(234.22 152.865)" class="N O">distance</text><text transform="translate(326.671 125.865)" class="N O">Required when</text><text transform="translate(343.578 139.365)" class="N O">unable to</text><text transform="translate(345.93 152.865)" class="N O">distance</text><text transform="translate(454.347 125.865)" class="N O">Required</text><text transform="translate(458.691 139.365)" class="N O">indoors</text><text transform="translate(449.36 152.865)" class="N O">at all times</text><text transform="translate(547.46 125.865)" class="N O">Required in all</text><text transform="translate(550.62 139.365)" class="N O">public spaces</text><path d="M20.4,87.7h19.3v19.2H20.4V87.7z" class="L"/><text transform="matrix(.894 0 0 1 23.7275 101.1089)" class="K M">SD</text><path d="M42,87.7h19.2v19.2H42V87.7z" class="L"/><text transform="matrix(.894 0 0 1 44.5576 101.1089)" class="K M">ND</text><path d="M63.5,87.7h19.3v19.2H63.5V87.7z" class="L"/><text transform="matrix(.894 0 0 1 65.3022 101.1089)" class="K M">WY</text><path d="M109.9,24.2h19.2v19.3h-19.2V24.2z" class="L"/><text transform="matrix(.894 0 0 1 113.2979 37.6597)" class="K M">AK</text><path d="M110,45.4h19.3v19.3H110V45.4z" class="L"/><text transform="matrix(.894 0 0 1 113.8746 58.8046)" class="K M">FL</text><path d="M131.5,45.4h19.2v19.3h-19.2V45.4z" class="L"/><text transform="matrix(.894 0 0 1 134.4086 58.8046)" class="K M">GA</text><path d="M152.9,45.4h19.2v19.3h-19.2V45.4z" class="L"/><text transform="matrix(.894 0 0 1 157.2552 58.8046)" class="K M">ID</text><path d="M174.4,45.4h19.2v19.3h-19.2V45.4z" class="L"/><text transform="matrix(.894 0 0 1 179.0643 58.8046)" class="K M">IA</text><path d="M110,66.5h19.3v19.3H110V66.5z" class="L"/><text transform="matrix(.894 0 0 1 112.0509 79.9615)" class="K M">MO</text><path d="M461.7,66.5H481v19.3h-19.2V66.5z" class="L"/><text transform="matrix(.894 0 0 1 463.9995 79.964)" class="K M">MT</text><path d="M153,66.5h19.2v19.3H153V66.5z" class="L"/><text transform="matrix(.894 0 0 1 155.981 79.959)" class="K M">NE</text><use xlink:href="#B" class="L"/><text transform="matrix(.894 0 0 1 176.8335 79.959)" class="K M">NH</text><use xlink:href="#C" class="L"/><text transform="matrix(.894 0 0 1 112.4976 101.1089)" class="K M">OK</text><use xlink:href="#C" x="21.5" class="L"/><text transform="matrix(.894 0 0 1 135.1157 101.1089)" class="K M">SC</text><path d="M153,87.7h19.2v19.2H153V87.7z" class="L"/><text transform="matrix(.894 0 0 1 155.7222 101.1089)" class="K M">TN</text><use xlink:href="#C" x="64.6" class="L"/><text transform="matrix(.894 0 0 1 177.3701 101.1089)" class="K M">UT</text><path d="M218,66.5h19.2v19.3H218V66.5z" class="L"/><text transform="matrix(.894 0 0 1 221.126 79.959)" class="K M">CO</text><path d="M218,87.7h19.2V107H218V87.7z" class="L"/><text transform="matrix(.894 0 0 1 222.1814 101.114)" class="K M">HI</text><path d="M239.8,87.7H259V107h-19.2V87.7z" class="L"/><text transform="matrix(.894 0 0 1 241.6848 101.114)" class="K M">MN</text><use xlink:href="#C" x="151.4" class="L"/><text transform="matrix(.894 0 0 1 264.5594 101.1089)" class="K M">VA</text><use xlink:href="#C" x="173" class="L"/><text transform="matrix(.894 0 0 1 284.5897 101.1089)" class="K M">WV</text><use xlink:href="#C" x="394.7" class="L"/><text transform="matrix(.894 0 0 1 507.6998 101.1089)" class="K M">WI</text><path d="M329.7,45.4H349v19.2h-19.2V45.4z" class="L"/><text transform="matrix(.894 0 0 1 333.0483 58.8096)" class="K M">CT</text><path d="M329.7,66.5H349v19.2h-19.2V66.5z" class="L"/><text transform="matrix(.894 0 0 1 334.7645 79.9546)" class="K M">IL</text><use xlink:href="#B" x="176.2" class="L"/><text transform="matrix(.894 0 0 1 354.913 79.959)" class="K M">IN</text><use xlink:href="#B" x="197.7" class="L"/><text transform="matrix(.894 0 0 1 375.1752 79.959)" class="K M">KY</text><path d="M393.8,66.5H413v19.3h-19.2V66.5z" class="L"/><text transform="matrix(.894 0 0 1 396.2997 79.959)" class="K M">ME</text><path d="M612,66.5h19.2v19.3H612V66.5z" class="L"/><text transform="matrix(.894 0 0 1 614.3427 79.959)" class="K M">MA</text><path d="M329.7,87.7H349v19.2h-19.2V87.7z" class="L"/><text transform="matrix(.894 0 0 1 331.6489 101.1089)" class="K M">NM</text><use xlink:href="#C" x="241.4" class="L"/><text transform="matrix(.894 0 0 1 354.1416 101.1089)" class="K M">NY</text><path d="M372.8 87.7H392v19.2h-19.2V87.7z" class="L"/><text transform="matrix(.894 0 0 1 375.8076 101.1089)" class="K M">NC</text><use xlink:href="#C" x="284.5" class="L"/><text transform="matrix(.894 0 0 1 397.5674 101.1089)" class="K M">VT</text><path d="M440.2,45.4h19.2v19.2h-19.2V45.4z" class="L"/><text transform="matrix(.894 0 0 1 443.7725 58.8096)" class="K M">AL</text><path d="M461.7,45.4H481v19.2h-19.2V45.4z" class="L"/><text transform="matrix(.894 0 0 1 464.7812 58.8096)" class="K M">AR</text><path d="M483.3,45.4h19.2v19.3h-19.2V45.4z" class="L"/><text transform="matrix(.894 0 0 1 486.8925 58.799)" class="K M">LA</text><use xlink:href="#B" x="265.7" class="L"/><text transform="matrix(.894 0 0 1 443.9509 79.964)" class="K M">MI</text><use xlink:href="#B" x="-43" class="L"/><text transform="matrix(.894 0 0 1 134.1136 79.959)" class="K M">MS</text><use xlink:href="#B" x="308.8" class="L"/><text transform="matrix(.894 0 0 1 486.9333 79.964)" class="K M">NJ</text><path d="M504.5,66.6h19.3v19.2h-19.3V66.6z" class="L"/><text transform="matrix(.894 0 0 1 506.9742 79.9589)" class="K M">OH</text><path d="M440.2,87.7h19.2V107h-19.2V87.7z" class="L"/><text transform="matrix(.894 0 0 1 442.9648 101.1089)" class="K M">OR</text><path d="M461.8,87.7H481v19.2h-19.2V87.7z" class="L"/><text transform="matrix(.894 0 0 1 464.7822 101.1089)" class="K M">TX</text><path d="M483.3,87.7h19.2V107h-19.2V87.7z" class="L"/><text transform="matrix(.894 0 0 1 484.999 101.1089)" class="K M">WA</text><path d="M547.4,45.4h19.2v19.3h-19.2V45.4z" class="L"/><text transform="matrix(.894 0 0 1 550.7422 58.8145)" class="K M">CA</text><use xlink:href="#B" x="372.8" class="L"/><text transform="matrix(.894 0 0 1 550.5172 79.9595)" class="K M">DE</text><use xlink:href="#B" x="394.4" class="L"/><text transform="matrix(.894 0 0 1 572.0357 79.9595)" class="K M">DC</text><use xlink:href="#B" x="416" class="L"/><text transform="matrix(.894 0 0 1 593.6832 79.9595)" class="K M">KS</text><use xlink:href="#C" x="437.5" class="L"/><text transform="matrix(.894 0 0 1 549.4375 101.1094)" class="K M">MD</text><use xlink:href="#C" x="459" class="L"/><text transform="matrix(.894 0 0 1 571.7422 101.1094)" class="K M">NV</text><use xlink:href="#C" x="480.6" class="L"/><text transform="matrix(.894 0 0 1 593.7607 101.1094)" class="K M">PA</text><path d="M612,87.7h19.2v19.2H612V87.7z" class="L"/><text transform="matrix(.894 0 0 1 616.5088 101.1094)" class="K M">RI</text><path d="M131.4,24.2h19.2v19.3h-19.2V24.2z" class="L"/><text transform="matrix(.894 0 0 1 134.8578 37.6597)" class="K M">AZ</text><defs ><path id="B" d="M174.5,66.5h19.2v19.3h-19.2V66.5z"/><path id="C" d="M109.9,87.7h19.2v19.2h-19.2V87.7z"/></defs></svg>