<svg xmlns="http://www.w3.org/2000/svg" viewBox="0 0 300 413.2" xmlns:v="https://vecta.io/nano"><style><![CDATA[.L{font-size:10px}.M{fill:#d4c9e3}.N{font-family:IBMPlexSerif-Bold}.O{font-size:12px}.P{font-family:IBMPlexSerif}.Q{fill:#6d6e71}.R{font-family:IBMPlexSerif-Light}]]></style><text transform="translate(3.796 15.461)" font-family="IBMPlexSerif-SemiBold" class="O">How strict are states’ mask policies?</text><g fill="none" stroke="#6d6e71" stroke-width=".5" stroke-miterlimit="10"><path d="M4.6 27.3v.5"/><path d="M4.6,29.8v377.1" stroke-dasharray="1.0017,1.0017"/><path d="M4.6 406.3v.5"/></g><path d="M4.6 25.1l-1.2 3 1.2-.7 1.2.7-1.2-3zm0 384.5c-.3-.9-.9-2.9-1.4-3.6l1.4.5L6 406c-.5.7-1.1 2.8-1.4 3.6z" class="Q"/><text transform="translate(10.036 38.584)" class="L Q R">Least strict</text><text transform="translate(10.036 402.374)" class="L Q R">Most strict</text><text transform="translate(10.035 56.059)" class="O P">Encouraged or recommended</text><text transform="translate(10.036 99.953)" class="O P">Required in some cities or counties</text><text enable-background="new"><tspan x="10.035" y="167.484" class="O P">Required in all indoor public spaces when unable</tspan><tspan y="181.884" x="10.035" class="O P">to distance</tspan></text><text transform="translate(10.036 230.405)" class="O P">Required in all public spaces when unable to </text><text transform="translate(10.036 243.905)" class="O P">distance</text><text transform="translate(10.035 294.296)" class="O P">Required in all indoor public spaces and outdoors</text><text transform="translate(10.035 307.796)" class="O P">when unable to distance</text><text transform="translate(10.035 357.453)" class="O P">Required in all public spaces</text><path d="M10.3,62.2h19.2v19.2H10.3V62.2z" class="M"/><text transform="matrix(.894 0 0 1 13.6016 75.6534)" class="L N">SD</text><path d="M31.9,62.2h19.3v19.2H31.9V62.2z" class="M"/><text transform="matrix(.894 0 0 1 34.4316 75.6534)" class="L N">ND</text><path d="M53.4,62.2h19.2v19.2H53.4V62.2z" class="M"/><text transform="matrix(.894 0 0 1 55.1763 75.6534)" class="L N">WY</text><path d="M31.9,105.5h19.2v19.3H31.9V105.5z" class="M"/><text transform="matrix(.894 0 0 1 35.3039 118.902)" class="L N">AZ</text><path d="M53.4,105.5h19.3v19.3H53.4V105.5z" class="M"/><text transform="matrix(.894 0 0 1 57.3099 118.902)" class="L N">FL</text><path d="M75,105.5h19.2v19.3H75V105.5z" class="M"/><text transform="matrix(.894 0 0 1 77.8533 118.902)" class="L N">GA</text><path d="M96.5,105.5h19.2v19.3H96.5V105.5z" class="M"/><text transform="matrix(.894 0 0 1 100.9451 118.902)" class="L N">ID</text><path d="M118.1,105.5h19.2v19.3h-19.2V105.5z" class="M"/><text transform="matrix(.894 0 0 1 122.7542 118.902)" class="L N">IA</text><path d="M139.7 105.5H159v19.3h-19.3v-19.3z" class="M"/><text transform="matrix(.894 0 0 1 141.7025 118.902)" class="L N">MO</text><path d="M97.7,314.6h19.2v19.2H97.7V314.6z" class="M"/><text transform="matrix(.894 0 0 1 99.9755 328.0059)" class="L N">MT</text><path d="M182.9,105.5h19.2v19.3h-19.2V105.5z" class="M"/><text transform="matrix(.894 0 0 1 185.917 118.902)" class="L N">NE</text><path d="M204.5,105.5h19.2v19.3h-19.2V105.5z" class="M"/><text transform="matrix(.894 0 0 1 206.769 118.902)" class="L N">NH</text><path d="M10.3,127.1h19.2v19.2H10.3V127.1z" class="M"/><text transform="matrix(.894 0 0 1 12.9504 140.5452)" class="L N">OK</text><path d="M31.9,127.1h19.2v19.2H31.9V127.1z" class="M"/><text transform="matrix(.894 0 0 1 35.5681 140.5452)" class="L N">SC</text><path d="M53.4,127.1h19.2v19.2H53.4V127.1z" class="M"/><text transform="matrix(.894 0 0 1 56.175 140.5452)" class="L N">TN</text><path d="M75,127.1h19.2v19.2H75V127.1z" class="M"/><text transform="matrix(.894 0 0 1 77.8225 140.5452)" class="L N">UT</text><path d="M10.3,190.2h19.2v19.2H10.3V190.2z" class="M"/><text transform="matrix(.894 0 0 1 13.4272 203.6)" class="L N">CO</text><path d="M31.9,190.2h19.3v19.2H31.9V190.2z" class="M"/><text transform="matrix(.894 0 0 1 36.0322 203.6)" class="L N">HI</text><path d="M53.4,190.2h19.2v19.2H53.4V190.2z" class="M"/><text transform="matrix(.894 0 0 1 55.3506 203.6)" class="L N">MN</text><path d="M205.5,364.6h19.2v19.2h-19.2V364.6z" class="M"/><text transform="matrix(.894 0 0 1 208.583 378.0198)" class="L N">PR</text><path d="M75,190.2h19.2v19.2H75V190.2z" class="M"/><text transform="matrix(.894 0 0 1 78.2228 203.6)" class="L N">VA</text><path d="M96.5,190.2h19.2v19.2H96.5V190.2z" class="M"/><text transform="matrix(.894 0 0 1 98.2526 203.6)" class="L N">WV</text><path d="M205.5,314.6h19.2v19.2h-19.2V314.6z" class="M"/><text transform="matrix(.894 0 0 1 208.6032 327.9998)" class="L N">WI</text><path d="M11.5,249.9h19.2v19.2H11.5V249.9z" class="M"/><text transform="matrix(.894 0 0 1 14.7935 263.2841)" class="L N">CT</text><path d="M33,249.9h19.2v19.2H33V249.9z" class="M"/><text transform="matrix(.894 0 0 1 38.0591 263.2841)" class="L N">IL</text><path d="M54.6,249.9h19.2v19.2H54.6V249.9z" class="M"/><text transform="matrix(.894 0 0 1 58.8311 263.2841)" class="L N">IN</text><path d="M76.1,249.9h19.2v19.2H76.1V249.9z" class="M"/><text transform="matrix(.894 0 0 1 79.0933 263.2841)" class="L N">KY</text><path d="M97.7,249.9h19.2v19.2H97.7V249.9z" class="M"/><text transform="matrix(.894 0 0 1 100.2183 263.2841)" class="L N">ME</text><path d="M97.7 364.6h19.2v19.2H97.7v-19.2z" class="M"/><text transform="matrix(.894 0 0 1 100.0357 378.024)" class="L N">MA</text><path d="M119.2,249.9h19.2v19.2h-19.2V249.9z" class="M"/><text transform="matrix(.894 0 0 1 121.1683 263.2841)" class="L N">NM</text><path d="M140.8 249.9H160v19.2h-19.2v-19.2z" class="M"/><text transform="matrix(.894 0 0 1 143.6614 263.2841)" class="L N">NY</text><path d="M162.3,249.9h19.2v19.2h-19.2V249.9z" class="M"/><text transform="matrix(.894 0 0 1 165.3274 263.2841)" class="L N">NC</text><path d="M183.9,249.9h19.2v19.2h-19.2V249.9z" class="M"/><text transform="matrix(.894 0 0 1 187.0872 263.2841)" class="L N">VT</text><path d="M11.5,314.6h19.2v19.2H11.5V314.6z" class="M"/><text transform="matrix(.894 0 0 1 15.0659 328.0033)" class="L N">AL</text><path d="M33,314.6h19.2v19.2H33V314.6z" class="M"/><text transform="matrix(.894 0 0 1 36.0742 328.0033)" class="L N">AR</text><path d="M54.6,314.6h19.2v19.2H54.6V314.6z" class="M"/><text transform="matrix(.894 0 0 1 58.1738 328.0033)" class="L N">LA</text><path d="M76.1,314.6h19.2v19.2H76.1V314.6z" class="M"/><text transform="matrix(.894 0 0 1 79.9067 328.0033)" class="L N">MI</text><path d="M161.2,105.5h19.2v19.2h-19.2V105.5z" class="M"/><text transform="matrix(.894 0 0 1 163.837 118.8992)" class="L N">MS</text><path d="M140.8 364.6H160v19.2h-19.2v-19.2z" class="M"/><text transform="matrix(.894 0 0 1 144.4501 378.0233)" class="L N">NJ</text><path d="M119.2,314.6h19.2v19.2h-19.2V314.6z" class="M"/><text transform="matrix(.894 0 0 1 121.6873 328.0033)" class="L N">OH</text><path d="M140.8 314.6H160v19.2h-19.2v-19.2z" class="M"/><text transform="matrix(.894 0 0 1 143.5721 328.0033)" class="L N">OR</text><path d="M162.3,314.6h19.2v19.2h-19.2V314.6z" class="M"/><text transform="matrix(.894 0 0 1 165.3899 328.0033)" class="L N">TX</text><path d="M183.9,314.6h19.2v19.2h-19.2V314.6z" class="M"/><text transform="matrix(.894 0 0 1 185.6072 328.0033)" class="L N">WA</text><path d="M11.5,364.6h19.2v19.2H11.5V364.6z" class="M"/><text transform="matrix(.894 0 0 1 14.856 378.0209)" class="L N">CA</text><path d="M33,364.6h19.2v19.2H33V364.6z" class="M"/><text transform="matrix(.894 0 0 1 36.1904 378.0209)" class="L N">DE</text><path d="M54.6,364.6h19.2v19.2H54.6V364.6z" class="M"/><text transform="matrix(.894 0 0 1 57.709 378.0209)" class="L N">DC</text><path d="M76.1,364.6h19.2v19.2H76.1V364.6z" class="M"/><text transform="matrix(.894 0 0 1 79.3569 378.0209)" class="L N">KS</text><path d="M119.2,364.6h19.2v19.2h-19.2V364.6z" class="M"/><text transform="matrix(.894 0 0 1 121.3121 378.0209)" class="L N">MD</text><path d="M162.3 364.6h19.2v19.2h-19.2v-19.2z" class="M"/><text transform="matrix(.894 0 0 1 165.1722 378.0209)" class="L N">NV</text><path d="M183.9,364.6h19.2v19.2h-19.2V364.6z" class="M"/><text transform="matrix(.894 0 0 1 187.1908 378.0209)" class="L N">PA</text><path d="M227.2,364.6h19.2v19.2h-19.2V364.6z" class="M"/><text transform="matrix(.894 0 0 1 231.6578 378.0209)" class="L N">RI</text><path d="M10.3,105.5h19.2v19.3H10.3V105.5z" class="M"/><text transform="matrix(.894 0 0 1 13.7539 118.902)" class="L N">AK</text></svg>