<svg xmlns="http://www.w3.org/2000/svg" viewBox="0 0 300 381.72" xmlns:v="https://vecta.io/nano"><style><![CDATA[.K{font-size:10px}.L{fill:#d4c9e3}.M{font-family:IBMPlexSerif-Bold}.N{font-size:12px}.O{font-family:IBMPlexSerif}.P{fill:#6d6e71}.Q{font-family:IBMPlexSerif-Light}]]></style><text transform="translate(3.796 15.461)" font-family="IBMPlexSerif-SemiBold" class="N">How strict are states’ mask policies?</text><g fill="none" stroke="#6d6e71" stroke-width=".5" stroke-miterlimit="10"><path d="M4.63 27.26v.5"/><path d="M4.63 28.76v344.07" stroke-dasharray="1.0017,1.0017"/><path d="M4.63 373.33v.5"/></g><g class="P"><path d="M4.63 25.14L3.4 28.12l1.22-.7 1.22.7zm0 350.5c-.32-.85-.86-1.9-1.43-2.56l1.43.52 1.43-.52c-.58.65-1.12 1.7-1.43 2.56z"/><text transform="translate(10.036 38.584)" class="K Q">Least strict</text><text transform="translate(10.036 370.371)" class="K Q">Most strict</text></g><text transform="translate(10.035 65.06)" class="N O">Encouraged or recommended</text><text transform="translate(10.036 107.954)" class="N O">Required in some cities or counties</text><text transform="translate(10.035 152.483)" class="N O">Required in indoor public spaces</text><text><tspan x="10.036" y="198.402" class="N O">Required in all public spaces when unable to </tspan><tspan y="211.902" x="10.036" class="N O">maintain distancing</tspan><tspan x="10.035" y="262.293" class="N O">Required in indoor public spaces at all times and</tspan><tspan y="275.793" x="10.035" class="N O">outdoors when unable to maintain distancing</tspan></text><text transform="translate(10.035 325.45)" class="N O">Required in all public spaces</text><path d="M10.32 71.23h19.25v19.25H10.32z" class="L"/><text transform="matrix(.894 0 0 1 13.6013 84.6543)" class="K M">SD</text><path d="M31.87 71.23h19.25v19.25H31.87z" class="L"/><text transform="matrix(.894 0 0 1 34.4313 84.6543)" class="K M">ND</text><path d="M53.43 71.23h19.25v19.25H53.43z" class="L"/><text transform="matrix(.894 0 0 1 55.1763 84.6543)" class="K M">WY</text><path d="M10.32 113.48h19.25v19.25H10.32z" class="L"/><text transform="matrix(.894 0 0 1 13.7537 126.9028)" class="K M">AZ</text><path d="M31.87 113.48h19.25v19.25H31.87z" class="L"/><text transform="matrix(.894 0 0 1 35.7546 126.9028)" class="K M">FL</text><path d="M53.43 113.48h19.25v19.25H53.43z" class="L"/><text transform="matrix(.894 0 0 1 56.2984 126.9028)" class="K M">GA</text><path d="M74.98 113.48h19.25v19.25H74.98z" class="L"/><text transform="matrix(.894 0 0 1 79.3901 126.9028)" class="K M">ID</text><path d="M96.54 113.48h19.25v19.25H96.54z" class="L"/><text transform="matrix(.894 0 0 1 101.1991 126.9028)" class="K M">IA</text><path d="M118.1 113.48h19.25v19.25H118.1z" class="L"/><text transform="matrix(.894 0 0 1 120.1472 126.9028)" class="K M">MO</text><path d="M139.64 113.48h19.25v19.25h-19.25z" class="L"/><text transform="matrix(.894 0 0 1 141.9155 126.9028)" class="K M">MT</text><path d="M161.2 113.48h19.25v19.25H161.2z" class="L"/><text transform="matrix(.894 0 0 1 164.2074 126.9028)" class="K M">NE</text><path d="M182.75 113.48H202v19.25h-19.25z" class="L"/><text transform="matrix(.894 0 0 1 185.0594 126.9028)" class="K M">NH</text><path d="M204.3 113.48h19.25v19.25H204.3z" class="L"/><text transform="matrix(.894 0 0 1 206.9402 126.9028)" class="K M">OK</text><path d="M225.86 113.48h19.25v19.25h-19.25z" class="L"/><text transform="matrix(.894 0 0 1 229.5582 126.9028)" class="K M">SC</text><path d="M247.4 113.48h19.25v19.25H247.4z" class="L"/><text transform="matrix(.894 0 0 1 250.1647 126.9028)" class="K M">TN</text><path d="M268.97 113.48h19.25v19.25h-19.25z" class="L"/><text transform="matrix(.894 0 0 1 271.8126 126.9028)" class="K M">UT</text><path d="M10.32 158.18h19.25v19.25H10.32z" class="L"/><text transform="matrix(.894 0 0 1 13.427 171.5969)" class="K M">CO</text><path d="M31.87 158.18h19.25v19.25H31.87z" class="L"/><text transform="matrix(.894 0 0 1 36.0319 171.5969)" class="K M">HI</text><path d="M53.43 158.18h19.25v19.25H53.43z" class="L"/><text transform="matrix(.894 0 0 1 55.3507 171.5969)" class="K M">MN</text><path d="M74.98 158.18h19.25v19.25H74.98z" class="L"/><text transform="matrix(.894 0 0 1 78.103 171.5969)" class="K M">PR</text><path d="M96.54 158.18h19.25v19.25H96.54z" class="L"/><text transform="matrix(.894 0 0 1 99.7777 171.5969)" class="K M">VA</text><path d="M118.1 158.18h19.25v19.25H118.1z" class="L"/><text transform="matrix(.894 0 0 1 119.8074 171.5969)" class="K M">WV</text><path d="M139.64 158.18h19.25v19.25h-19.25z" class="L"/><text transform="matrix(.894 0 0 1 142.7829 171.5969)" class="K M">WI</text><path d="M11.47 217.86h19.25v19.25H11.47z" class="L"/><text transform="matrix(.894 0 0 1 14.7932 231.2809)" class="K M">CT</text><path d="M33.02 217.86h19.25v19.25H33.02z" class="L"/><text transform="matrix(.894 0 0 1 38.0592 231.2809)" class="K M">IL</text><path d="M54.58 217.86h19.25v19.25H54.58z" class="L"/><text transform="matrix(.894 0 0 1 58.8311 231.2809)" class="K M">IN</text><path d="M76.13 217.86h19.25v19.25H76.13z" class="L"/><text transform="matrix(.894 0 0 1 79.0932 231.2809)" class="K M">KY</text><path d="M97.7 217.86h19.25v19.25H97.7z" class="L"/><text transform="matrix(.894 0 0 1 100.2181 231.2809)" class="K M">ME</text><path d="M119.24 217.86h19.25v19.25h-19.25z" class="L"/><text transform="matrix(.894 0 0 1 121.5755 231.2809)" class="K M">MA</text><path d="M140.8 217.86h19.25v19.25H140.8z" class="L"/><text transform="matrix(.894 0 0 1 142.7184 231.2809)" class="K M">NM</text><path d="M162.35 217.86h19.25v19.25h-19.25z" class="L"/><text transform="matrix(.894 0 0 1 165.2115 231.2809)" class="K M">NY</text><path d="M183.9 217.86h19.25v19.25H183.9z" class="L"/><text transform="matrix(.894 0 0 1 186.8774 231.2809)" class="K M">NC</text><path d="M205.46 217.86h19.25v19.25h-19.25z" class="L"/><text transform="matrix(.894 0 0 1 208.6371 231.2809)" class="K M">VT</text><path d="M11.47 282.58h19.25v19.25H11.47z" class="L"/><text transform="matrix(.894 0 0 1 15.0657 296.0001)" class="K M">AL</text><path d="M33.02 282.58h19.25v19.25H33.02z" class="L"/><text transform="matrix(.894 0 0 1 36.0744 296.0001)" class="K M">AR</text><path d="M54.58 282.58h19.25v19.25H54.58z" class="L"/><text transform="matrix(.894 0 0 1 58.1739 296.0001)" class="K M">LA</text><path d="M76.13 282.58h19.25v19.25H76.13z" class="L"/><text transform="matrix(.894 0 0 1 79.9067 296.0001)" class="K M">MI</text><path d="M97.7 282.58h19.25v19.25H97.7z" class="L"/><text transform="matrix(.894 0 0 1 100.3344 296.0001)" class="K M">MS</text><path d="M119.24 282.58h19.25v19.25h-19.25z" class="L"/><text transform="matrix(.894 0 0 1 122.8899 296.0001)" class="K M">NJ</text><path d="M140.8 282.58h19.25v19.25H140.8z" class="L"/><text transform="matrix(.894 0 0 1 143.237 296.0001)" class="K M">OH</text><path d="M162.35 282.58h19.25v19.25h-19.25z" class="L"/><text transform="matrix(.894 0 0 1 165.1221 296.0001)" class="K M">OR</text><path d="M183.9 282.58h19.25v19.25H183.9z" class="L"/><text transform="matrix(.894 0 0 1 186.9399 296.0001)" class="K M">TX</text><path d="M205.46 282.58h19.25v19.25h-19.25z" class="L"/><text transform="matrix(.894 0 0 1 207.1571 296.0001)" class="K M">WA</text><path d="M11.47 332.6h19.25v19.25H11.47z" class="L"/><text transform="matrix(.894 0 0 1 14.8557 346.0175)" class="K M">CA</text><path d="M33.02 332.6h19.25v19.25H33.02z" class="L"/><text transform="matrix(.894 0 0 1 36.1906 346.0175)" class="K M">DE</text><path d="M54.58 332.6h19.25v19.25H54.58z" class="L"/><text transform="matrix(.894 0 0 1 57.7091 346.0175)" class="K M">DC</text><path d="M76.13 332.6h19.25v19.25H76.13z" class="L"/><text transform="matrix(.894 0 0 1 79.3569 346.0175)" class="K M">KS</text><path d="M97.7 332.6h19.25v19.25H97.7z" class="L"/><text transform="matrix(.894 0 0 1 99.767 346.0175)" class="K M">MD</text><path d="M119.24 332.6h19.25v19.25h-19.25z" class="L"/><text transform="matrix(.894 0 0 1 122.0721 346.0175)" class="K M">NV</text><path d="M140.8 332.6h19.25v19.25H140.8z" class="L"/><text transform="matrix(.894 0 0 1 144.091 346.0175)" class="K M">PA</text><path d="M162.35 332.6h19.25v19.25h-19.25z" class="L"/><text transform="matrix(.894 0 0 1 166.8384 346.0175)" class="K M">RI</text></svg>