<?xml version="1.0" encoding="utf-8"?>
<!-- Generator: Adobe Illustrator 24.1.2, SVG Export Plug-In . SVG Version: 6.00 Build 0)  -->
<svg version="1.1" id="Layer_1" xmlns="http://www.w3.org/2000/svg" xmlns:xlink="http://www.w3.org/1999/xlink" x="0px" y="0px"
	 viewBox="0 0 300 381.72" style="enable-background:new 0 0 300 381.72;" xml:space="preserve">
<style type="text/css">
	.st0{font-family:'IBMPlexSerif-SemiBold';}
	.st1{font-size:12px;}
	.st2{fill:none;stroke:#6D6E71;stroke-width:0.5;stroke-miterlimit:10;}
	.st3{fill:none;stroke:#6D6E71;stroke-width:0.5;stroke-miterlimit:10;stroke-dasharray:1.0017,1.0017;}
	.st4{fill:#6D6E71;}
	.st5{font-family:'IBMPlexSerif-Light';}
	.st6{font-size:10px;}
	.st7{font-family:'IBMPlexSerif';}
	.st8{fill:#D4C9E3;}
	.st9{font-family:'IBMPlexSerif-Bold';}
	.st10{fill:none;stroke:#6D6E71;stroke-width:0.5;stroke-miterlimit:10;stroke-dasharray:0.9994,0.9994;}
</style>
<text transform="matrix(1 0 0 1 3.7957 15.4609)" class="st0 st1">How strict are states’ mask policies?</text>
<g>
	<g>
		<line class="st2" x1="4.63" y1="27.26" x2="4.63" y2="27.76"/>
		<line class="st3" x1="4.63" y1="28.76" x2="4.63" y2="372.83"/>
		<line class="st2" x1="4.63" y1="373.33" x2="4.63" y2="373.83"/>
		<g>
			<polygon class="st4" points="4.63,25.14 3.41,28.12 4.63,27.42 5.85,28.12 			"/>
		</g>
		<g>
			<path class="st4" d="M4.63,375.64c-0.32-0.85-0.86-1.91-1.43-2.56l1.43,0.52l1.43-0.52C5.48,373.73,4.94,374.79,4.63,375.64z"/>
		</g>
	</g>
</g>
<text transform="matrix(1 0 0 1 10.0355 38.5836)" class="st4 st5 st6">Least strict</text>
<text transform="matrix(1 0 0 1 10.0356 370.3711)" class="st4 st5 st6">Most strict</text>
<text transform="matrix(1 0 0 1 10.0353 65.0599)" class="st7 st1">Encouraged or recommended</text>
<text transform="matrix(1 0 0 1 10.0355 107.9543)" class="st7 st1">Required in some cities or counties</text>
<text transform="matrix(1 0 0 1 10.0354 152.4834)" class="st7 st1">Required in indoor public spaces</text>
<text transform="matrix(1 0 0 1 10.0357 198.4016)"><tspan x="0" y="0" class="st7 st1">Required in all public spaces when unable to </tspan><tspan x="0" y="13.5" class="st7 st1">maintain distancing</tspan></text>
<text transform="matrix(1 0 0 1 10.0354 262.2927)"><tspan x="0" y="0" class="st7 st1">Required in indoor public spaces at all times and</tspan><tspan x="0" y="13.5" class="st7 st1">outdoors when unable to maintain distancing</tspan></text>
<text transform="matrix(1 0 0 1 10.0354 325.4497)" class="st7 st1">Required in all public spaces</text>
<g>
	<rect x="10.32" y="71.23" class="st8" width="19.25" height="19.25"/>
	<text transform="matrix(0.894 0 0 1 13.6013 84.6543)" class="st9 st6">SD</text>
</g>
<g>
	<rect x="31.87" y="71.23" class="st8" width="19.25" height="19.25"/>
	<text transform="matrix(0.894 0 0 1 34.4313 84.6543)" class="st9 st6">ND</text>
</g>
<g>
	<rect x="53.43" y="71.23" class="st8" width="19.25" height="19.25"/>
	<text transform="matrix(0.894 0 0 1 55.1763 84.6543)" class="st9 st6">WY</text>
</g>
<g>
	<rect x="10.32" y="113.48" class="st8" width="19.25" height="19.25"/>
	<text transform="matrix(0.894 0 0 1 13.7537 126.9028)" class="st9 st6">AZ</text>
</g>
<g>
	<rect x="31.87" y="113.48" class="st8" width="19.25" height="19.25"/>
	<text transform="matrix(0.894 0 0 1 35.7546 126.9028)" class="st9 st6">FL</text>
</g>
<g>
	<rect x="53.43" y="113.48" class="st8" width="19.25" height="19.25"/>
	<text transform="matrix(0.894 0 0 1 56.2984 126.9028)" class="st9 st6">GA</text>
</g>
<g>
	<rect x="74.98" y="113.48" class="st8" width="19.25" height="19.25"/>
	<text transform="matrix(0.894 0 0 1 79.3901 126.9028)" class="st9 st6">ID</text>
</g>
<g>
	<rect x="96.54" y="113.48" class="st8" width="19.25" height="19.25"/>
	<text transform="matrix(0.894 0 0 1 101.1991 126.9028)" class="st9 st6">IA</text>
</g>
<g>
	<rect x="118.09" y="113.48" class="st8" width="19.25" height="19.25"/>
	<text transform="matrix(0.894 0 0 1 120.1472 126.9028)" class="st9 st6">MO</text>
</g>
<g>
	<rect x="139.64" y="113.48" class="st8" width="19.25" height="19.25"/>
	<text transform="matrix(0.894 0 0 1 141.9155 126.9028)" class="st9 st6">MT</text>
</g>
<g>
	<rect x="161.2" y="113.48" class="st8" width="19.25" height="19.25"/>
	<text transform="matrix(0.894 0 0 1 164.2074 126.9028)" class="st9 st6">NE</text>
</g>
<g>
	<rect x="182.75" y="113.48" class="st8" width="19.25" height="19.25"/>
	<text transform="matrix(0.894 0 0 1 185.0594 126.9028)" class="st9 st6">NH</text>
</g>
<g>
	<rect x="204.31" y="113.48" class="st8" width="19.25" height="19.25"/>
	<text transform="matrix(0.894 0 0 1 206.9402 126.9028)" class="st9 st6">OK</text>
</g>
<g>
	<rect x="225.86" y="113.48" class="st8" width="19.25" height="19.25"/>
	<text transform="matrix(0.894 0 0 1 229.5582 126.9028)" class="st9 st6">SC</text>
</g>
<g>
	<rect x="247.41" y="113.48" class="st8" width="19.25" height="19.25"/>
	<text transform="matrix(0.894 0 0 1 250.1647 126.9028)" class="st9 st6">TN</text>
</g>
<g>
	<rect x="268.97" y="113.48" class="st8" width="19.25" height="19.25"/>
	<text transform="matrix(0.894 0 0 1 271.8126 126.9028)" class="st9 st6">UT</text>
</g>
<g>
	<rect x="10.32" y="158.18" class="st8" width="19.25" height="19.25"/>
	<text transform="matrix(0.894 0 0 1 13.427 171.5969)" class="st9 st6">CO</text>
</g>
<g>
	<rect x="31.87" y="158.18" class="st8" width="19.25" height="19.25"/>
	<text transform="matrix(0.894 0 0 1 36.0319 171.5969)" class="st9 st6">HI</text>
</g>
<g>
	<rect x="53.43" y="158.18" class="st8" width="19.25" height="19.25"/>
	<text transform="matrix(0.894 0 0 1 55.3507 171.5969)" class="st9 st6">MN</text>
</g>
<g>
	<rect x="74.98" y="158.18" class="st8" width="19.25" height="19.25"/>
	<text transform="matrix(0.894 0 0 1 78.103 171.5969)" class="st9 st6">PR</text>
</g>
<g>
	<rect x="96.54" y="158.18" class="st8" width="19.25" height="19.25"/>
	<text transform="matrix(0.894 0 0 1 99.7777 171.5969)" class="st9 st6">VA</text>
</g>
<g>
	<rect x="118.09" y="158.18" class="st8" width="19.25" height="19.25"/>
	<text transform="matrix(0.894 0 0 1 119.8074 171.5969)" class="st9 st6">WV</text>
</g>
<g>
	<rect x="139.64" y="158.18" class="st8" width="19.25" height="19.25"/>
	<text transform="matrix(0.894 0 0 1 142.7829 171.5969)" class="st9 st6">WI</text>
</g>
<g>
	<rect x="11.47" y="217.86" class="st8" width="19.25" height="19.25"/>
	<text transform="matrix(0.894 0 0 1 14.7932 231.2809)" class="st9 st6">CT</text>
</g>
<g>
	<rect x="33.02" y="217.86" class="st8" width="19.25" height="19.25"/>
	<text transform="matrix(0.894 0 0 1 38.0592 231.2809)" class="st9 st6">IL</text>
</g>
<g>
	<rect x="54.58" y="217.86" class="st8" width="19.25" height="19.25"/>
	<text transform="matrix(0.894 0 0 1 58.8311 231.2809)" class="st9 st6">IN</text>
</g>
<g>
	<rect x="76.13" y="217.86" class="st8" width="19.25" height="19.25"/>
	<text transform="matrix(0.894 0 0 1 79.0932 231.2809)" class="st9 st6">KY</text>
</g>
<g>
	<rect x="97.69" y="217.86" class="st8" width="19.25" height="19.25"/>
	<text transform="matrix(0.894 0 0 1 100.2181 231.2809)" class="st9 st6">ME</text>
</g>
<g>
	<rect x="119.24" y="217.86" class="st8" width="19.25" height="19.25"/>
	<text transform="matrix(0.894 0 0 1 121.5755 231.2809)" class="st9 st6">MA</text>
</g>
<g>
	<rect x="140.79" y="217.86" class="st8" width="19.25" height="19.25"/>
	<text transform="matrix(0.894 0 0 1 142.7184 231.2809)" class="st9 st6">NM</text>
</g>
<g>
	<rect x="162.35" y="217.86" class="st8" width="19.25" height="19.25"/>
	<text transform="matrix(0.894 0 0 1 165.2115 231.2809)" class="st9 st6">NY</text>
</g>
<g>
	<rect x="183.9" y="217.86" class="st8" width="19.25" height="19.25"/>
	<text transform="matrix(0.894 0 0 1 186.8774 231.2809)" class="st9 st6">NC</text>
</g>
<g>
	<rect x="205.46" y="217.86" class="st8" width="19.25" height="19.25"/>
	<text transform="matrix(0.894 0 0 1 208.6371 231.2809)" class="st9 st6">VT</text>
</g>
<g>
	<rect x="11.47" y="282.58" class="st8" width="19.25" height="19.25"/>
	<text transform="matrix(0.894 0 0 1 15.0657 296.0001)" class="st9 st6">AL</text>
</g>
<g>
	<rect x="33.02" y="282.58" class="st8" width="19.25" height="19.25"/>
	<text transform="matrix(0.894 0 0 1 36.0744 296.0001)" class="st9 st6">AR</text>
</g>
<g>
	<rect x="54.58" y="282.58" class="st8" width="19.25" height="19.25"/>
	<text transform="matrix(0.894 0 0 1 58.1739 296.0001)" class="st9 st6">LA</text>
</g>
<g>
	<rect x="76.13" y="282.58" class="st8" width="19.25" height="19.25"/>
	<text transform="matrix(0.894 0 0 1 79.9067 296.0001)" class="st9 st6">MI</text>
</g>
<g>
	<rect x="97.69" y="282.58" class="st8" width="19.25" height="19.25"/>
	<text transform="matrix(0.894 0 0 1 100.3344 296.0001)" class="st9 st6">MS</text>
</g>
<g>
	<rect x="119.24" y="282.58" class="st8" width="19.25" height="19.25"/>
	<text transform="matrix(0.894 0 0 1 122.8899 296.0001)" class="st9 st6">NJ</text>
</g>
<g>
	<rect x="140.79" y="282.58" class="st8" width="19.25" height="19.25"/>
	<text transform="matrix(0.894 0 0 1 143.237 296.0001)" class="st9 st6">OH</text>
</g>
<g>
	<rect x="162.35" y="282.58" class="st8" width="19.25" height="19.25"/>
	<text transform="matrix(0.894 0 0 1 165.1221 296.0001)" class="st9 st6">OR</text>
</g>
<g>
	<rect x="183.9" y="282.58" class="st8" width="19.25" height="19.25"/>
	<text transform="matrix(0.894 0 0 1 186.9399 296.0001)" class="st9 st6">TX</text>
</g>
<g>
	<rect x="205.46" y="282.58" class="st8" width="19.25" height="19.25"/>
	<text transform="matrix(0.894 0 0 1 207.1571 296.0001)" class="st9 st6">WA</text>
</g>
<g>
	<rect x="11.47" y="332.6" class="st8" width="19.25" height="19.25"/>
	<text transform="matrix(0.894 0 0 1 14.8557 346.0175)" class="st9 st6">CA</text>
</g>
<g>
	<rect x="33.02" y="332.6" class="st8" width="19.25" height="19.25"/>
	<text transform="matrix(0.894 0 0 1 36.1906 346.0175)" class="st9 st6">DE</text>
</g>
<g>
	<rect x="54.58" y="332.6" class="st8" width="19.25" height="19.25"/>
	<text transform="matrix(0.894 0 0 1 57.7091 346.0175)" class="st9 st6">DC</text>
</g>
<g>
	<rect x="76.13" y="332.6" class="st8" width="19.25" height="19.25"/>
	<text transform="matrix(0.894 0 0 1 79.3569 346.0175)" class="st9 st6">KS</text>
</g>
<g>
	<rect x="97.69" y="332.6" class="st8" width="19.25" height="19.25"/>
	<text transform="matrix(0.894 0 0 1 99.767 346.0175)" class="st9 st6">MD</text>
</g>
<g>
	<rect x="119.24" y="332.6" class="st8" width="19.25" height="19.25"/>
	<text transform="matrix(0.894 0 0 1 122.0721 346.0175)" class="st9 st6">NV</text>
</g>
<g>
	<rect x="140.79" y="332.6" class="st8" width="19.25" height="19.25"/>
	<text transform="matrix(0.894 0 0 1 144.091 346.0175)" class="st9 st6">PA</text>
</g>
<g>
	<rect x="162.35" y="332.6" class="st8" width="19.25" height="19.25"/>
	<text transform="matrix(0.894 0 0 1 166.8384 346.0175)" class="st9 st6">RI</text>
</g>
</svg>
