<svg xmlns="http://www.w3.org/2000/svg" viewBox="0 0 792 523.17" xmlns:v="https://vecta.io/nano"><style><![CDATA[.Q{fill:#010101}.R{font-size:12px}.S{fill:none}.T{stroke-width:1.417}.U{font-family:IBMPlexSerif-SemiBold}.V{stroke:#579e4e}.W{fill:#579e4e}.X{stroke:#9f4f56}.Y{fill:#9f4f56}.Z{font-family:IBMPlexSerif-Light}.a{font-size:10px}.b{stroke:#9d4f55}.c{fill:#9d4f55}.d{stroke-dasharray:0.0283,4.2423}.e{enable-background:new}]]></style><path d="M577.6 371.94v20.2" class="S T V"/><path d="M577.6 396.14l-2.3-5.6 2.3 1.3 2.3-1.3z" class="W"/><path d="M601.7 371.94v-19.5" class="S T b"/><path d="M601.7 348.44l2.3 5.6-2.3-1.3-2.3 1.3z" class="c"/><path d="M408.7 371.94V70.54" class="S T X"/><path d="M408.7 66.54l2.3 5.6-2.3-1.3-2.3 1.3z" class="Y"/><path d="M583.6 371.94v4.4" class="S T V"/><path d="M583.6 380.34l-2.3-5.6 2.3 1.3 2.3-1.3z" class="W"/><path d="M52.8 371.94v90.9" class="S T V"/><path d="M52.8 466.84l-2.3-5.6 2.3 1.3 2.3-1.3z" class="W"/><path d="M101.1 371.94v47.2" class="S T V"/><path d="M101.1 423.14l-2.3-5.7 2.3 1.4 2.3-1.4z" class="W"/><path d="M613.8 371.94v-6.1" class="S T X"/><path d="M613.8 361.84l2.3 5.6-2.3-1.3-2.3 1.3z" class="Y"/><path d="M119.2 371.94v16.4" class="S T V"/><path d="M119.2 392.34l-2.3-5.6 2.3 1.3 2.3-1.3z" class="W"/><path d="M643.9 371.94v-13.8" class="S T b"/><path d="M643.9 354.14l2.3 5.6-2.3-1.3-2.3 1.3z" class="c"/><path d="M499.2 371.94v-88.7" class="S T X"/><path d="M499.2 279.24l2.3 5.7-2.3-1.4-2.3 1.4z" class="Y"/><path d="M545.2 372.4V195.8" class="S T X"/><path d="M545.2 191.8l2.3 5.6-2.3-1.3-2.3 1.3z" class="Y"/><path d="M559.5 371.94v42.2" class="S T V"/><path d="M559.5 418.14l-2.3-5.7 2.3 1.4 2.3-1.4z" class="W"/><path d="M119.2 371.94v-250.3" class="S T X"/><path d="M119.2 117.64l2.3 5.6-2.3-1.3-2.3 1.3z" class="Y"/><path d="M668.1 371.94v85.8" class="S T V"/><path d="M668.1 461.74l-2.3-5.6 2.3 1.3 2.3-1.3z" class="W"/><path d="M149.3 371.94v122.6" class="S T V"/><path d="M149.3 498.54l-2.3-5.6 2.3 1.3 2.3-1.3z" class="W"/><path d="M545.2 371.94v-121.3" class="S T X"/><path d="M545.2 246.64l2.3 5.6-2.3-1.3-2.3 1.3z" class="Y"/><path d="M631.9 371.94v23.2" class="S T V"/><path d="M631.9 399.14l-2.3-5.7 2.3 1.4 2.3-1.4z" class="W"/><path d="M571.6 371.94v-2" class="S T X"/><path d="M571.6 365.94l2.3 5.7-2.3-1.4-2.3 1.4z" class="Y"/><path d="M456.9 371.94V14.34" class="S T X"/><path d="M456.9 10.34l2.4 5.7-2.4-1.4-2.3 1.4z" class="Y"/><path d="M529.3 371.94v-71" class="S T X"/><path d="M529.3 296.94l2.3 5.7-2.3-1.4-2.3 1.4z" class="Y"/><path d="M209.6 371.94v-21.7" class="S T X"/><path d="M209.6 346.24l2.3 5.7-2.3-1.4-2.3 1.4z" class="Y"/><path d="M34.7 371.94v140.1" class="S T V"/><path d="M34.7 516.04l-2.3-5.7 2.3 1.4 2.3-1.4z" class="W"/><path d="M456.9 371.94v-111.5" class="S T X"/><path d="M456.9 256.44l2.3 5.6-2.3-1.3-2.3 1.3z" class="Y"/><path d="M619.8 371.94v37.7" class="S T V"/><path d="M619.8 413.64l-2.3-5.6 2.3 1.3 2.3-1.3z" class="W"/><path d="M625.8 371.94v36" class="S T V"/><path d="M625.8 411.94l-2.3-5.7 2.3 1.4 2.3-1.4z" class="W"/><path d="M487.1 371.94v-98.6" class="S T X"/><path d="M487.1 269.34l2.3 5.7-2.3-1.4-2.3 1.4z" class="Y"/><path d="M161.4 371.94v112.5" class="S T V"/><path d="M161.4 488.44l-2.3-5.7 2.3 1.4 2.3-1.4z" class="W"/><path d="M493.1 371.94v-93" class="S T b"/><path d="M493.1 274.94l2.3 5.6-2.3-1.3-2.3 1.3z" class="c"/><path d="M674.1 371.94v-110.7" class="S T b"/><path d="M674.1 257.24l2.3 5.7-2.3-1.4-2.3 1.4z" class="c"/><path d="M288.1 371.94v116.9" class="S T V"/><path d="M288.1 492.84l-2.3-5.6 2.3 1.3 2.3-1.3z" class="W"/><path d="M456.9 372.3V199" class="S T X"/><path d="M456.9 195l2.3 5.7-2.3-1.4-2.3 1.4z" class="Y"/><path d="M523.3 371.94v-136.4" class="S T b"/><path d="M523.3 231.54l2.3 5.6-2.3-1.3-2.3 1.3z" class="c"/><path d="M674.1 371.94v40.2" class="S T V"/><path d="M674.1 416.14l-2.3-5.6 2.3 1.3 2.3-1.3z" class="W"/><g stroke="#231f20" class="S"><path d="M6.6 371.94h764.5" stroke-width=".567"/><path d="M119.2 371.94v4.8m367.9-4.9v4.8m-184-4.8v4.8m371-4.7v4.8" stroke-width=".709" stroke-miterlimit="10"/></g><text class="e"><tspan x="714.637" y="351.416" class="Q R Z">Date of</tspan><tspan y="365.916" x="714.637" class="Q R Z">mask order</tspan></text><g stroke="#6d6366" stroke-width=".85" stroke-linecap="round" class="S"><path d="M6.6 483.14h.1"/><path d="M10.9 483.14h758" class="d"/><path d="M771.1 483.14h0M6.6 260.44h.1"/><path d="M10.9 260.44h758" class="d"/><path d="M771.1 260.44h0M6.6 151.14h.1"/><path d="M10.9 151.14h758" class="d"/><path d="M771.1 151.14h0"/></g><text transform="matrix(.817 0 0 1 39.3029 516.0428)" class="Q R U">NY</text><text transform="matrix(.817 0 0 1 57.0349 466.8426)" class="Q R U">CT</text><text transform="matrix(.817 0 0 1 104.4963 423.1426)" class="Q R U">DE</text><text transform="matrix(.817 0 0 1 122.4895 396.3724)" class="Q R U">IL</text><text transform="matrix(.817 0 0 1 153.6738 500.5432)" class="Q R U">MA</text><text transform="matrix(.817 0 0 1 166.1659 488.4428)" class="Q R U">RI</text><text transform="matrix(.817 0 0 1 293.1978 492.8428)" class="Q R U">VA</text><text transform="matrix(.817 0 0 1 563.1903 418.1429)" class="Q R U">LA</text><text transform="matrix(.817 0 0 1 581.3021 396.1429)" class="Q R U">AL</text><text transform="matrix(.817 0 0 1 586.6003 382.3429)" class="Q R U">CO</text><text transform="matrix(.817 0 0 1 629.6017 411.9427)" class="Q R U">OR</text><text transform="matrix(.817 0 0 1 616.7704 424.838)" class="Q R U">OH</text><text transform="matrix(.817 0 0 1 635.9484 399.2854)" class="Q R U">MN</text><text transform="matrix(.817 0 0 1 677.5538 416.1427)" class="Q R U">WI</text><text transform="matrix(.817 0 0 1 671.8018 461.7427)" class="Q R U">MD</text><text transform="matrix(.817 0 0 1 123.6649 124.9581)" class="Q R U">ME</text><text transform="matrix(.817 0 0 1 213.596 353.4052)" class="Q R U">NM</text><text transform="matrix(.817 0 0 1 412.4461 74.0303)" class="Q R U">CA</text><text transform="matrix(.817 0 0 1 460.7408 17.4609)" class="Q R U">NV</text><text transform="matrix(.817 0 0 1 460.741 203.3272)" class="Q R U">WA</text><text transform="matrix(.817 0 0 1 460.7405 265.3552)" class="Q R U">NC</text><text transform="matrix(.817 0 0 1 485.9892 266.6358)" class="Q R U">PA</text><text transform="matrix(.817 0 0 1 495.8759 277.1025)" class="Q R U">TX</text><text transform="matrix(.817 0 0 1 502.6149 289.5462)" class="Q R U">KS</text><text transform="matrix(.817 0 0 1 526.0021 238.3602)" class="Q R U">WV</text><text transform="matrix(.817 0 0 1 530.6021 295.1376)" class="Q R U">NJ</text><text transform="matrix(.817 0 0 1 549.2694 198.9926)" class="Q R U">KY</text><text transform="matrix(.817 0 0 1 549.2697 255.2502)" class="Q R U">MI</text><text transform="matrix(.817 0 0 1 575.302 369.9431)" class="Q R U">MT</text><text transform="matrix(.817 0 0 1 605.6471 355.6369)" class="Q R U">AR</text><text transform="matrix(.817 0 0 1 617.5173 368.793)" class="Q R U">DC</text><text transform="matrix(.817 0 0 1 647.3928 361.0019)" class="Q R U">IN</text><text transform="matrix(.817 0 0 1 677.5542 264.3863)" class="Q R U">VT</text><text transform="translate(6.602 147.541)" class="Z a">+ 1% increase in cases</text><text transform="translate(6.648 255.25)" class="Z a">+ 0.5</text><text transform="translate(6.702 479.613)" class="Z a">- 0.5</text><text transform="translate(120.502 383.343)" class="Z a">May 1</text><text transform="translate(305.02 383.343)" class="Z a">June 1</text><text transform="translate(490.802 383.343)" class="Z a">July 1</text><text transform="translate(677.554 383.343)" class="Z a">August 1</text><text class="e"><tspan x="6.702" y="17.461" class="Q R Z">Percent change in cases per capita</tspan><tspan y="31.961" x="6.702" class="Q R Z">after 3 weeks under mask order</tspan></text></svg>