<svg xmlns="http://www.w3.org/2000/svg" viewBox="0 0 300 196.5" xmlns:v="https://vecta.io/nano"><style><![CDATA[.N{fill:none}.O{stroke-width:1.417}.P{stroke:#579e4e}.Q{fill:#579e4e}.R{font-family:IBMPlexSerif-Light}.S{stroke:#9f4f56}.T{fill:#9f4f56}.U{font-size:8px}.V{font-size:10px}.W{stroke:#9d4f55}.X{fill:#9d4f55}.Y{stroke-dasharray:0.0283,4.2423}]]></style><path d="M218.3 140.04v7.28" class="N O P"/><path d="M218.3 148.76l-.87-2.02.87.47.87-.47z" class="Q"/><path d="M227.4 140.04V133" class="N O W"/><path d="M227.4 131.57l.87 2.02-.87-.47-.86.47z" class="X"/><path d="M154.64 140.04V31.44" class="N O S"/><path d="M154.64 30l.87 2.02-.87-.47-.87.47z" class="T"/><path d="M220.57 140.04v1.58" class="N O P"/><path d="M220.57 143.06l-.87-2 .87.46.87-.46z" class="Q"/><path d="M20.48 140.04v32.75" class="N O P"/><path d="M20.48 174.23l-.87-2.02.87.47.86-.47z" class="Q"/><path d="M38.68 140.04v17" class="N O P"/><path d="M38.68 158.48l-.86-2.05.86.5.87-.5z" class="Q"/><path d="M231.96 140.04v-2.2" class="N O S"/><path d="M231.96 136.4l.86 2.02-.86-.47-.87.47z" class="T"/><path d="M45.5 140.04v5.9" class="N O P"/><path d="M45.5 147.4l-.87-2.02.87.47.86-.47z" class="Q"/><path d="M243.3 140.04v-4.98" class="N O W"/><path d="M243.3 133.62l.87 2.02-.87-.47-.86.47z" class="X"/><path d="M188.76 140.04v-31.96" class="N O S"/><path d="M188.76 106.64l.86 2.05-.86-.5-.87.5z" class="T"/><path d="M206.1 140.2V76.57" class="N O S"/><path d="M206.1 75.13l.86 2-.86-.46-.87.46z" class="T"/><path d="M211.5 140.04v15.2" class="N O P"/><path d="M211.5 156.68l-.87-2.05.87.5.86-.5z" class="Q"/><path d="M45.5 140.04v-90.2" class="N O S"/><path d="M45.5 48.4l.86 2.02-.86-.47-.87.47z" class="T"/><path d="M252.43 140.04v30.9" class="N O P"/><path d="M252.43 172.4l-.87-2 .87.46.86-.46z" class="Q"/><path d="M56.85 140.04v44.17" class="N O P"/><path d="M56.85 185.65l-.86-2.02.86.47.87-.47z" class="Q"/><path d="M206.1 140.04v-43.7" class="N O S"/><path d="M206.1 94.9l.86 2.02-.86-.47-.87.47z" class="T"/><path d="M238.78 140.04v8.36" class="N O P"/><path d="M238.78 149.84l-.87-2.06.87.5.87-.5z" class="Q"/><path d="M216.05 140.04v-.72" class="N O S"/><path d="M216.05 137.88l.86 2.05-.86-.5-.87.5z" class="T"/><path d="M172.8 140.04V11.2" class="N O S"/><path d="M172.8 9.75l.9 2.05-.9-.5-.87.5z" class="T"/><path d="M200.1 140.04v-25.6" class="N O S"/><path d="M200.1 113l.87 2.06-.87-.5-.86.5z" class="T"/><path d="M79.6 140.04v-7.82" class="N O S"/><path d="M79.6 130.78l.86 2.05-.86-.5-.87.5z" class="T"/><path d="M13.65 140.04v50.48" class="N O P"/><path d="M13.65 191.96l-.86-2.06.86.5.87-.5z" class="Q"/><path d="M172.8 140.04V99.86" class="N O S"/><path d="M172.8 98.42l.87 2.02-.87-.47-.87.47z" class="T"/><path d="M234.22 140.04v13.58" class="N O P"/><path d="M234.22 155.06l-.87-2.02.87.47.86-.47z" class="Q"/><path d="M236.48 140.04V153" class="N O P"/><path d="M236.48 154.45l-.87-2.05.87.5.87-.5z" class="Q"/><path d="M184.2 140.04V104.5" class="N O S"/><path d="M184.2 103.07l.87 2.05-.87-.5-.86.5z" class="T"/><path d="M61.42 140.04v40.53" class="N O P"/><path d="M61.42 182l-.87-2.05.87.5.86-.5z" class="Q"/><path d="M186.46 140.04v-33.5" class="N O W"/><path d="M186.46 105.1l.86 2-.86-.46-.87.46z" class="X"/><path d="M254.7 140.04v-39.9" class="N O W"/><path d="M254.7 98.7l.86 2.05-.86-.5-.87.5z" class="X"/><path d="M109.18 140.04v42.12" class="N O P"/><path d="M109.18 183.6l-.87-2.02.87.47.86-.47z" class="Q"/><path d="M172.8 140.16V77.72" class="N O S"/><path d="M172.8 76.28l.87 2.05-.87-.5-.87.5z" class="T"/><path d="M197.84 140.04V90.9" class="N O W"/><path d="M197.84 89.45l.87 2.02-.87-.47-.87.47z" class="X"/><path d="M254.7 140.04v14.48" class="N O P"/><path d="M254.7 155.96l-.87-2.02.87.47.86-.47z" class="Q"/><g class="N"><g stroke="#231f20"><path d="M3.06 140.04h295.2" stroke-width=".567"/><path d="M45.5 140.04v1.73M184.2 140v1.73M114.83 140v1.73m139.87-1.7v1.73" stroke-width=".709" stroke-miterlimit="10"/></g><g stroke="#6d6366" stroke-width=".85" stroke-linecap="round"><path d="M3.06 180.1h.04"/><path d="M4.68 180.1h292.74" class="Y"/><path d="M298.25 180.1h0M3.06 99.86h.04"/><path d="M4.68 99.86h292.74" class="Y"/><path d="M298.25 99.86h0M3.06 60.48h.04"/><path d="M4.68 60.48h292.74" class="Y"/><path d="M298.25 60.48h0"/></g></g><text transform="matrix(.8113 0 0 1 3.0604 46.5235)"><tspan x="0" y="0" class="R U">+ 1% increase</tspan><tspan y="9.5" x="0" class="R U">in cases</tspan></text><text transform="matrix(.7981 0 0 1 3.078 97.9911)" class="R U">+ 0.5</text><text transform="matrix(.8426 0 0 1 47.7111 137.4154)" class="R U">May 1</text><text transform="matrix(.8426 0 0 1 114.8322 137.902)" class="R U">June 1</text><text transform="matrix(.8426 0 0 1 185.0613 148.7838)" class="R U">July 1</text><text transform="matrix(.7981 0 0 1 3.0606 177.1531)" class="R U">- 0.5</text><text transform="matrix(.8113 0 0 1 270.1461 118.1841)"><tspan x="0" y="0" class="R V">Date of</tspan><tspan y="9.5" x="0" class="R V">mask</tspan><tspan y="19" x="0" class="R V">order</tspan></text><text transform="matrix(.8426 0 0 1 257.8916 148.5402)" class="R U">Aug. 1</text><text transform="matrix(.8113 0 0 1 1.0001 9.7484)"><tspan x="0" y="0" class="R V">Percent change in cases</tspan><tspan y="11.5" x="0" class="R V">per capita after 3 weeks</tspan><tspan y="23" x="0" class="R V">under mask order</tspan></text></svg>