<svg xmlns="http://www.w3.org/2000/svg" xmlns:xlink="http://www.w3.org/1999/xlink" viewBox="0 0 650 154.8" xmlns:v="https://vecta.io/nano"><style><![CDATA[.R{font-size:10px}.S{font-family:IBMPlexSerif-Bold}.T{opacity:.5}.U{fill:#c54343}.V{opacity:.4}.W{fill:#3636ad}.X{font-size:12px}.Y{font-family:IBMPlexSerif}.Z{font-family:IBMPlexSerif-Light}.a{fill:#6d6e71}.b{enable-background:new}]]></style><text transform="translate(4.118 13.37)" font-family="IBMPlexSerif-SemiBold" class="X">How strict are states’ mask policies?</text><g fill="none" stroke="#6d6e71" stroke-width=".5" stroke-miterlimit="10"><path d="M9.8 111.5h.5"/><path d="M11.3,111.5h623.1" stroke-dasharray="0.9994,0.9994"/><path d="M634.9 111.5h.5"/></g><path d="M7.7 111.5l3 1.2-.7-1.2.7-1.2-3 1.2zm629.5 0a13.05 13.05 0 0 0-2.6 1.4l.5-1.4-.5-1.4c.7.6 1.7 1.1 2.6 1.4z" class="a"/><text transform="translate(7.653 40.174)" class="R Z a">Least strict</text><text transform="translate(587.981 40.173)" class="R Z a">Most strict</text><text transform="translate(9.204 125.865)" class="X Y">Encouraged or</text><text transform="translate(9.254 139.365)" class="X Y">recommended</text><text transform="translate(118.055 125.865)" class="X Y">Required in</text><text transform="translate(119.435 139.365)" class="X Y">some cities</text><text transform="translate(119.555 152.865)" class="X Y">or counties</text><text transform="translate(207.113 125.865)" class="X Y">Required indoors </text><text transform="translate(214.643 139.365)" class="X Y">when unable to</text><text transform="translate(234.22 152.865)" class="X Y">distance</text><text transform="translate(326.671 125.865)" class="X Y">Required when</text><text transform="translate(343.578 139.365)" class="X Y">unable to</text><text transform="translate(345.93 152.865)" class="X Y">distance</text><text transform="translate(454.347 125.865)" class="X Y">Required</text><text transform="translate(458.691 139.365)" class="X Y">indoors</text><text transform="translate(449.36 152.865)" class="X Y">at all times</text><text transform="translate(547.46 125.865)" class="X Y">Required in all</text><text transform="translate(550.62 139.365)" class="X Y">public spaces</text><path d="M20.4,87.7h19.3v19.2H20.4V87.7z" class="T U"/><text transform="matrix(.894 0 0 1 23.7275 101.1089)" class="R S">SD</text><path d="M42,87.7h19.2v19.2H42V87.7z" class="T U"/><text transform="matrix(.894 0 0 1 44.5576 101.1089)" class="R S">ND</text><path d="M63.5,87.7h19.3v19.2H63.5V87.7z" class="T U"/><text transform="matrix(.894 0 0 1 65.3022 101.1089)" class="R S">WY</text><path d="M109.9 24.2h19.2v19.3h-19.2c0 0 0-19.3 0-19.3z" class="T U"/><text transform="matrix(.894 0 0 1 113.2979 37.6597)" class="R S">AK</text><path d="M110,45.4h19.3v19.3H110V45.4z" class="T U"/><text transform="matrix(.894 0 0 1 113.8745 58.8047)" class="R S">FL</text><path d="M131.5,45.4h19.2v19.3h-19.2V45.4z" class="T U"/><text transform="matrix(.894 0 0 1 134.4087 58.8047)" class="R S">GA</text><path d="M152.9,45.4h19.2v19.3h-19.2V45.4z" class="T U"/><text transform="matrix(.894 0 0 1 157.2554 58.8047)" class="R S">ID</text><path d="M174.4,45.4h19.2v19.3h-19.2V45.4z" class="T U"/><text transform="matrix(.894 0 0 1 179.0645 58.8047)" class="R S">IA</text><path d="M110,66.5h19.3v19.3H110V66.5z" class="T U"/><text transform="matrix(.894 0 0 1 112.0508 79.9614)" class="R S">MO</text><path d="M461.7 66.5H481v19.3h-19.2l-.1-19.3z" class="V W"/><text transform="matrix(.894 0 0 1 464 79.9639)" class="R S">MT</text><path d="M153,66.5h19.2v19.3H153V66.5z" class="T U"/><text transform="matrix(.894 0 0 1 155.981 79.959)" class="R S">NE</text><use xlink:href="#B" class="T U"/><text transform="matrix(.894 0 0 1 176.8335 79.959)" class="R S">NH</text><path d="M109.9 87.7h19.2v19.2h-19.2c0 0 0-19.2 0-19.2z" class="T U"/><text transform="matrix(.894 0 0 1 112.4976 101.1089)" class="R S">OK</text><use xlink:href="#C" class="T U"/><text transform="matrix(.894 0 0 1 135.1157 101.1089)" class="R S">SC</text><path d="M153,87.7h19.2v19.2H153V87.7z" class="T U"/><text transform="matrix(.894 0 0 1 155.7222 101.1089)" class="R S">TN</text><use xlink:href="#C" x="43.1" class="T U"/><text transform="matrix(.894 0 0 1 177.3701 101.1089)" class="R S">UT</text><path d="M218,66.5h19.2v19.3H218V66.5z" class="V W"/><text transform="matrix(.894 0 0 1 221.126 79.959)" class="R S">CO</text><path d="M218,87.7h19.2V107H218V87.7z" class="V W"/><text transform="matrix(.894 0 0 1 222.1816 101.1143)" class="R S">HI</text><path d="M239.8,87.7H259V107h-19.2V87.7z" class="V W"/><text transform="matrix(.894 0 0 1 241.6846 101.1143)" class="R S">MN</text><use xlink:href="#C" x="129.9" class="V W"/><text transform="matrix(.894 0 0 1 264.5596 101.1089)" class="R S">VA</text><use xlink:href="#C" x="151.5" class="T U"/><text transform="matrix(.894 0 0 1 284.5898 101.1089)" class="R S">WV</text><path d="M504.6 87.7h19.2v19.2h-19.2V87.7z" class="V W"/><text transform="matrix(.894 0 0 1 507.7002 101.1089)" class="R S">WI</text><path d="M329.7 45.4H349v19.2h-19.2l-.1-19.2z" class="V W"/><text transform="matrix(.894 0 0 1 333.0483 58.8096)" class="R S">CT</text><path d="M329.7 66.5H349v19.2h-19.2l-.1-19.2z" class="T U"/><text transform="matrix(.894 0 0 1 334.7646 79.9546)" class="R S">IL</text><use xlink:href="#B" x="176.2" class="V W"/><text transform="matrix(.894 0 0 1 354.9131 79.959)" class="R S">IN</text><use xlink:href="#B" x="197.7" class="V W"/><text transform="matrix(.894 0 0 1 375.1753 79.959)" class="R S">KY</text><path d="M393.8,66.5H413v19.3h-19.2V66.5z" class="V W"/><text transform="matrix(.894 0 0 1 396.2998 79.959)" class="R S">ME</text><path d="M612,66.5h19.2v19.3H612V66.5z" class="T U"/><text transform="matrix(.894 0 0 1 614.3428 79.959)" class="R S">MA</text><path d="M329.7 87.7H349v19.2h-19.2l-.1-19.2z" class="V W"/><text transform="matrix(.894 0 0 1 331.6489 101.1089)" class="R S">NM</text><use xlink:href="#C" x="219.9" class="V W"/><text transform="matrix(.894 0 0 1 354.1416 101.1089)" class="R S">NY</text><path d="M372.8,87.7H392v19.2h-19.2V87.7z" class="V W"/><text transform="matrix(.894 0 0 1 375.8076 101.1089)" class="R S">NC</text><use xlink:href="#C" x="263" class="T U"/><text transform="matrix(.894 0 0 1 397.5674 101.1089)" class="R S">VT</text><path d="M440.2,45.4h19.2v19.2h-19.2V45.4z" class="T U"/><text transform="matrix(.894 0 0 1 443.7725 58.8096)" class="R S">AL</text><path d="M461.7 45.4H481v19.2h-19.2l-.1-19.2z" class="T U"/><text transform="matrix(.894 0 0 1 464.7812 58.8096)" class="R S">AR</text><path d="M483.3,45.4h19.2v19.3h-19.2V45.4z" class="V W"/><text transform="matrix(.894 0 0 1 486.8926 58.7988)" class="R S">LA</text><use xlink:href="#B" x="265.7" class="V W"/><text transform="matrix(.894 0 0 1 443.9512 79.9639)" class="R S">MI</text><use xlink:href="#B" x="-43" class="T U"/><text transform="matrix(.894 0 0 1 134.1138 79.959)" class="R S">MS</text><use xlink:href="#B" x="308.8" class="V W"/><text transform="matrix(.894 0 0 1 486.9336 79.9639)" class="R S">NJ</text><path d="M504.5,66.6h19.3v19.2h-19.3V66.6z" class="T U"/><text transform="matrix(.894 0 0 1 506.9746 79.959)" class="R S">OH</text><path d="M440.2,87.7h19.2V107h-19.2V87.7z" class="V W"/><text transform="matrix(.894 0 0 1 442.9648 101.1089)" class="R S">OR</text><path d="M461.8,87.7H481v19.2h-19.2V87.7z" class="T U"/><text transform="matrix(.894 0 0 1 464.7822 101.1089)" class="R S">TX</text><path d="M483.3,87.7h19.2V107h-19.2V87.7z" class="V W"/><text transform="matrix(.894 0 0 1 484.999 101.1089)" class="R S">WA</text><path d="M547.4,45.4h19.2v19.3h-19.2V45.4z" class="V W"/><text transform="matrix(.894 0 0 1 550.7422 58.8145)" class="R S">CA</text><use xlink:href="#B" x="372.8" class="V W"/><text transform="matrix(.894 0 0 1 550.5176 79.9595)" class="R S">DE</text><use xlink:href="#B" x="394.4" class="V W"/><text transform="matrix(.894 0 0 1 572.0361 79.9595)" class="R S">DC</text><use xlink:href="#B" x="416" class="V W"/><text transform="matrix(.894 0 0 1 593.6836 79.9595)" class="R S">KS</text><use xlink:href="#C" x="416" class="T U"/><text transform="matrix(.894 0 0 1 549.4375 101.1094)" class="R S">MD</text><use xlink:href="#C" x="437.5" class="V W"/><text transform="matrix(.894 0 0 1 571.7422 101.1094)" class="R S">NV</text><use xlink:href="#C" x="459.1" class="V W"/><text transform="matrix(.894 0 0 1 593.7607 101.1094)" class="R S">PA</text><path d="M612,87.7h19.2v19.2H612V87.7z" class="V W"/><text transform="matrix(.894 0 0 1 616.5088 101.1094)" class="R S">RI</text><path d="M131.4,24.2h19.2v19.3h-19.2V24.2z" class="T U"/><text transform="matrix(.894 0 0 1 134.8579 37.6597)" class="R S">AZ</text><text transform="translate(252.82 13.621)" class="R Z">States with</text><path d="M310.7,5.7h9.6v9.6h-9.6V5.7z" class="T U b"/><text transform="translate(397.26 13.621)" class="R Z">Democratic</text><path d="M384.3,5.7h9.6v9.6h-9.6V5.7z" fill="#3d59a8" class="T b"/><text transform="translate(323.683 13.621)" class="R Z">Republican</text><text transform="translate(457.007 13.621)" class="R Z">governors</text><defs ><path id="B" d="M174.5,66.5h19.2v19.3h-19.2V66.5z"/><path id="C" d="M131.4,87.7h19.2v19.2h-19.2V87.7z"/></defs></svg>