<svg xmlns="http://www.w3.org/2000/svg" xmlns:xlink="http://www.w3.org/1999/xlink" viewBox="0 0 650 154.76" xmlns:v="https://vecta.io/nano"><style><![CDATA[.L{font-size:10px}.M{opacity:.5}.N{font-family:IBMPlexSerif-Bold}.O{fill:#3d59a8}.P{fill:#c54343}.Q{font-size:12px}.R{font-family:IBMPlexSerif}.S{font-family:IBMPlexSerif-Light}.T{fill:#6d6e71}]]></style><text transform="translate(4.118 13.37)" font-family="IBMPlexSerif-SemiBold" class="Q">How politics impacts mask policies</text><g fill="none" stroke="#6d6e71" stroke-width=".5" stroke-miterlimit="10"><path d="M9.77 111.53h.5"/><path d="M11.27 111.53H634.4" stroke-dasharray="0.9994,0.9994"/><path d="M634.9 111.53h.5"/></g><g class="T"><path d="M7.65 111.53l3 1.22-.7-1.22.7-1.22zm629.55 0c-.85.32-1.9.86-2.56 1.43l.52-1.43-.52-1.43c.65.57 1.7 1.1 2.56 1.43z"/><text transform="translate(7.653 40.174)" class="L S">Least strict</text><text transform="translate(587.981 40.173)" class="L S">Most strict</text></g><text><tspan x="9.204" y="125.865" class="Q R">Encouraged or</tspan><tspan x="9.254" y="139.365" class="Q R">recommended</tspan><tspan x="118.055" y="125.865" class="Q R">Required in</tspan><tspan x="119.435" y="139.365" class="Q R">some cities</tspan><tspan x="119.555" y="152.865" class="Q R">or counties</tspan><tspan x="225.418" y="125.865" class="Q R">Required in </tspan><tspan x="221.798" y="139.365" class="Q R">indoor public</tspan><tspan x="241.138" y="152.865" class="Q R">spaces</tspan><tspan x="338.748" y="125.865" class="Q R">Required in </tspan><tspan x="317.278" y="139.365" class="Q R">public when unable</tspan><tspan x="342.398" y="152.865" class="Q R">to distance</tspan><tspan x="452.459" y="125.865" class="Q R">Required in</tspan><tspan x="444.449" y="139.365" class="Q R">public indoors</tspan><tspan x="454.739" y="152.865" class="Q R">at all times</tspan><tspan x="547.46" y="125.865" class="Q R">Required in all</tspan><tspan x="550.62" y="139.365" class="Q R">public spaces</tspan></text><path d="M20.44 87.7H39.7v19.25H20.44z" class="M P"/><text transform="matrix(.894 0 0 1 23.7275 101.1087)" class="L N">SD</text><path d="M42 87.7h19.25v19.25H42z" class="M P"/><text transform="matrix(.894 0 0 1 44.5575 101.1087)" class="L N">ND</text><path d="M63.55 87.7H82.8v19.25H63.55z" class="M P"/><text transform="matrix(.894 0 0 1 65.3021 101.1087)" class="L N">WY</text><path d="M109.86 24.24h19.25V43.5h-19.25z" class="M P"/><text transform="matrix(.894 0 0 1 113.2977 37.6597)" class="L N">AZ</text><use xlink:href="#B" class="M P"/><text transform="matrix(.894 0 0 1 113.7447 58.8095)" class="L N">FL</text><use xlink:href="#B" x="21.56" class="M P"/><text transform="matrix(.894 0 0 1 134.2885 58.8095)" class="L N">GA</text><use xlink:href="#B" x="42.87" class="M P"/><text transform="matrix(.894 0 0 1 157.135 58.8093)" class="L N">ID</text><use xlink:href="#B" x="64.42" class="M P"/><text transform="matrix(.894 0 0 1 178.944 58.8093)" class="L N">IA</text><use xlink:href="#C" class="M P"/><text transform="matrix(.894 0 0 1 111.921 79.9591)" class="L N">MO</text><use xlink:href="#C" x="21.56" class="M O"/><text transform="matrix(.894 0 0 1 133.6893 79.9591)" class="L N">MT</text><use xlink:href="#C" x="43.11" class="M P"/><text transform="matrix(.894 0 0 1 155.9811 79.9591)" class="L N">NE</text><use xlink:href="#C" x="64.67" class="M P"/><text transform="matrix(.894 0 0 1 176.8333 79.9589)" class="L N">NH</text><use xlink:href="#B" y="42.3" class="M P"/><text transform="matrix(.894 0 0 1 112.4975 101.1087)" class="L N">OK</text><use xlink:href="#B" x="21.56" y="42.3" class="M P"/><text transform="matrix(.894 0 0 1 135.1156 101.1087)" class="L N">SC</text><use xlink:href="#B" x="43.11" y="42.3" class="M P"/><text transform="matrix(.894 0 0 1 155.722 101.1087)" class="L N">TN</text><use xlink:href="#B" x="64.67" y="42.3" class="M P"/><text transform="matrix(.894 0 0 1 177.37 101.1087)" class="L N">UT</text><use xlink:href="#C" x="108.16" class="M O"/><text transform="matrix(.894 0 0 1 221.1262 79.9591)" class="L N">CO</text><use xlink:href="#C" x="129.71" class="M O"/><text transform="matrix(.894 0 0 1 243.7311 79.9591)" class="L N">HI</text><use xlink:href="#C" x="151.27" class="M O"/><text transform="matrix(.894 0 0 1 263.0499 79.959)" class="L N">MN</text><use xlink:href="#B" x="108.16" y="42.3" class="M O"/><text transform="matrix(.894 0 0 1 221.14 101.1087)" class="L N">PR</text><use xlink:href="#B" x="129.71" y="42.3" class="M O"/><text transform="matrix(.894 0 0 1 242.8146 101.1087)" class="L N">VA</text><use xlink:href="#B" x="151.27" y="42.3" class="M P"/><text transform="matrix(.894 0 0 1 262.8444 101.1087)" class="L N">WV</text><use xlink:href="#B" x="172.82" y="42.3" class="M O"/><text transform="matrix(.894 0 0 1 285.8198 101.1087)" class="L N">WI</text><use xlink:href="#B" x="219.87" class="M O"/><text transform="matrix(.894 0 0 1 333.0481 58.8093)" class="L N">CT</text><use xlink:href="#B" x="241.42" class="M O"/><text transform="matrix(.894 0 0 1 356.3141 58.8093)" class="L N">IL</text><use xlink:href="#C" x="219.87" class="M P"/><text transform="matrix(.894 0 0 1 333.9778 79.9591)" class="L N">IN</text><use xlink:href="#C" x="241.42" class="M O"/><text transform="matrix(.894 0 0 1 354.2399 79.9591)" class="L N">KY</text><use xlink:href="#C" x="262.97" class="M O"/><text transform="matrix(.894 0 0 1 375.3648 79.9591)" class="L N">ME</text><path d="M394.4 66.54h19.25V85.8H394.4z" class="M P"/><text transform="matrix(.894 0 0 1 396.7221 79.9591)" class="L N">MA</text><use xlink:href="#B" x="219.87" y="42.3" class="M O"/><text transform="matrix(.894 0 0 1 331.6487 101.1089)" class="L N">NM</text><use xlink:href="#B" x="241.42" y="42.3" class="M O"/><text transform="matrix(.894 0 0 1 354.1418 101.1089)" class="L N">NY</text><use xlink:href="#B" x="262.97" y="42.3" class="M O"/><text transform="matrix(.894 0 0 1 375.8077 101.1089)" class="L N">NC</text><path d="M394.4 87.7h19.25v19.25H394.4z" class="M P"/><text transform="matrix(.894 0 0 1 397.5674 101.1089)" class="L N">VT</text><use xlink:href="#B" x="330.32" class="M P"/><text transform="matrix(.894 0 0 1 443.7725 58.8093)" class="L N">AL</text><use xlink:href="#B" x="351.87" class="M P"/><text transform="matrix(.894 0 0 1 464.7812 58.8093)" class="L N">AR</text><use xlink:href="#C" x="330.32" class="M O"/><text transform="matrix(.894 0 0 1 443.7726 79.9591)" class="L N">LA</text><use xlink:href="#C" x="351.87" class="M O"/><text transform="matrix(.894 0 0 1 465.5054 79.9591)" class="L N">MI</text><path d="M483.3 66.54h19.25V85.8H483.3z" class="M P"/><text transform="matrix(.894 0 0 1 485.933 79.9591)" class="L N">MS</text><use xlink:href="#C" x="394.98" class="M O"/><text transform="matrix(.894 0 0 1 508.4886 79.9591)" class="L N">NJ</text><use xlink:href="#B" x="330.32" y="42.3" class="M P"/><text transform="matrix(.894 0 0 1 442.6192 101.1089)" class="L N">OH</text><use xlink:href="#B" x="351.87" y="42.3" class="M O"/><text transform="matrix(.894 0 0 1 464.5044 101.1089)" class="L N">OR</text><path d="M483.3 87.7h19.25v19.25H483.3z" class="M P"/><text transform="matrix(.894 0 0 1 486.3221 101.1089)" class="L N">TX</text><use xlink:href="#B" x="394.98" y="42.3" class="M O"/><text transform="matrix(.894 0 0 1 506.5394 101.1089)" class="L N">WA</text><use xlink:href="#C" x="437.5" class="M O"/><text transform="matrix(.894 0 0 1 550.7421 79.9594)" class="L N">CA</text><path d="M568.9 66.54h19.25V85.8H568.9z" class="M O"/><text transform="matrix(.894 0 0 1 572.077 79.9594)" class="L N">DE</text><use xlink:href="#C" x="480.6" class="M O"/><text transform="matrix(.894 0 0 1 593.5955 79.9594)" class="L N">DC</text><use xlink:href="#C" x="502.16" class="M O"/><text transform="matrix(.894 0 0 1 615.2433 79.9594)" class="L N">KS</text><use xlink:href="#B" x="437.5" y="42.3" class="M P"/><text transform="matrix(.894 0 0 1 549.437 101.1092)" class="L N">MD</text><path d="M568.9 87.7h19.25v19.25H568.9z" class="M O"/><text transform="matrix(.894 0 0 1 571.7421 101.1092)" class="L N">NV</text><use xlink:href="#B" x="480.6" y="42.3" class="M O"/><text transform="matrix(.894 0 0 1 593.761 101.1092)" class="L N">PA</text><use xlink:href="#B" x="502.16" y="42.3" class="M O"/><text transform="matrix(.894 0 0 1 616.5084 101.1092)" class="L N">RI</text><text transform="translate(237.257 14.381)" class="L S">States with </text><path d="M295.14 6.5h9.63v9.63h-9.63z" class="M P"/><text transform="translate(381.697 14.381)" class="L S">Democratic</text><path d="M368.7 6.5h9.63v9.63h-9.63z" class="M O"/><text transform="translate(308.12 14.381)" class="L S">Republican</text><text transform="translate(441.444 14.381)" class="L S">governors</text><defs ><path id="B" d="M109.86 45.4h19.25v19.25h-19.25z"/><path id="C" d="M109.86 66.54h19.25V85.8h-19.25z"/></defs></svg>