<svg xmlns="http://www.w3.org/2000/svg" viewBox="0 0 300 413.2" xmlns:v="https://vecta.io/nano"><style><![CDATA[.M{font-size:10px}.N{enable-background:new}.O{font-family:IBMPlexSerif-Bold}.P{opacity:.5}.Q{fill:#c54343}.R{opacity:.4}.S{fill:#3636ad}.T{font-size:12px}.U{font-family:IBMPlexSerif}.V{font-family:IBMPlexSerif-Light}.W{fill:#6d6e71}]]></style><text transform="translate(3.796 15.461)" font-family="IBMPlexSerif-SemiBold" class="T">How strict are states’ mask policies?</text><g fill="none" stroke="#6d6e71" stroke-width=".5" stroke-miterlimit="10"><path d="M4.6 27.3v.5"/><path d="M4.6,29.8v377.1" stroke-dasharray="1.0017,1.0017"/><path d="M4.6 406.3v.5"/></g><path d="M4.6 25.1l-1.2 3 1.2-.7 1.2.7-1.2-3zm0 384.5c-.3-.9-.9-2.9-1.4-3.6l1.4.5L6 406c-.5.7-1.1 2.8-1.4 3.6z" class="W"/><text transform="translate(10.036 38.584)" class="M V W">Least strict</text><text transform="translate(10.036 402.374)" class="M V W">Most strict</text><text transform="translate(10.035 56.059)" class="T U">Encouraged or recommended</text><text transform="translate(10.036 99.953)" class="T U">Required in some cities or counties</text><text transform="translate(10.035 167.484)" class="T U">Required in all indoor public spaces when unable</text><text transform="translate(10.035 181.884)" class="T U">to distance</text><text transform="translate(10.036 230.405)" class="T U">Required in all public spaces when unable to </text><text transform="translate(10.036 243.905)" class="T U">distance</text><text transform="translate(10.035 294.296)" class="T U">Required in all indoor public spaces and outdoors</text><text transform="translate(10.035 307.796)" class="T U">when unable to distance</text><text transform="translate(10.035 357.453)" class="T U">Required in all public spaces</text><path d="M10.3,62.2h19.2v19.2H10.3V62.2z" class="N P Q"/><text transform="matrix(.894 0 0 1 13.6016 75.6533)" class="M O">SD</text><path d="M31.9,62.2h19.3v19.2H31.9V62.2z" class="N P Q"/><text transform="matrix(.894 0 0 1 34.4316 75.6533)" class="M O">ND</text><path d="M53.4,62.2h19.2v19.2H53.4V62.2z" class="N P Q"/><text transform="matrix(.894 0 0 1 55.1763 75.6533)" class="M O">WY</text><path d="M31.9,105.5h19.2v19.3H31.9V105.5z" class="N P Q"/><text transform="matrix(.894 0 0 1 35.3037 118.9019)" class="M O">AZ</text><path d="M53.4,105.5h19.3v19.3H53.4V105.5z" class="N P Q"/><text transform="matrix(.894 0 0 1 57.3101 118.9019)" class="M O">FL</text><path d="M75,105.5h19.2v19.3H75V105.5z" class="N P Q"/><text transform="matrix(.894 0 0 1 77.8535 118.9019)" class="M O">GA</text><path d="M96.5,105.5h19.2v19.3H96.5V105.5z" class="N P Q"/><text transform="matrix(.894 0 0 1 100.9453 118.9019)" class="M O">ID</text><path d="M118.1 105.5h19.2v19.3h-19.2c0 0 0-19.3 0-19.3z" class="N P Q"/><text transform="matrix(.894 0 0 1 122.7544 118.9019)" class="M O">IA</text><path d="M139.7,105.5H159v19.3h-19.3V105.5z" class="N P Q"/><text transform="matrix(.894 0 0 1 141.7026 118.9019)" class="M O">MO</text><path d="M97.7,314.6h19.2v19.2H97.7V314.6z" class="N R S"/><text transform="matrix(.894 0 0 1 99.9756 328.0059)" class="M O">MT</text><path d="M182.9,105.5h19.2v19.3h-19.2V105.5z" class="N P Q"/><text transform="matrix(.894 0 0 1 185.917 118.9019)" class="M O">NE</text><path d="M204.5,105.5h19.2v19.3h-19.2V105.5z" class="N P Q"/><text transform="matrix(.894 0 0 1 206.769 118.9019)" class="M O">NH</text><path d="M10.3,127.1h19.2v19.2H10.3V127.1z" class="N P Q"/><text transform="matrix(.894 0 0 1 12.9507 140.5454)" class="M O">OK</text><path d="M31.9,127.1h19.2v19.2H31.9V127.1z" class="N P Q"/><text transform="matrix(.894 0 0 1 35.5684 140.5454)" class="M O">SC</text><path d="M53.4,127.1h19.2v19.2H53.4V127.1z" class="N P Q"/><text transform="matrix(.894 0 0 1 56.1748 140.5454)" class="M O">TN</text><path d="M75,127.1h19.2v19.2H75V127.1z" class="N P Q"/><text transform="matrix(.894 0 0 1 77.8228 140.5454)" class="M O">UT</text><path d="M10.3,190.2h19.2v19.2H10.3V190.2z" class="N R S"/><text transform="matrix(.894 0 0 1 13.4272 203.6001)" class="M O">CO</text><path d="M31.9,190.2h19.3v19.2H31.9V190.2z" class="N R S"/><text transform="matrix(.894 0 0 1 36.0322 203.6001)" class="M O">HI</text><path d="M53.4,190.2h19.2v19.2H53.4V190.2z" class="N R S"/><text transform="matrix(.894 0 0 1 55.3506 203.6001)" class="M O">MN</text><path d="M205.5,364.6h19.2v19.2h-19.2V364.6z" class="N R S"/><text transform="matrix(.894 0 0 1 208.583 378.0195)" class="M O">PR</text><path d="M75,190.2h19.2v19.2H75V190.2z" class="N R S"/><text transform="matrix(.894 0 0 1 78.2227 203.6001)" class="M O">VA</text><path d="M96.5,190.2h19.2v19.2H96.5V190.2z" class="N P Q"/><text transform="matrix(.894 0 0 1 98.2529 203.6001)" class="M O">WV</text><path d="M205.5,314.6h19.2v19.2h-19.2V314.6z" class="N R S"/><text transform="matrix(.894 0 0 1 208.6035 328)" class="M O">WI</text><path d="M11.5,249.9h19.2v19.2H11.5V249.9z" class="N R S"/><text transform="matrix(.894 0 0 1 14.7935 263.2842)" class="M O">CT</text><path d="M33,249.9h19.2v19.2H33V249.9z" class="N R S"/><text transform="matrix(.894 0 0 1 38.0591 263.2842)" class="M O">IL</text><path d="M54.6,249.9h19.2v19.2H54.6V249.9z" class="N P Q"/><text transform="matrix(.894 0 0 1 58.8311 263.2842)" class="M O">IN</text><path d="M76.1,249.9h19.2v19.2H76.1V249.9z" class="N R S"/><text transform="matrix(.894 0 0 1 79.0933 263.2842)" class="M O">KY</text><path d="M97.7,249.9h19.2v19.2H97.7V249.9z" class="N R S"/><text transform="matrix(.894 0 0 1 100.2183 263.2842)" class="M O">ME</text><path d="M97.7,364.6h19.2v19.2H97.7V364.6z" class="N P Q"/><text transform="matrix(.894 0 0 1 100.0356 378.0244)" class="M O">MA</text><path d="M119.2,249.9h19.2v19.2h-19.2V249.9z" class="N R S"/><text transform="matrix(.894 0 0 1 121.1685 263.2842)" class="M O">NM</text><path d="M140.8,249.9H160v19.2h-19.2V249.9z" class="N R S"/><text transform="matrix(.894 0 0 1 143.6616 263.2842)" class="M O">NY</text><path d="M162.3,249.9h19.2v19.2h-19.2V249.9z" class="N R S"/><text transform="matrix(.894 0 0 1 165.3276 263.2842)" class="M O">NC</text><path d="M183.9,249.9h19.2v19.2h-19.2V249.9z" class="N P Q"/><text transform="matrix(.894 0 0 1 187.0874 263.2842)" class="M O">VT</text><path d="M11.5,314.6h19.2v19.2H11.5V314.6z" class="N P Q"/><text transform="matrix(.894 0 0 1 15.0659 328.0029)" class="M O">AL</text><path d="M33,314.6h19.2v19.2H33V314.6z" class="N P Q"/><text transform="matrix(.894 0 0 1 36.0742 328.0029)" class="M O">AR</text><path d="M54.6,314.6h19.2v19.2H54.6V314.6z" class="N R S"/><text transform="matrix(.894 0 0 1 58.1738 328.0029)" class="M O">LA</text><path d="M76.1,314.6h19.2v19.2H76.1V314.6z" class="N R S"/><text transform="matrix(.894 0 0 1 79.9067 328.0029)" class="M O">MI</text><path d="M161.2,105.5h19.2v19.2h-19.2V105.5z" class="N P Q"/><text transform="matrix(.894 0 0 1 163.8369 118.8994)" class="M O">MS</text><path d="M140.8,364.6H160v19.2h-19.2V364.6z" class="N R S"/><text transform="matrix(.894 0 0 1 144.4502 378.0234)" class="M O">NJ</text><path d="M119.2,314.6h19.2v19.2h-19.2V314.6z" class="N P Q"/><text transform="matrix(.894 0 0 1 121.6875 328.0029)" class="M O">OH</text><path d="M140.8,314.6H160v19.2h-19.2V314.6z" class="N R S"/><text transform="matrix(.894 0 0 1 143.5723 328.0029)" class="M O">OR</text><path d="M162.3,314.6h19.2v19.2h-19.2V314.6z" class="N P Q"/><text transform="matrix(.894 0 0 1 165.3901 328.0029)" class="M O">TX</text><path d="M183.9,314.6h19.2v19.2h-19.2V314.6z" class="N R S"/><text transform="matrix(.894 0 0 1 185.6074 328.0029)" class="M O">WA</text><path d="M11.5,364.6h19.2v19.2H11.5V364.6z" class="N R S"/><text transform="matrix(.894 0 0 1 14.856 378.0205)" class="M O">CA</text><path d="M33,364.6h19.2v19.2H33V364.6z" class="N R S"/><text transform="matrix(.894 0 0 1 36.1904 378.0205)" class="M O">DE</text><path d="M54.6,364.6h19.2v19.2H54.6V364.6z" class="N R S"/><text transform="matrix(.894 0 0 1 57.709 378.0205)" class="M O">DC</text><path d="M76.1,364.6h19.2v19.2H76.1V364.6z" class="N R S"/><text transform="matrix(.894 0 0 1 79.3569 378.0205)" class="M O">KS</text><path d="M119.2,364.6h19.2v19.2h-19.2V364.6z" class="N P Q"/><text transform="matrix(.894 0 0 1 121.312 378.0205)" class="M O">MD</text><path d="M162.3,364.6h19.2v19.2h-19.2V364.6z" class="N R S"/><text transform="matrix(.894 0 0 1 165.1724 378.0205)" class="M O">NV</text><path d="M183.9,364.6h19.2v19.2h-19.2V364.6z" class="N R S"/><text transform="matrix(.894 0 0 1 187.1909 378.0205)" class="M O">PA</text><path d="M227.2,364.6h19.2v19.2h-19.2V364.6z" class="N R S"/><text transform="matrix(.894 0 0 1 231.6577 378.0205)" class="M O">RI</text><path d="M10.3,105.5h19.2v19.3H10.3V105.5z" class="N P Q"/><text transform="matrix(.894 0 0 1 13.7539 118.9019)" class="M O">AK</text><text transform="translate(231.657 28.1)" class="M V">States with</text><path d="M225.2,34.8h9.6v9.6h-9.6V34.8z" class="N P Q"/><text transform="translate(238.149 56.9)" class="M V">Democratic</text><path d="M225.2,48.8h9.6v9.6h-9.6V48.8z" fill="#3d59a8" class="N P"/><text transform="translate(238.149 42.664)" class="M V">Republican</text><text transform="translate(234.79 69.602)" class="M V">governors</text></svg>