<svg xmlns="http://www.w3.org/2000/svg" viewBox="0 0 300 356.04" xmlns:v="https://vecta.io/nano"><style><![CDATA[.L{font-size:10px}.M{opacity:.5}.N{font-family:IBMPlexSerif-Bold}.O{fill:#3d59a8}.P{fill:#c54343}.Q{font-size:12px}.R{font-family:IBMPlexSerif}.S{font-family:IBMPlexSerif-Light}.T{fill:#6d6e71}]]></style><text transform="translate(3.796 15.461)" font-family="IBMPlexSerif-SemiBold" class="Q">How politics impacts mask policies</text><g fill="none" stroke="#6d6e71" stroke-width=".5" stroke-miterlimit="10"><path d="M4.63 22.26v.5"/><path d="M4.63 23.76v325.07" stroke-dasharray="0.9987,0.9987"/><path d="M4.63 349.33v.5"/></g><g class="T"><path d="M4.63 20.14L3.4 23.12l1.22-.7 1.22.7zm0 331.5c-.32-.85-.86-1.9-1.43-2.56l1.43.52 1.43-.52c-.58.65-1.12 1.7-1.43 2.56z"/><text transform="translate(10.036 33.583)" class="L S">Least strict</text><text transform="translate(10.036 346.369)" class="L S">Most strict</text></g><text transform="translate(10.035 50.058)" class="Q R">Encouraged or recommended</text><text transform="translate(10.036 92.953)" class="Q R">Required in some cities or counties</text><text transform="translate(10.035 137.482)" class="Q R">Required in indoor public spaces</text><text><tspan x="10.036" y="183.4" class="Q R">Required in all public spaces when unable to </tspan><tspan y="196.9" x="10.036" class="Q R">maintain distancing</tspan><tspan x="10.035" y="244.291" class="Q R">Required in indoor public spaces at all times and</tspan><tspan y="257.791" x="10.035" class="Q R">outdoors when unable to maintain distancing</tspan></text><text transform="translate(10.035 304.448)" class="Q R">Required in all public spaces</text><path d="M10.32 56.23h19.25v19.25H10.32z" class="M P"/><text transform="matrix(.894 0 0 1 13.6013 69.6528)" class="L N">SD</text><path d="M31.87 56.23h19.25v19.25H31.87z" class="M P"/><text transform="matrix(.894 0 0 1 34.4313 69.6528)" class="L N">ND</text><path d="M53.43 56.23h19.25v19.25H53.43z" class="M P"/><text transform="matrix(.894 0 0 1 55.1763 69.6528)" class="L N">WY</text><path d="M10.32 98.48h19.25v19.25H10.32z" class="M P"/><text transform="matrix(.894 0 0 1 13.7537 111.9013)" class="L N">AZ</text><path d="M31.87 98.48h19.25v19.25H31.87z" class="M P"/><text transform="matrix(.894 0 0 1 35.7546 111.9013)" class="L N">FL</text><path d="M53.43 98.48h19.25v19.25H53.43z" class="M P"/><text transform="matrix(.894 0 0 1 56.2984 111.9013)" class="L N">GA</text><path d="M74.98 98.48h19.25v19.25H74.98z" class="M P"/><text transform="matrix(.894 0 0 1 79.3901 111.9013)" class="L N">ID</text><path d="M96.54 98.48h19.25v19.25H96.54z" class="M P"/><text transform="matrix(.894 0 0 1 101.1991 111.9013)" class="L N">IA</text><path d="M118.1 98.48h19.25v19.25H118.1z" class="M P"/><text transform="matrix(.894 0 0 1 120.1472 111.9013)" class="L N">MO</text><path d="M139.64 98.48h19.25v19.25h-19.25z" class="M O"/><text transform="matrix(.894 0 0 1 141.9155 111.9013)" class="L N">MT</text><path d="M161.2 98.48h19.25v19.25H161.2z" class="M P"/><text transform="matrix(.894 0 0 1 164.2074 111.9013)" class="L N">NE</text><path d="M182.75 98.48H202v19.25h-19.25z" class="M P"/><text transform="matrix(.894 0 0 1 185.0594 111.9013)" class="L N">NH</text><path d="M204.3 98.48h19.25v19.25H204.3z" class="M P"/><text transform="matrix(.894 0 0 1 206.9402 111.9013)" class="L N">OK</text><path d="M225.86 98.48h19.25v19.25h-19.25z" class="M P"/><text transform="matrix(.894 0 0 1 229.5582 111.9013)" class="L N">SC</text><path d="M247.4 98.48h19.25v19.25H247.4z" class="M P"/><text transform="matrix(.894 0 0 1 250.1647 111.9013)" class="L N">TN</text><path d="M268.97 98.48h19.25v19.25h-19.25z" class="M P"/><text transform="matrix(.894 0 0 1 271.8126 111.9013)" class="L N">UT</text><path d="M10.32 143.17h19.25v19.25H10.32z" class="M O"/><text transform="matrix(.894 0 0 1 13.427 156.5954)" class="L N">CO</text><path d="M31.87 143.17h19.25v19.25H31.87z" class="M O"/><text transform="matrix(.894 0 0 1 36.0319 156.5954)" class="L N">HI</text><path d="M53.43 143.17h19.25v19.25H53.43z" class="M O"/><text transform="matrix(.894 0 0 1 55.3507 156.5954)" class="L N">MN</text><path d="M74.98 143.17h19.25v19.25H74.98z" class="M O"/><text transform="matrix(.894 0 0 1 78.103 156.5954)" class="L N">PR</text><path d="M96.54 143.17h19.25v19.25H96.54z" class="M O"/><text transform="matrix(.894 0 0 1 99.7777 156.5954)" class="L N">VA</text><path d="M118.1 143.17h19.25v19.25H118.1z" class="M P"/><text transform="matrix(.894 0 0 1 119.8074 156.5954)" class="L N">WV</text><path d="M139.64 143.17h19.25v19.25h-19.25z" class="M O"/><text transform="matrix(.894 0 0 1 142.7829 156.5954)" class="L N">WI</text><path d="M11.47 202.86h19.25v19.25H11.47z" class="M O"/><text transform="matrix(.894 0 0 1 14.7932 216.2793)" class="L N">CT</text><path d="M33.02 202.86h19.25v19.25H33.02z" class="M O"/><text transform="matrix(.894 0 0 1 38.0592 216.2793)" class="L N">IL</text><path d="M54.58 202.86h19.25v19.25H54.58z" class="M P"/><text transform="matrix(.894 0 0 1 58.8311 216.2793)" class="L N">IN</text><path d="M76.13 202.86h19.25v19.25H76.13z" class="M O"/><text transform="matrix(.894 0 0 1 79.0932 216.2793)" class="L N">KY</text><path d="M97.7 202.86h19.25v19.25H97.7z" class="M O"/><text transform="matrix(.894 0 0 1 100.2181 216.2793)" class="L N">ME</text><path d="M119.24 202.86h19.25v19.25h-19.25z" class="M P"/><text transform="matrix(.894 0 0 1 121.5755 216.2793)" class="L N">MA</text><path d="M140.8 202.86h19.25v19.25H140.8z" class="M O"/><text transform="matrix(.894 0 0 1 142.7184 216.2793)" class="L N">NM</text><path d="M162.35 202.86h19.25v19.25h-19.25z" class="M O"/><text transform="matrix(.894 0 0 1 165.2115 216.2793)" class="L N">NY</text><path d="M183.9 202.86h19.25v19.25H183.9z" class="M O"/><text transform="matrix(.894 0 0 1 186.8774 216.2793)" class="L N">NC</text><path d="M205.46 202.86h19.25v19.25h-19.25z" class="M P"/><text transform="matrix(.894 0 0 1 208.6371 216.2793)" class="L N">VT</text><path d="M11.47 264.58h19.25v19.25H11.47z" class="M P"/><text transform="matrix(.894 0 0 1 15.0657 277.9981)" class="L N">AL</text><path d="M33.02 264.58h19.25v19.25H33.02z" class="M P"/><text transform="matrix(.894 0 0 1 36.0744 277.9981)" class="L N">AR</text><path d="M54.58 264.58h19.25v19.25H54.58z" class="M O"/><text transform="matrix(.894 0 0 1 58.1739 277.9981)" class="L N">LA</text><path d="M76.13 264.58h19.25v19.25H76.13z" class="M O"/><text transform="matrix(.894 0 0 1 79.9067 277.9981)" class="L N">MI</text><path d="M97.7 264.58h19.25v19.25H97.7z" class="M P"/><text transform="matrix(.894 0 0 1 100.3344 277.9981)" class="L N">MS</text><path d="M119.24 264.58h19.25v19.25h-19.25z" class="M O"/><text transform="matrix(.894 0 0 1 122.8899 277.9981)" class="L N">NJ</text><path d="M140.8 264.58h19.25v19.25H140.8z" class="M P"/><text transform="matrix(.894 0 0 1 143.237 277.9981)" class="L N">OH</text><path d="M162.35 264.58h19.25v19.25h-19.25z" class="M O"/><text transform="matrix(.894 0 0 1 165.1221 277.9981)" class="L N">OR</text><path d="M183.9 264.58h19.25v19.25H183.9z" class="M P"/><text transform="matrix(.894 0 0 1 186.9399 277.9981)" class="L N">TX</text><path d="M205.46 264.58h19.25v19.25h-19.25z" class="M O"/><text transform="matrix(.894 0 0 1 207.1571 277.9981)" class="L N">WA</text><path d="M11.47 310.6h19.25v19.25H11.47z" class="M O"/><text transform="matrix(.894 0 0 1 14.8557 324.0153)" class="L N">CA</text><path d="M33.02 310.6h19.25v19.25H33.02z" class="M O"/><text transform="matrix(.894 0 0 1 36.1906 324.0153)" class="L N">DE</text><path d="M54.58 310.6h19.25v19.25H54.58z" class="M O"/><text transform="matrix(.894 0 0 1 57.709 324.0153)" class="L N">DC</text><path d="M76.13 310.6h19.25v19.25H76.13z" class="M O"/><text transform="matrix(.894 0 0 1 79.3569 324.0153)" class="L N">KS</text><path d="M97.7 310.6h19.25v19.25H97.7z" class="M P"/><text transform="matrix(.894 0 0 1 99.767 324.0153)" class="L N">MD</text><path d="M119.24 310.6h19.25v19.25h-19.25z" class="M O"/><text transform="matrix(.894 0 0 1 122.0721 324.0153)" class="L N">NV</text><path d="M140.8 310.6h19.25v19.25H140.8z" class="M O"/><text transform="matrix(.894 0 0 1 144.091 324.0153)" class="L N">PA</text><path d="M162.35 310.6h19.25v19.25h-19.25z" class="M O"/><text transform="matrix(.894 0 0 1 166.8384 324.0153)" class="L N">RI</text><text transform="translate(225.86 24.164)" class="L S">States with </text><path d="M219.37 30.85H229v9.63h-9.63z" class="M P"/><text transform="translate(232.352 52.964)" class="L S">Democratic</text><path d="M219.37 44.84H229v9.63h-9.63z" class="M O"/><text transform="translate(232.352 38.728)" class="L S">Republican</text><text transform="translate(228.993 65.666)" class="L S">governors</text></svg>