<svg xmlns="http://www.w3.org/2000/svg" viewBox="0 0 650 362.75" xmlns:v="https://vecta.io/nano"><style><![CDATA[.H{font-family:IBMPlexSerif-Light}.I{font-size:12px}.J{font-size:11px}.K{opacity:.4}.L{fill:#d87373}.M{font-family:IBMPlexSerif}]]></style><text transform="translate(6.796 15.903)" font-family="IBMPlexSerif-SemiBold" class="I">Largest Migration Events</text><text transform="translate(11.389 39.148)" class="I M">Interval</text><text transform="translate(141.449 39.148)" class="I M">Country or Territory</text><text transform="translate(339.828 39.148)" class="I M">Migration Increase</text><text transform="translate(516.328 39.148)" class="I M">Likely Cause</text><path d="M5 45.37h636.74v16.35H5z" class="K L"/><text transform="translate(12.254 56.92)" class="H J">1990-95</text><text transform="translate(164.8 57.226)" class="H I">Sierra Leone</text><text transform="translate(379.476 56.92)" class="H J">640%</text><text transform="translate(528.376 57.227)" class="H I">Civil war</text><text transform="translate(12.253 76.102)" class="H J">1990-95</text><text transform="translate(167.038 76.102)" class="H I">East Timor*</text><text transform="translate(379.476 76.102)" class="H J">602%</text><text transform="translate(488.71 76.102)" class="H I">Indonesian occupation</text><path d="M5 83.13h636.74v16.35H5z" class="K L"/><text transform="translate(12.337 94.671)" class="H J">2010-15</text><text transform="translate(185.95 94.978)" class="H I">Syria</text><text transform="translate(379.477 94.671)" class="H J">479%</text><text transform="translate(528.376 94.977)" class="H I">Civil war</text><text transform="translate(12.254 113.853)" class="H J">1990-95</text><text transform="translate(179.836 113.853)" class="H I">Bhutan</text><text transform="translate(379.559 113.853)" class="H J">314%</text><text transform="translate(512.2 113.853)" class="H I">Ethnic conflict</text><path d="M5 120.88h636.74v16.35H5z" class="K L"/><text transform="translate(12.254 132.422)" class="H J">1990-95</text><text transform="translate(177.557 132.728)" class="H I">Rwanda</text><text transform="translate(379.477 132.422)" class="H J">276%</text><text transform="translate(528.376 132.729)" class="H I">Civil war</text><text transform="translate(12.337 151.604)" class="H J">2015-19</text><text transform="translate(171.119 151.604)" class="H I">Venezuela</text><text transform="translate(379.477 151.604)" class="H J">260%</text><text transform="translate(508.312 151.604)" class="H I">Economic crisis</text><path d="M5 158.63h636.74v16.35H5z" class="K L"/><text transform="translate(12.338 170.173)" class="H J">2010-15</text><text transform="translate(131.544 170.479)" class="H I">Central African Republic</text><text transform="translate(379.56 170.173)" class="H J">179%</text><text transform="translate(528.377 170.479)" class="H I">Civil war</text><text transform="translate(12.255 189.355)" class="H J">1990-95</text><text transform="translate(178.757 189.355)" class="H I">Albania</text><text transform="translate(379.56 189.355)" class="H J">178%</text><text transform="translate(484.158 189.355)" class="H I">Transition to democracy</text><path d="M5 196.38h636.74v16.35H5z" class="K L"/><text transform="translate(12.336 207.924)" class="H J">2010-15</text><text transform="translate(159.682 208.23)" class="H I">South Sudan**</text><text transform="translate(379.558 207.924)" class="H J">163%</text><text transform="translate(528.375 208.23)" class="H I">Civil war</text><path d="M5 215.25h636.74v16.35H5z" class="K L"/><text transform="translate(12.336 226.799)" class="H J">2015-19</text><text transform="translate(164.65 227.105)" class="H I">South Sudan</text><text transform="translate(379.559 226.799)" class="H J">144%</text><text transform="translate(528.376 227.106)" class="H I">Civil war</text><path d="M5 234.13h636.74v16.35H5z" class="K L"/><text transform="translate(12.171 245.674)" class="H J">2000-05</text><text transform="translate(131.543 245.981)" class="H I">Central African Republic</text><text transform="translate(379.559 245.674)" class="H J">137%</text><text transform="translate(528.376 245.981)" class="H I">Civil war</text><text transform="translate(12.172 264.856)" class="H J">2000-05</text><text transform="translate(181.847 264.856)" class="H I">Gabon</text><text transform="translate(379.559 264.856)" class="H J">129%</text><text transform="translate(525.424 264.856)" class="H I">Unknown</text><text transform="translate(12.172 283.732)" class="H J">2000-05</text><text transform="translate(176.963 283.732)" class="H I">Ecuador</text><text transform="translate(379.642 283.732)" class="H J">121%</text><text transform="translate(508.312 283.732)" class="H I">Economic crisis</text><text transform="translate(12.255 302.607)" class="H J">1990-95</text><text transform="translate(181.085 302.608)" class="H I">Eritrea</text><text transform="translate(379.56 302.607)" class="H J">120%</text><text transform="translate(472.74 302.607)" class="H I">Independence from Ethiopia</text><text transform="translate(12.255 321.483)" class="H J">1990-95</text><text transform="translate(178.001 321.483)" class="H I">Bahrain</text><text transform="translate(379.56 321.483)" class="H J">103%</text><text transform="translate(525.424 321.483)" class="H I">Unknown</text><text transform="translate(423.177 338.344)" font-size="8" class="H">* East Timor became independent from Indonesia in 2002.</text><text transform="translate(428.593 349.282)" font-size="8" class="H">**South Sudan became independent from Sudan in 2011.</text><text transform="translate(462.768 359.35)" font-size="8" class="H">Source: The United Nations Population Division</text></svg>