<?xml version="1.0" encoding="utf-8"?>
<!-- Generator: Adobe Illustrator 24.1.2, SVG Export Plug-In . SVG Version: 6.00 Build 0)  -->
<svg version="1.1" id="Layer_1" xmlns="http://www.w3.org/2000/svg" xmlns:xlink="http://www.w3.org/1999/xlink" x="0px" y="0px"
	 viewBox="0 0 650 362.75" style="enable-background:new 0 0 650 362.75;" xml:space="preserve">
<style type="text/css">
	.st0{opacity:0.4;fill:#D87373;}
	.st1{font-family:'IBMPlexSerif-SemiBold';}
	.st2{font-size:12px;}
	.st3{font-family:'IBMPlexSerif';}
	.st4{font-family:'IBMPlexSerif-Light';}
	.st5{font-size:11px;}
	.st6{font-size:8px;}
</style>
<text transform="matrix(1 0 0 1 6.796 15.9029)" class="st1 st2">Largest Migration Events</text>
<text transform="matrix(1 0 0 1 11.3889 39.1475)" class="st3 st2">Interval</text>
<text transform="matrix(1 0 0 1 141.4485 39.1477)" class="st3 st2">Country or Territory</text>
<text transform="matrix(1 0 0 1 339.8282 39.1476)" class="st3 st2">Migration Increase</text>
<text transform="matrix(1 0 0 1 516.3278 39.1476)" class="st3 st2">Likely Cause</text>
<g>
	<rect x="5" y="45.37" class="st0" width="636.74" height="16.35"/>
	<text transform="matrix(1 0 0 1 12.2535 56.9204)" class="st4 st5">1990-95</text>
	<text transform="matrix(1 0 0 1 164.7999 57.2264)" class="st4 st2">Sierra Leone</text>
	<text transform="matrix(1 0 0 1 379.4762 56.9204)" class="st4 st5">640%</text>
	<text transform="matrix(1 0 0 1 528.3755 57.2268)" class="st4 st2">Civil war</text>
</g>
<g>
	<text transform="matrix(1 0 0 1 12.2534 76.1018)" class="st4 st5">1990-95</text>
	<text transform="matrix(1 0 0 1 167.0381 76.102)" class="st4 st2">East Timor*</text>
	<text transform="matrix(1 0 0 1 379.4761 76.1019)" class="st4 st5">602%</text>
	<text transform="matrix(1 0 0 1 488.7098 76.1019)" class="st4 st2">Indonesian occupation</text>
</g>
<g>
	<rect x="5" y="83.13" class="st0" width="636.74" height="16.35"/>
	<text transform="matrix(1 0 0 1 12.3365 94.671)" class="st4 st5">2010-15</text>
	<text transform="matrix(1 0 0 1 185.9504 94.9775)" class="st4 st2">Syria</text>
	<text transform="matrix(1 0 0 1 379.4768 94.671)" class="st4 st5">479%</text>
	<text transform="matrix(1 0 0 1 528.376 94.9774)" class="st4 st2">Civil war</text>
</g>
<g>
	<text transform="matrix(1 0 0 1 12.2539 113.8529)" class="st4 st5">1990-95</text>
	<text transform="matrix(1 0 0 1 179.836 113.853)" class="st4 st2">Bhutan</text>
	<text transform="matrix(1 0 0 1 379.5592 113.8529)" class="st4 st5">314%</text>
	<text transform="matrix(1 0 0 1 512.2001 113.8529)" class="st4 st2">Ethnic conflict</text>
</g>
<g>
	<rect x="5" y="120.88" class="st0" width="636.74" height="16.35"/>
	<text transform="matrix(1 0 0 1 12.2544 132.4221)" class="st4 st5">1990-95</text>
	<text transform="matrix(1 0 0 1 177.5567 132.7282)" class="st4 st2">Rwanda</text>
	<text transform="matrix(1 0 0 1 379.4772 132.4221)" class="st4 st5">276%</text>
	<text transform="matrix(1 0 0 1 528.3763 132.7285)" class="st4 st2">Civil war</text>
</g>
<g>
	<text transform="matrix(1 0 0 1 12.3368 151.6035)" class="st4 st5">2015-19</text>
	<text transform="matrix(1 0 0 1 171.1186 151.6036)" class="st4 st2">Venezuela</text>
	<text transform="matrix(1 0 0 1 379.4771 151.6035)" class="st4 st5">260%</text>
	<text transform="matrix(1 0 0 1 508.3123 151.6035)" class="st4 st2">Economic crisis</text>
</g>
<g>
	<rect x="5" y="158.63" class="st0" width="636.74" height="16.35"/>
	<text transform="matrix(1 0 0 1 12.3375 170.1725)" class="st4 st5">2010-15</text>
	<text transform="matrix(1 0 0 1 131.5441 170.4791)" class="st4 st2">Central African Republic</text>
	<text transform="matrix(1 0 0 1 379.5602 170.1726)" class="st4 st5">179%</text>
	<text transform="matrix(1 0 0 1 528.377 170.479)" class="st4 st2">Civil war</text>
</g>
<g>
	<text transform="matrix(1 0 0 1 12.2548 189.3545)" class="st4 st5">1990-95</text>
	<text transform="matrix(1 0 0 1 178.7573 189.3546)" class="st4 st2">Albania</text>
	<text transform="matrix(1 0 0 1 379.5601 189.3545)" class="st4 st5">178%</text>
	<text transform="matrix(1 0 0 1 484.1576 189.3545)" class="st4 st2">Transition to democracy</text>
</g>
<g>
	<rect x="5" y="196.38" class="st0" width="636.74" height="16.35"/>
	<text transform="matrix(1 0 0 1 12.3356 207.9238)" class="st4 st5">2010-15</text>
	<text transform="matrix(1 0 0 1 159.6819 208.2298)" class="st4 st2">South Sudan**</text>
	<text transform="matrix(1 0 0 1 379.5583 207.9238)" class="st4 st5">163%</text>
	<text transform="matrix(1 0 0 1 528.3751 208.2302)" class="st4 st2">Civil war</text>
</g>
<g>
	<rect x="5" y="215.25" class="st0" width="636.74" height="16.35"/>
	<text transform="matrix(1 0 0 1 12.3363 226.7992)" class="st4 st5">2015-19</text>
	<text transform="matrix(1 0 0 1 164.6503 227.1053)" class="st4 st2">South Sudan</text>
	<text transform="matrix(1 0 0 1 379.5591 226.7992)" class="st4 st5">144%</text>
	<text transform="matrix(1 0 0 1 528.3757 227.1056)" class="st4 st2">Civil war</text>
</g>
<g>
	<rect x="5" y="234.13" class="st0" width="636.74" height="16.35"/>
	<text transform="matrix(1 0 0 1 12.1711 245.6743)" class="st4 st5">2000-05</text>
	<text transform="matrix(1 0 0 1 131.5428 245.9808)" class="st4 st2">Central African Republic</text>
	<text transform="matrix(1 0 0 1 379.559 245.6743)" class="st4 st5">137%</text>
	<text transform="matrix(1 0 0 1 528.3756 245.9807)" class="st4 st2">Civil war</text>
</g>
<g>
	<text transform="matrix(1 0 0 1 12.1716 264.8563)" class="st4 st5">2000-05</text>
	<text transform="matrix(1 0 0 1 181.8465 264.8564)" class="st4 st2">Gabon</text>
	<text transform="matrix(1 0 0 1 379.5594 264.8563)" class="st4 st5">129%</text>
	<text transform="matrix(1 0 0 1 525.424 264.8563)" class="st4 st2">Unknown</text>
</g>
<g>
	<text transform="matrix(1 0 0 1 12.1715 283.7321)" class="st4 st5">2000-05</text>
	<text transform="matrix(1 0 0 1 176.9626 283.7322)" class="st4 st2">Ecuador</text>
	<text transform="matrix(1 0 0 1 379.6418 283.7321)" class="st4 st5">121%</text>
	<text transform="matrix(1 0 0 1 508.312 283.7321)" class="st4 st2">Economic crisis</text>
</g>
<g>
	<text transform="matrix(1 0 0 1 12.2547 302.6073)" class="st4 st5">1990-95</text>
	<text transform="matrix(1 0 0 1 181.0848 302.6075)" class="st4 st2">Eritrea</text>
	<text transform="matrix(1 0 0 1 379.5599 302.6073)" class="st4 st5">120%</text>
	<text transform="matrix(1 0 0 1 472.7395 302.6073)" class="st4 st2">Independence from Ethiopia</text>
</g>
<g>
	<text transform="matrix(1 0 0 1 12.2546 321.4828)" class="st4 st5">1990-95</text>
	<text transform="matrix(1 0 0 1 178.0007 321.483)" class="st4 st2">Bahrain</text>
	<text transform="matrix(1 0 0 1 379.5598 321.4829)" class="st4 st5">103%</text>
	<text transform="matrix(1 0 0 1 525.4244 321.4829)" class="st4 st2">Unknown</text>
</g>
<text transform="matrix(1 0 0 1 423.1774 338.3436)" class="st4 st6">* East Timor became independent from Indonesia in 2002.</text>
<text transform="matrix(1 0 0 1 428.5934 349.2823)" class="st4 st6">**South Sudan became independent from Sudan in 2011.</text>
<text transform="matrix(1 0 0 1 462.7675 359.35)" class="st4 st6">Source: The United Nations Population Division</text>
</svg>
