<svg xmlns="http://www.w3.org/2000/svg" viewBox="0 0 300 362.5" xmlns:v="https://vecta.io/nano"><style><![CDATA[.H{font-family:IBMPlexSerif-Light}.I{font-size:12px}.J{font-size:11px}.K{opacity:.4}.L{fill:#d87373}.M{font-family:IBMPlexSerif}]]></style><text transform="translate(3.796 15.461)" font-family="IBMPlexSerif-SemiBold" class="I">Largest Migration Events</text><text transform="translate(3.388 38.706)" class="I M">Interval</text><text transform="translate(80.201 38.706)" class="I M">Region</text><text transform="translate(148.983 38.706)" class="I M">Increase</text><text transform="translate(215.593 38.706)" class="I M">Likely Cause</text><path d="M0 44.93h300v16.35H0z" class="K L"/><text transform="translate(4.253 56.478)" class="H J">1990-95</text><text transform="translate(64.841 56.784)" class="H I">Sierra Leone</text><text transform="translate(158.98 56.478)" class="H J">640%</text><text transform="translate(227.64 56.785)" class="H I">Civil war</text><text transform="translate(4.252 75.66)" class="H J">1990-95</text><text transform="translate(67.079 75.66)" class="H I">East Timor*</text><text transform="translate(158.98 75.66)" class="H J">602%</text><text transform="translate(219.882 75.66)" class="H I">Occupation</text><path d="M0 82.68h300v16.35H0z" class="K L"/><text transform="translate(4.336 94.229)" class="H J">2010-15</text><text transform="translate(85.992 94.535)" class="H I">Syria</text><text transform="translate(158.981 94.229)" class="H J">479%</text><text transform="translate(227.641 94.535)" class="H I">Civil war</text><text transform="translate(4.253 113.411)" class="H J">1990-95</text><text transform="translate(79.877 113.411)" class="H I">Bhutan</text><text transform="translate(159.063 113.411)" class="H J">314%</text><text transform="translate(211.465 113.411)" class="H I">Ethnic conflict</text><path d="M0 120.43h300v16.35H0z" class="K L"/><text transform="translate(4.253 131.98)" class="H J">1990-95</text><text transform="translate(77.598 132.286)" class="H I">Rwanda</text><text transform="translate(158.981 131.98)" class="H J">276%</text><text transform="translate(227.641 132.287)" class="H I">Civil war</text><text transform="translate(4.336 151.161)" class="H J">2015-19</text><text transform="translate(71.16 151.162)" class="H I">Venezuela</text><text transform="translate(158.981 151.161)" class="H J">260%</text><text transform="translate(207.577 151.161)" class="H I">Economic crisis</text><path d="M0 158.2h300v16.35H0z" class="K L"/><text transform="translate(4.337 169.731)" class="H J">2010-15</text><text transform="translate(62.263 170.037)" class="H I">Cen. Afr. Rep.</text><text transform="translate(159.064 169.731)" class="H J">179%</text><text transform="translate(227.642 170.037)" class="H I">Civil war</text><text transform="translate(4.254 188.912)" class="H J">1990-95</text><text transform="translate(78.799 188.913)" class="H I">Albania</text><text transform="translate(159.064 188.912)" class="H J">178%</text><text transform="translate(209.882 188.912)" class="H I">Political unrest</text><path d="M0 195.94h300v16.35H0z" class="K L"/><text transform="translate(4.335 207.482)" class="H J">2010-15</text><text transform="translate(59.723 207.788)" class="H I">South Sudan**</text><text transform="translate(159.062 207.482)" class="H J">163%</text><text transform="translate(227.64 207.788)" class="H I">Civil war</text><path d="M0 214.8h300v16.35H0z" class="K L"/><text transform="translate(4.335 226.357)" class="H J">2015-19</text><text transform="translate(64.692 226.663)" class="H I">South Sudan</text><text transform="translate(159.063 226.357)" class="H J">144%</text><text transform="translate(227.641 226.664)" class="H I">Civil war</text><path d="M0 233.7h300v16.35H0z" class="K L"/><text transform="translate(4.17 245.232)" class="H J">2000-05</text><text transform="translate(62.261 245.539)" class="H I">Cen. Afr. Rep.</text><text transform="translate(159.063 245.232)" class="H J">137%</text><text transform="translate(227.64 245.539)" class="H I">Civil war</text><text transform="translate(4.171 264.414)" class="H J">2000-05</text><text transform="translate(81.888 264.414)" class="H I">Gabon</text><text transform="translate(159.063 264.414)" class="H J">129%</text><text transform="translate(224.689 264.414)" class="H I">Unknown</text><text transform="translate(4.171 283.29)" class="H J">2000-05</text><text transform="translate(77.004 283.29)" class="H I">Ecuador</text><text transform="translate(159.146 283.29)" class="H J">121%</text><text transform="translate(207.577 283.29)" class="H I">Economic crisis</text><text transform="translate(4.254 302.165)" class="H J">1990-95</text><text transform="translate(81.126 302.165)" class="H I">Eritrea</text><text transform="translate(159.064 302.165)" class="H J">120%</text><text transform="translate(211.796 302.165)" class="H I">Independence</text><text transform="translate(4.254 321.041)" class="H J">1990-95</text><text transform="translate(78.042 321.041)" class="H I">Bahrain</text><text transform="translate(159.064 321.041)" class="H J">103%</text><text transform="translate(224.689 321.041)" class="H I">Unknown</text><text transform="translate(81.437 337.902)" font-size="8" class="H">* East Timor became independent from Indonesia in 2002.</text><text transform="translate(86.853 348.84)" font-size="8" class="H">**South Sudan became independent from Sudan in 2011.</text><text transform="translate(121.027 358.908)" font-size="8" class="H">Source: The United Nations Population Division</text></svg>