<?xml version="1.0" encoding="utf-8"?>
<!-- Generator: Adobe Illustrator 24.1.2, SVG Export Plug-In . SVG Version: 6.00 Build 0)  -->
<svg version="1.1" id="Layer_1" xmlns="http://www.w3.org/2000/svg" xmlns:xlink="http://www.w3.org/1999/xlink" x="0px" y="0px"
	 viewBox="0 0 300 362.5" style="enable-background:new 0 0 300 362.5;" xml:space="preserve">
<style type="text/css">
	.st0{font-family:'IBMPlexSerif-SemiBold';}
	.st1{font-size:12px;}
	.st2{font-family:'IBMPlexSerif';}
	.st3{opacity:0.4;fill:#D87373;}
	.st4{font-family:'IBMPlexSerif-Light';}
	.st5{font-size:11px;}
	.st6{font-size:8px;}
</style>
<text transform="matrix(1 0 0 1 3.7957 15.4609)" class="st0 st1">Largest Migration Events</text>
<text transform="matrix(1 0 0 1 3.3879 38.7055)" class="st2 st1">Interval</text>
<text transform="matrix(1 0 0 1 80.2012 38.7056)" class="st2 st1">Region</text>
<text transform="matrix(1 0 0 1 148.9834 38.7055)" class="st2 st1">Increase</text>
<text transform="matrix(1 0 0 1 215.5926 38.7055)" class="st2 st1">Likely Cause</text>
<g>
	<rect y="44.93" class="st3" width="300" height="16.35"/>
	<text transform="matrix(1 0 0 1 4.2525 56.4783)" class="st4 st5">1990-95</text>
	<text transform="matrix(1 0 0 1 64.8411 56.7844)" class="st4 st1">Sierra Leone</text>
	<text transform="matrix(1 0 0 1 158.9801 56.4784)" class="st4 st5">640%</text>
	<text transform="matrix(1 0 0 1 227.6403 56.7848)" class="st4 st1">Civil war</text>
</g>
<g>
	<text transform="matrix(1 0 0 1 4.2524 75.6598)" class="st4 st5">1990-95</text>
	<text transform="matrix(1 0 0 1 67.0793 75.6599)" class="st4 st1">East Timor*</text>
	<text transform="matrix(1 0 0 1 158.9799 75.6598)" class="st4 st5">602%</text>
	<text transform="matrix(1 0 0 1 219.8823 75.6598)" class="st4 st1">Occupation</text>
</g>
<g>
	<rect y="82.68" class="st3" width="300" height="16.35"/>
	<text transform="matrix(1 0 0 1 4.3356 94.2289)" class="st4 st5">2010-15</text>
	<text transform="matrix(1 0 0 1 85.9916 94.5354)" class="st4 st1">Syria</text>
	<text transform="matrix(1 0 0 1 158.9806 94.2289)" class="st4 st5">479%</text>
	<text transform="matrix(1 0 0 1 227.6408 94.5353)" class="st4 st1">Civil war</text>
</g>
<g>
	<text transform="matrix(1 0 0 1 4.2529 113.4108)" class="st4 st5">1990-95</text>
	<text transform="matrix(1 0 0 1 79.8772 113.411)" class="st4 st1">Bhutan</text>
	<text transform="matrix(1 0 0 1 159.063 113.4108)" class="st4 st5">314%</text>
	<text transform="matrix(1 0 0 1 211.4649 113.4108)" class="st4 st1">Ethnic conflict</text>
</g>
<g>
	<rect y="120.43" class="st3" width="300" height="16.35"/>
	<text transform="matrix(1 0 0 1 4.2534 131.98)" class="st4 st5">1990-95</text>
	<text transform="matrix(1 0 0 1 77.5979 132.2861)" class="st4 st1">Rwanda</text>
	<text transform="matrix(1 0 0 1 158.981 131.9801)" class="st4 st5">276%</text>
	<text transform="matrix(1 0 0 1 227.6412 132.2865)" class="st4 st1">Civil war</text>
</g>
<g>
	<text transform="matrix(1 0 0 1 4.3358 151.1614)" class="st4 st5">2015-19</text>
	<text transform="matrix(1 0 0 1 71.1598 151.1615)" class="st4 st1">Venezuela</text>
	<text transform="matrix(1 0 0 1 158.9809 151.1614)" class="st4 st5">260%</text>
	<text transform="matrix(1 0 0 1 207.5771 151.1614)" class="st4 st1">Economic crisis</text>
</g>
<g>
	<rect y="158.19" class="st3" width="300" height="16.35"/>
	<text transform="matrix(1 0 0 1 4.3365 169.7305)" class="st4 st5">2010-15</text>
	<text transform="matrix(1 0 0 1 62.2625 170.037)" class="st4 st1">Cen. Afr. Rep.</text>
	<text transform="matrix(1 0 0 1 159.0641 169.7305)" class="st4 st5">179%</text>
	<text transform="matrix(1 0 0 1 227.6417 170.0369)" class="st4 st1">Civil war</text>
</g>
<g>
	<text transform="matrix(1 0 0 1 4.2538 188.9124)" class="st4 st5">1990-95</text>
	<text transform="matrix(1 0 0 1 78.7985 188.9126)" class="st4 st1">Albania</text>
	<text transform="matrix(1 0 0 1 159.0639 188.9124)" class="st4 st5">178%</text>
	<text transform="matrix(1 0 0 1 209.8818 188.9124)" class="st4 st1">Political unrest</text>
</g>
<g>
	<rect y="195.94" class="st3" width="300" height="16.35"/>
	<text transform="matrix(1 0 0 1 4.3347 207.4817)" class="st4 st5">2010-15</text>
	<text transform="matrix(1 0 0 1 59.7231 207.7878)" class="st4 st1">South Sudan**</text>
	<text transform="matrix(1 0 0 1 159.0622 207.4817)" class="st4 st5">163%</text>
	<text transform="matrix(1 0 0 1 227.6399 207.7881)" class="st4 st1">Civil war</text>
</g>
<g>
	<rect y="214.81" class="st3" width="300" height="16.35"/>
	<text transform="matrix(1 0 0 1 4.3353 226.3572)" class="st4 st5">2015-19</text>
	<text transform="matrix(1 0 0 1 64.6915 226.6633)" class="st4 st1">South Sudan</text>
	<text transform="matrix(1 0 0 1 159.0629 226.3572)" class="st4 st5">144%</text>
	<text transform="matrix(1 0 0 1 227.6406 226.6636)" class="st4 st1">Civil war</text>
</g>
<g>
	<rect y="233.69" class="st3" width="300" height="16.35"/>
	<text transform="matrix(1 0 0 1 4.1702 245.2323)" class="st4 st5">2000-05</text>
	<text transform="matrix(1 0 0 1 62.2612 245.5388)" class="st4 st1">Cen. Afr. Rep.</text>
	<text transform="matrix(1 0 0 1 159.0628 245.2323)" class="st4 st5">137%</text>
	<text transform="matrix(1 0 0 1 227.6404 245.5387)" class="st4 st1">Civil war</text>
</g>
<g>
	<text transform="matrix(1 0 0 1 4.1707 264.4143)" class="st4 st5">2000-05</text>
	<text transform="matrix(1 0 0 1 81.8877 264.4144)" class="st4 st1">Gabon</text>
	<text transform="matrix(1 0 0 1 159.0633 264.4143)" class="st4 st5">129%</text>
	<text transform="matrix(1 0 0 1 224.6888 264.4143)" class="st4 st1">Unknown</text>
</g>
<g>
	<text transform="matrix(1 0 0 1 4.1705 283.2901)" class="st4 st5">2000-05</text>
	<text transform="matrix(1 0 0 1 77.0038 283.2902)" class="st4 st1">Ecuador</text>
	<text transform="matrix(1 0 0 1 159.1457 283.2901)" class="st4 st5">121%</text>
	<text transform="matrix(1 0 0 1 207.5768 283.2901)" class="st4 st1">Economic crisis</text>
</g>
<g>
	<text transform="matrix(1 0 0 1 4.2537 302.1653)" class="st4 st5">1990-95</text>
	<text transform="matrix(1 0 0 1 81.126 302.1654)" class="st4 st1">Eritrea</text>
	<text transform="matrix(1 0 0 1 159.0638 302.1653)" class="st4 st5">120%</text>
	<text transform="matrix(1 0 0 1 211.7958 302.1653)" class="st4 st1">Independence</text>
</g>
<g>
	<text transform="matrix(1 0 0 1 4.2536 321.0408)" class="st4 st5">1990-95</text>
	<text transform="matrix(1 0 0 1 78.0419 321.041)" class="st4 st1">Bahrain</text>
	<text transform="matrix(1 0 0 1 159.0637 321.0409)" class="st4 st5">103%</text>
	<text transform="matrix(1 0 0 1 224.6892 321.0409)" class="st4 st1">Unknown</text>
</g>
<text transform="matrix(1 0 0 1 81.4372 337.9016)" class="st4 st6">* East Timor became independent from Indonesia in 2002.</text>
<text transform="matrix(1 0 0 1 86.8532 348.8403)" class="st4 st6">**South Sudan became independent from Sudan in 2011.</text>
<text transform="matrix(1 0 0 1 121.0273 358.908)" class="st4 st6">Source: The United Nations Population Division</text>
</svg>
