<?xml version="1.0" encoding="utf-8"?>
<!-- Generator: Adobe Illustrator 24.1.2, SVG Export Plug-In . SVG Version: 6.00 Build 0)  -->
<svg version="1.1" id="Layer_1" xmlns="http://www.w3.org/2000/svg" xmlns:xlink="http://www.w3.org/1999/xlink" x="0px" y="0px"
	 viewBox="0 0 650 304.1" style="enable-background:new 0 0 650 304.1;" xml:space="preserve">
<style type="text/css">
	.st0{fill:none;stroke:#000000;stroke-width:0.5;stroke-miterlimit:10;}
	.st1{fill:#4A494A;}
	.st2{fill:none;stroke:#4B494B;stroke-miterlimit:10;}
	.st3{fill:#C54343;}
	.st4{fill:none;stroke:#C64343;stroke-miterlimit:10;}
	.st5{fill:#FFFFFF;}
	.st6{font-family:'IBMPlexSerif-SemiBold';}
	.st7{font-size:12px;}
	.st8{font-family:'IBMPlexSerif';}
	.st9{font-family:'IBMPlexSerif-Light';}
	.st10{font-size:10px;}
</style>
<text transform="matrix(1 0 0 1 3.1424 14.8989)" class="st6 st7">Migration booms happen in young countries</text>
<line class="st0" x1="158.25" y1="287.41" x2="158.25" y2="293.79"/>
<line class="st0" x1="300.47" y1="287.41" x2="300.47" y2="293.79"/>
<line class="st0" x1="441.95" y1="287.87" x2="441.95" y2="294.25"/>
<line class="st0" x1="584.3" y1="287.24" x2="584.3" y2="293.61"/>
<g>
	<circle class="st1" cx="316.8" cy="67.37" r="2.79"/>
	<text transform="matrix(1 0 0 1 5.1428 70.1829)" class="st8 st7">Venezuela</text>
	<line class="st2" x1="316.8" y1="67.37" x2="641.97" y2="67.37"/>
</g>
<g>
	<circle class="st1" cx="353.32" cy="86.33" r="2.79"/>
	<text transform="matrix(1 0 0 1 5.1429 89.1441)" class="st8 st7">Ecuador</text>
	<line class="st2" x1="353.32" y1="86.33" x2="641.97" y2="86.33"/>
</g>
<g>
	<circle class="st1" cx="533.44" cy="104.29" r="2.79"/>
	<text transform="matrix(1 0 0 1 5.1428 107.1047)" class="st8 st7">Gabon</text>
	<line class="st2" x1="535.41" y1="104.29" x2="641.97" y2="104.29"/>
</g>
<g>
	<circle class="st1" cx="545.36" cy="199.1" r="2.79"/>
	<text transform="matrix(1 0 0 1 5.1428 201.909)" class="st8 st7">Bahrain</text>
	<line class="st2" x1="545.36" y1="199.1" x2="641.97" y2="199.1"/>
</g>
<g>
	<circle class="st1" cx="577.6" cy="217.79" r="2.79"/>
	<text transform="matrix(1 0 0 1 5.1429 219.8698)" class="st8 st7">Albania</text>
	<line class="st2" x1="577.6" y1="217.79" x2="641.97" y2="217.79"/>
</g>
<g>
	<circle class="st1" cx="577.6" cy="236.8" r="2.79"/>
	<text transform="matrix(1 0 0 1 5.1429 238.8308)" class="st8 st7">Eritrea</text>
	<line class="st2" x1="577.6" y1="236.8" x2="641.97" y2="236.8"/>
</g>
<g>
	<circle class="st1" cx="592.55" cy="255.49" r="2.79"/>
	<text transform="matrix(1 0 0 1 5.1428 257.7915)" class="st8 st7">East Timor</text>
	<line class="st2" x1="592.55" y1="255.49" x2="641.97" y2="255.49"/>
</g>
<g>
	<circle class="st3" cx="533.44" cy="123.26" r="2.79"/>
	<text transform="matrix(1 0 0 1 5.1428 126.0656)" class="st8 st7">C.A.R.</text>
	<line class="st4" x1="533.44" y1="123.26" x2="641.97" y2="123.26"/>
</g>
<g>
	<circle class="st3" cx="534.44" cy="142.38" r="2.79"/>
	<text transform="matrix(1 0 0 1 5.1429 145.0265)" class="st8 st7">Syria</text>
	<line class="st4" x1="535.41" y1="142.38" x2="641.97" y2="142.38"/>
</g>
<g>
	<circle class="st3" cx="535.41" cy="161.9" r="2.79"/>
	<text transform="matrix(1 0 0 1 5.1429 163.9873)" class="st8 st7">Sierra Leone</text>
	<line class="st4" x1="535.41" y1="161.9" x2="641.97" y2="161.9"/>
</g>
<g>
	<circle class="st3" cx="537.23" cy="180.11" r="2.79"/>
	<text transform="matrix(1 0 0 1 5.1428 182.9484)" class="st8 st7">Rwanda</text>
	<line class="st4" x1="535.41" y1="180.2" x2="641.97" y2="180.2"/>
</g>
<g>
	<circle class="st3" cx="600.85" cy="273.94" r="2.79"/>
	<text transform="matrix(1 0 0 1 5.1429 276.7523)" class="st8 st7">South Sudan</text>
	<line class="st4" x1="600.85" y1="273.94" x2="641.86" y2="273.94"/>
</g>
<g>
	<circle class="st1" cx="68.86" cy="49.24" r="2.79"/>
	<line class="st2" x1="69.46" y1="49.24" x2="644.21" y2="49.24"/>
	<text transform="matrix(1 0 0 1 5.143 52.0513)" class="st8 st7">Bhutan</text>
</g>
<text transform="matrix(1 0 0 1 5.7596 296.7869)" class="st9 st10">Year of independence</text>
<text transform="matrix(1 0 0 1 132.4032 296.7871)" class="st9 st10">1700</text>
<text transform="matrix(1 0 0 1 274.6161 297.2542)" class="st9 st10">1800</text>
<text transform="matrix(1 0 0 1 416.1005 297.2543)" class="st9 st10">1900</text>
<text transform="matrix(1 0 0 1 558.2974 297.2542)" class="st9 st10">2000</text>
<circle class="st3" cx="396.73" cy="25.99" r="3.42"/>
<text transform="matrix(1 0 0 1 404.734 29.4146)" class="st9 st10">Countries where migration boomed due to civil war</text>
</svg>
