<svg xmlns="http://www.w3.org/2000/svg" viewBox="0 0 650 304.1" xmlns:v="https://vecta.io/nano"><style><![CDATA[.K{font-size:12px}.L{fill:none}.M{stroke-miterlimit:10}.N{font-family:IBMPlexSerif}.O{fill:#4a494a}.P{stroke:#4b494b}.Q{fill:#c54343}.R{font-family:IBMPlexSerif-Light}.S{font-size:10px}.T{stroke:#c64343}]]></style><text transform="translate(3.142 14.899)" font-family="IBMPlexSerif-SemiBold" class="K">Migration booms happen in young countries</text><path d="M158.25 287.4v6.38m142.22-6.38v6.38m141.48-5.9v6.38m142.35-7v6.37" stroke="#000" stroke-width=".5" class="L M"/><circle cx="316.8" cy="67.37" r="2.79" class="O"/><text transform="translate(5.143 70.183)" class="K N">Venezuela</text><path d="M316.8 67.37h325.17" class="L M P"/><circle cx="353.32" cy="86.33" r="2.79" class="O"/><text transform="translate(5.143 89.144)" class="K N">Ecuador</text><path d="M353.32 86.33h288.65" class="L M P"/><circle cx="533.44" cy="104.29" r="2.79" class="O"/><text transform="translate(5.143 107.105)" class="K N">Gabon</text><path d="M535.4 104.3h106.56" class="L M P"/><circle cx="545.36" cy="199.1" r="2.79" class="O"/><text transform="translate(5.143 201.909)" class="K N">Bahrain</text><path d="M545.36 199.1h96.6" class="L M P"/><circle cx="577.6" cy="217.79" r="2.79" class="O"/><text transform="translate(5.143 219.87)" class="K N">Albania</text><path d="M577.6 217.8h64.37" class="L M P"/><circle cx="577.6" cy="236.8" r="2.79" class="O"/><text transform="translate(5.143 238.831)" class="K N">Eritrea</text><path d="M577.6 236.8h64.37" class="L M P"/><circle cx="592.55" cy="255.49" r="2.79" class="O"/><text transform="translate(5.143 257.791)" class="K N">East Timor</text><path d="M592.55 255.5h49.42" class="L M P"/><circle cx="533.44" cy="123.26" r="2.79" class="Q"/><text transform="translate(5.143 126.066)" class="K N">C._1_.R.</text><path d="M533.44 123.26h108.53" class="L M T"/><circle cx="534.44" cy="142.38" r="2.79" class="Q"/><text transform="translate(5.143 145.027)" class="K N">Syria</text><path d="M535.4 142.38h106.56" class="L M T"/><circle cx="535.41" cy="161.9" r="2.79" class="Q"/><text transform="translate(5.143 163.987)" class="K N">Sierra Leone</text><path d="M535.4 161.9h106.56" class="L M T"/><circle cx="537.23" cy="180.11" r="2.79" class="Q"/><text transform="translate(5.143 182.948)" class="K N">Rwanda</text><path d="M535.4 180.2h106.56" class="L M T"/><circle cx="600.85" cy="273.94" r="2.79" class="Q"/><text transform="translate(5.143 276.752)" class="K N">South Sudan</text><path d="M600.85 273.94h41" class="L M T"/><circle cx="68.86" cy="49.24" r="2.79" class="O"/><path d="M69.46 49.24H644.2" class="L M P"/><text transform="translate(5.143 52.051)" class="K N">Bhutan</text><text transform="translate(5.76 296.787)" class="R S">Year of independence</text><text transform="translate(132.403 296.787)" class="R S">1700</text><text transform="translate(274.616 297.254)" class="R S">1800</text><text transform="translate(416.101 297.254)" class="R S">1900</text><text transform="translate(558.297 297.254)" class="R S">2000</text><circle cx="396.73" cy="25.99" r="3.42" class="Q"/><text transform="translate(404.734 29.415)" class="R S">Countries where migration boomed due to civil war</text></svg>