<?xml version="1.0" encoding="utf-8"?>
<!-- Generator: Adobe Illustrator 24.1.2, SVG Export Plug-In . SVG Version: 6.00 Build 0)  -->
<svg version="1.1" id="Layer_1" xmlns="http://www.w3.org/2000/svg" xmlns:xlink="http://www.w3.org/1999/xlink" x="0px" y="0px"
	 viewBox="0 0 300 312.03" style="enable-background:new 0 0 300 312.03;" xml:space="preserve">
<style type="text/css">
	.st0{font-family:'IBMPlexSerif-SemiBold';}
	.st1{font-size:12px;}
	.st2{fill:none;stroke:#000000;stroke-width:0.5;stroke-miterlimit:10;}
	.st3{fill:#4A494A;}
	.st4{font-family:'IBMPlexSerif';}
	.st5{fill:none;stroke:#4B494B;stroke-miterlimit:10;}
	.st6{fill:#C54343;}
	.st7{fill:none;stroke:#C64343;stroke-miterlimit:10;}
	.st8{fill:#FFFFFF;}
	.st9{font-family:'IBMPlexSerif-Light';}
	.st10{font-size:10px;}
</style>
<text transform="matrix(1 0 0 1 1.7953 13.1366)" class="st0 st1">Migration booms happen in young countries</text>
<line class="st2" x1="57.31" y1="285.64" x2="57.31" y2="292.02"/>
<line class="st2" x1="128.11" y1="285.64" x2="128.11" y2="292.02"/>
<line class="st2" x1="198.55" y1="286.11" x2="198.55" y2="292.49"/>
<line class="st2" x1="269.42" y1="285.47" x2="269.42" y2="291.85"/>
<g>
	<circle class="st3" cx="133.45" cy="65.61" r="2.79"/>
	<text transform="matrix(1 0 0 1 17.6813 68.4207)" class="st4 st1">Venezuela</text>
	<line class="st5" x1="136.24" y1="65.61" x2="298.13" y2="65.61"/>
</g>
<g>
	<circle class="st3" cx="155.06" cy="84.57" r="2.79"/>
	<text transform="matrix(1 0 0 1 17.6813 87.3818)" class="st4 st1">Ecuador</text>
	<line class="st5" x1="154.43" y1="84.57" x2="298.13" y2="84.57"/>
</g>
<g>
	<circle class="st3" cx="243.92" cy="102.53" r="2.79"/>
	<text transform="matrix(1 0 0 1 17.6812 105.3424)" class="st4 st1">Gabon</text>
	<line class="st5" x1="245.08" y1="102.53" x2="298.13" y2="102.53"/>
</g>
<g>
	<circle class="st3" cx="250.51" cy="197.34" r="2.79"/>
	<text transform="matrix(1 0 0 1 17.6812 200.1467)" class="st4 st1">Bahrain</text>
	<line class="st5" x1="250.03" y1="197.34" x2="298.13" y2="197.34"/>
</g>
<g>
	<circle class="st3" cx="266.43" cy="216.02" r="2.79"/>
	<text transform="matrix(1 0 0 1 17.6813 218.1075)" class="st4 st1">Albania</text>
	<line class="st5" x1="266.09" y1="216.02" x2="298.13" y2="216.02"/>
</g>
<g>
	<circle class="st3" cx="266.86" cy="235.04" r="2.79"/>
	<text transform="matrix(1 0 0 1 17.6814 237.0686)" class="st4 st1">Eritrea</text>
	<line class="st5" x1="266.09" y1="235.04" x2="298.13" y2="235.04"/>
</g>
<g>
	<circle class="st3" cx="273.38" cy="253.73" r="2.79"/>
	<text transform="matrix(1 0 0 1 17.6813 256.0293)" class="st4 st1">East Timor</text>
	<line class="st5" x1="273.53" y1="253.73" x2="298.13" y2="253.73"/>
</g>
<g>
	<circle class="st6" cx="244.92" cy="121.49" r="2.79"/>
	<text transform="matrix(1 0 0 1 17.6812 124.3033)" class="st4 st1">C.A.R.</text>
	<line class="st7" x1="242.71" y1="121.49" x2="298.13" y2="121.49"/>
</g>
<g>
	<circle class="st6" cx="245.92" cy="140.62" r="2.79"/>
	<text transform="matrix(1 0 0 1 17.6813 143.2642)" class="st4 st1">Syria</text>
	<line class="st7" x1="245.08" y1="140.62" x2="298.13" y2="140.62"/>
</g>
<g>
	<circle class="st6" cx="245.92" cy="160.14" r="2.79"/>
	<text transform="matrix(1 0 0 1 17.6814 162.225)" class="st4 st1">Sierra Leone</text>
	<line class="st7" x1="245.08" y1="160.14" x2="298.13" y2="160.14"/>
</g>
<g>
	<circle class="st6" cx="246.92" cy="178.35" r="2.79"/>
	<text transform="matrix(1 0 0 1 17.6813 181.1861)" class="st4 st1">Rwanda</text>
	<line class="st7" x1="245.08" y1="178.43" x2="298.13" y2="178.43"/>
</g>
<g>
	<circle class="st6" cx="279.68" cy="272.18" r="2.79"/>
	<text transform="matrix(1 0 0 1 17.6268 274.99)" class="st4 st1">South Sudan</text>
	<line class="st7" x1="277.66" y1="272.18" x2="298.08" y2="272.18"/>
</g>
<g>
	<circle class="st3" cx="12.51" cy="47.48" r="2.79"/>
	<line class="st5" x1="13.11" y1="47.48" x2="299.25" y2="47.48"/>
	<rect x="18.8" y="40.14" class="st8" width="44.12" height="12.23"/>
	<text transform="matrix(1 0 0 1 18.7998 50.2891)" class="st4 st1">Bhutan</text>
</g>
<text transform="matrix(1 0 0 1 99.1053 308.2631)" class="st9 st10">Year of independence</text>
<text transform="matrix(1 0 0 1 31.3214 294.4919)" class="st9 st10">1700</text>
<text transform="matrix(1 0 0 1 102.4668 294.4919)" class="st9 st10">1800</text>
<text transform="matrix(1 0 0 1 172.8611 294.4919)" class="st9 st10">1900</text>
<text transform="matrix(1 0 0 1 242.8565 294.4918)" class="st9 st10">2000</text>
<circle class="st6" cx="49.31" cy="27.65" r="3.42"/>
<text transform="matrix(1 0 0 1 57.3119 31.0769)" class="st9 st10">Countries where migration boomed due to civil war</text>
</svg>
