<svg xmlns="http://www.w3.org/2000/svg" viewBox="0 0 300 312.03" xmlns:v="https://vecta.io/nano"><style><![CDATA[.L{font-size:12px}.M{fill:none}.N{stroke-miterlimit:10}.O{font-family:IBMPlexSerif}.P{fill:#4a494a}.Q{stroke:#4b494b}.R{fill:#c54343}.S{font-family:IBMPlexSerif-Light}.T{font-size:10px}.U{stroke:#c64343}]]></style><text transform="translate(1.795 13.137)" font-family="IBMPlexSerif-SemiBold" class="L">Migration booms happen in young countries</text><path d="M57.3 285.64v6.38m70.8-6.38v6.38m70.45-5.92v6.38m70.87-7v6.38" stroke="#000" stroke-width=".5" class="M N"/><circle cx="133.45" cy="65.61" r="2.79" class="P"/><text transform="translate(17.681 68.421)" class="L O">Venezuela</text><path d="M136.24 65.6h161.9" class="M N Q"/><circle cx="155.06" cy="84.57" r="2.79" class="P"/><text transform="translate(17.681 87.382)" class="L O">Ecuador</text><path d="M154.43 84.57h143.7" class="M N Q"/><circle cx="243.92" cy="102.53" r="2.79" class="P"/><text transform="translate(17.681 105.342)" class="L O">Gabon</text><path d="M245.08 102.53h53.05" class="M N Q"/><circle cx="250.51" cy="197.34" r="2.79" class="P"/><text transform="translate(17.681 200.147)" class="L O">Bahrain</text><path d="M250.03 197.34h48.1" class="M N Q"/><circle cx="266.43" cy="216.02" r="2.79" class="P"/><text transform="translate(17.681 218.108)" class="L O">Albania</text><path d="M266.1 216.02h32.04" class="M N Q"/><circle cx="266.86" cy="235.04" r="2.79" class="P"/><text transform="translate(17.681 237.069)" class="L O">Eritrea</text><path d="M266.1 235.04h32.04" class="M N Q"/><circle cx="273.38" cy="253.73" r="2.79" class="P"/><text transform="translate(17.681 256.029)" class="L O">East Timor</text><path d="M273.53 253.73h24.6" class="M N Q"/><circle cx="244.92" cy="121.49" r="2.79" class="R"/><text transform="translate(17.681 124.303)" class="L O">C._1_.R.</text><path d="M242.7 121.5h55.42" class="M N U"/><circle cx="245.92" cy="140.62" r="2.79" class="R"/><text transform="translate(17.681 143.264)" class="L O">Syria</text><path d="M245.08 140.62h53.05" class="M N U"/><circle cx="245.92" cy="160.14" r="2.79" class="R"/><text transform="translate(17.681 162.225)" class="L O">Sierra Leone</text><path d="M245.08 160.14h53.05" class="M N U"/><circle cx="246.92" cy="178.35" r="2.79" class="R"/><text transform="translate(17.681 181.186)" class="L O">Rwanda</text><path d="M245.08 178.43h53.05" class="M N U"/><circle cx="279.68" cy="272.18" r="2.79" class="R"/><text transform="translate(17.627 274.99)" class="L O">South Sudan</text><path d="M277.66 272.18h20.42" class="M N U"/><circle cx="12.51" cy="47.48" r="2.79" class="P"/><path d="M13.1 47.48h286.14" class="M N Q"/><path d="M18.8 40.14h44.12v12.23H18.8z" fill="#fff"/><text transform="translate(18.8 50.289)" class="L O">Bhutan</text><text transform="translate(99.105 308.263)" class="S T">Year of independence</text><text transform="translate(31.321 294.492)" class="S T">1700</text><text transform="translate(102.467 294.492)" class="S T">1800</text><text transform="translate(172.861 294.492)" class="S T">1900</text><text transform="translate(242.857 294.492)" class="S T">2000</text><circle cx="49.31" cy="27.65" r="3.42" class="R"/><text transform="translate(57.312 31.077)" class="S T">Countries where migration boomed due to civil war</text></svg>