<svg xmlns="http://www.w3.org/2000/svg" viewBox="0 0 650 454.78" xmlns:v="https://vecta.io/nano"><style><![CDATA[.M{font-family:IBMPlexSerif-Light}.N{font-size:10px}.O{stroke-dasharray:2.005,2.005}.P{fill:#939393}.Q{stroke-miterlimit:10}.R{font-family:IBMPlexSerif}]]></style><g fill="none" stroke="#878787" stroke-width=".5" class="Q"><path d="M649.75 57.95h-1"/><path d="M646.74 57.95H46.8" stroke-dasharray="2.0031,2.0031"/><path d="M45.8 57.95h-1m601.5 73.45h-1"/><path d="M643.3 131.4H46.8" class="O"/><path d="M45.8 131.4h-1m601.5 75.16h-1"/><path d="M643.3 206.56H46.8" class="O"/><path d="M45.8 206.56h-1m601.5 71.07h-1"/><path d="M643.3 277.63H46.8" class="O"/><path d="M45.8 277.63h-1m601.5 72.07h-1"/><path d="M643.3 349.7H40.8" stroke-dasharray="1.9983,1.9983"/><path d="M39.8 349.7h-1"/></g><path d="M639.927 423.182h-43.47V54.062h43.47zm-48.292-.002h-43.47V304.52h43.47zm-49.935.003h-43.47v-91.17h43.47z" class="P"/><path d="M54.95 423.175H11.48v-4.73h43.47z" fill="#c54343"/><path d="M103.62 423.175H60.15v-4.73h43.47z" class="P"/><path d="M152.3 423.177h-43.47v-6.76h43.47zm48.092 0h-43.47v-8.93h43.47zm49.658-.002h-43.47v-12.36h43.47zm48.814 0h-43.47v-12.36h43.47z" fill="#c54343"/><path d="M347.204 423.18h-43.47v-33.46h43.47zm48.813 0h-43.47v-37.1h43.47zm48.44.8h-43.47v-51.1h43.47zm48.617-.004h-43.47v-79.54h43.47z" class="P"/><path d="M646.3 340.1H3.62m642.68 83.08H3.62" fill="none" stroke="#000" class="Q"/><text transform="translate(2.617 60.955)" class="M N">$25,000</text><text transform="translate(2.617 134.392)" class="M N">$20,000</text><text transform="translate(2.617 209.563)" class="M N">$15,000</text><text transform="translate(2.618 280.635)" class="M N">$10,000</text><text transform="translate(2.617 352.706)" class="M N">$5,000</text><text transform="translate(2.616 47)" font-size="12" class="R">Nominal G._2_.P. per capita</text><text transform="translate(2.616 15.689)" font-size="12" font-family="IBMPlexSerif-SemiBold">Migration booms due to civil wars happen in poor countries</text><text transform="translate(3.617 336.284)" font-size="12" class="R">Global median - $5,175</text><text transform="translate(599.624 437.812)" class="M N">Bahrain</text><text><tspan x="164.571" y="435.812" class="M N">Sierra</tspan><tspan x="164.341" y="446.812" class="M N">Leone</tspan><tspan x="19.571" y="435.812" class="M N">South</tspan><tspan x="18.331" y="446.812" class="M N">Sudan</tspan></text><text transform="translate(65.896 437.812)" class="M N">Eritrea</text><text transform="translate(116.531 437.812)" class="M N">C._1_.R.</text><text transform="translate(209.386 437.812)" class="M N">Rwanda</text><text transform="translate(265.192 437.812)" class="M N">Syria</text><text><tspan x="314.947" y="435.813" class="M N">East</tspan><tspan x="310.497" y="447.813" class="M N">Timor</tspan></text><text transform="translate(349.984 437.813)" class="M N">Venezuela</text><text transform="translate(405.684 437.812)" class="M N">Bhutan</text><text transform="translate(453.408 437.813)" class="M N">Albania</text><text transform="translate(500.536 437.813)" class="M N">Ecuador</text><text transform="translate(554.543 437.812)" class="M N">Gabon</text></svg>