<?xml version="1.0" encoding="utf-8"?>
<!-- Generator: Adobe Illustrator 24.1.2, SVG Export Plug-In . SVG Version: 6.00 Build 0)  -->
<svg version="1.1" id="Layer_1" xmlns="http://www.w3.org/2000/svg" xmlns:xlink="http://www.w3.org/1999/xlink" x="0px" y="0px"
	 viewBox="0 0 650 454.78" style="enable-background:new 0 0 650 454.78;" xml:space="preserve">
<style type="text/css">
	.st0{fill:none;stroke:#878787;stroke-width:0.5;stroke-miterlimit:10;}
	.st1{fill:none;stroke:#878787;stroke-width:0.5;stroke-miterlimit:10;stroke-dasharray:2.0031,2.0031;}
	.st2{fill:none;stroke:#878787;stroke-width:0.5;stroke-miterlimit:10;stroke-dasharray:2.005,2.005;}
	.st3{fill:none;stroke:#878787;stroke-width:0.5;stroke-miterlimit:10;stroke-dasharray:1.9983,1.9983;}
	.st4{fill:#939393;}
	.st5{fill:#C54343;}
	.st6{fill:none;stroke:#000000;stroke-miterlimit:10;}
	.st7{font-family:'IBMPlexSerif-Light';}
	.st8{font-size:10px;}
	.st9{font-family:'IBMPlexSerif';}
	.st10{font-size:12px;}
	.st11{font-family:'IBMPlexSerif-SemiBold';}
	.st12{fill:none;stroke:#878787;stroke-width:0.5;stroke-miterlimit:10;stroke-dasharray:2.0036,2.0036;}
</style>
<g>
	<g>
		<line class="st0" x1="649.75" y1="57.95" x2="648.75" y2="57.95"/>
		<line class="st1" x1="646.74" y1="57.95" x2="46.81" y2="57.95"/>
		<line class="st0" x1="45.81" y1="57.95" x2="44.81" y2="57.95"/>
	</g>
</g>
<g>
	<g>
		<line class="st0" x1="646.3" y1="131.39" x2="645.3" y2="131.39"/>
		<line class="st2" x1="643.29" y1="131.39" x2="46.81" y2="131.39"/>
		<line class="st0" x1="45.81" y1="131.39" x2="44.81" y2="131.39"/>
	</g>
</g>
<g>
	<g>
		<line class="st0" x1="646.3" y1="206.56" x2="645.3" y2="206.56"/>
		<line class="st2" x1="643.29" y1="206.56" x2="46.81" y2="206.56"/>
		<line class="st0" x1="45.81" y1="206.56" x2="44.81" y2="206.56"/>
	</g>
</g>
<g>
	<g>
		<line class="st0" x1="646.3" y1="277.63" x2="645.3" y2="277.63"/>
		<line class="st2" x1="643.29" y1="277.63" x2="46.81" y2="277.63"/>
		<line class="st0" x1="45.81" y1="277.63" x2="44.81" y2="277.63"/>
	</g>
</g>
<g>
	<g>
		<line class="st0" x1="646.3" y1="349.71" x2="645.3" y2="349.71"/>
		<line class="st3" x1="643.3" y1="349.71" x2="40.8" y2="349.71"/>
		<line class="st0" x1="39.81" y1="349.71" x2="38.81" y2="349.71"/>
	</g>
</g>
<rect x="596.45" y="54.06" transform="matrix(-1 -1.224647e-16 1.224647e-16 -1 1236.3773 477.2422)" class="st4" width="43.47" height="369.12"/>
<rect x="548.17" y="304.52" transform="matrix(-1 -1.224647e-16 1.224647e-16 -1 1139.8047 727.6998)" class="st4" width="43.47" height="118.66"/>
<rect x="498.23" y="332.01" transform="matrix(-1 -1.224647e-16 1.224647e-16 -1 1039.9309 755.1932)" class="st4" width="43.47" height="91.17"/>
<rect x="11.48" y="418.45" transform="matrix(-1 -1.224647e-16 1.224647e-16 -1 66.4312 841.6249)" class="st5" width="43.47" height="4.73"/>
<rect x="60.16" y="418.45" transform="matrix(-1 -1.224647e-16 1.224647e-16 -1 163.7812 841.6249)" class="st4" width="43.47" height="4.73"/>
<rect x="108.83" y="416.42" transform="matrix(-1 -1.224647e-16 1.224647e-16 -1 261.1311 839.5973)" class="st5" width="43.47" height="6.76"/>
<rect x="156.93" y="414.25" transform="matrix(-1 -1.224647e-16 1.224647e-16 -1 357.3222 837.4266)" class="st5" width="43.47" height="8.93"/>
<rect x="206.59" y="410.82" transform="matrix(-1 -1.224647e-16 1.224647e-16 -1 456.6412 833.9953)" class="st5" width="43.47" height="12.36"/>
<rect x="255.4" y="410.82" transform="matrix(-1 -1.224647e-16 1.224647e-16 -1 554.2642 833.9953)" class="st5" width="43.47" height="12.36"/>
<rect x="303.74" y="389.72" transform="matrix(-1 -1.224647e-16 1.224647e-16 -1 650.9438 812.9008)" class="st4" width="43.47" height="33.46"/>
<rect x="352.55" y="386.08" transform="matrix(-1 -1.224647e-16 1.224647e-16 -1 748.5668 809.2602)" class="st4" width="43.47" height="37.1"/>
<rect x="400.98" y="372.86" transform="matrix(-1 -1.224647e-16 1.224647e-16 -1 845.4374 796.8285)" class="st4" width="43.47" height="51.1"/>
<rect x="449.61" y="344.42" transform="matrix(-1 -1.224647e-16 1.224647e-16 -1 942.6842 768.3856)" class="st4" width="43.47" height="79.54"/>
<line class="st6" x1="646.3" y1="340.11" x2="3.62" y2="340.11"/>
<line class="st6" x1="646.3" y1="423.18" x2="3.62" y2="423.18"/>
<text transform="matrix(1 0 0 1 2.6165 60.9546)" class="st7 st8">$25,000</text>
<text transform="matrix(1 0 0 1 2.617 134.3919)" class="st7 st8">$20,000</text>
<text transform="matrix(1 0 0 1 2.6174 209.5634)" class="st7 st8">$15,000</text>
<text transform="matrix(1 0 0 1 2.6179 280.6347)" class="st7 st8">$10,000</text>
<text transform="matrix(1 0 0 1 2.6168 352.7061)" class="st7 st8">$5,000</text>
<text transform="matrix(1 0 0 1 2.6161 46.9998)" class="st9 st10">Nominal G.D.P. per capita</text>
<text transform="matrix(1 0 0 1 2.6159 15.6892)" class="st11 st10">Migration booms due to civil wars happen in poor countries</text>
<text transform="matrix(1 0 0 1 3.6166 336.2837)" class="st9 st10">Global median - $5,175</text>
<text transform="matrix(1 0 0 1 599.6244 437.8121)" class="st7 st8">Bahrain</text>
<text transform="matrix(1 0 0 1 164.5714 435.8118)"><tspan x="0" y="0" class="st7 st8">Sierra</tspan><tspan x="-0.23" y="11" class="st7 st8">Leone</tspan></text>
<text transform="matrix(1 0 0 1 19.5707 435.8123)"><tspan x="0" y="0" class="st7 st8">South</tspan><tspan x="-1.24" y="11" class="st7 st8">Sudan</tspan></text>
<text transform="matrix(1 0 0 1 65.8959 437.8123)" class="st7 st8">Eritrea</text>
<text transform="matrix(1 0 0 1 116.5306 437.8116)" class="st7 st8">C.A.R.</text>
<text transform="matrix(1 0 0 1 209.386 437.8121)" class="st7 st8">Rwanda</text>
<text transform="matrix(1 0 0 1 265.1921 437.8119)" class="st7 st8">Syria</text>
<text transform="matrix(1 0 0 1 314.9468 435.8125)"><tspan x="0" y="0" class="st7 st8">East</tspan><tspan x="-4.45" y="12" class="st7 st8">Timor</tspan></text>
<text transform="matrix(1 0 0 1 349.9836 437.8125)" class="st7 st8">Venezuela</text>
<text transform="matrix(1 0 0 1 405.6841 437.8119)" class="st7 st8">Bhutan</text>
<text transform="matrix(1 0 0 1 453.4075 437.8127)" class="st7 st8">Albania</text>
<text transform="matrix(1 0 0 1 500.5358 437.813)" class="st7 st8">Ecuador</text>
<text transform="matrix(1 0 0 1 554.5426 437.8119)" class="st7 st8">Gabon</text>
</svg>
