<svg xmlns="http://www.w3.org/2000/svg" viewBox="0 0 300 344.53" xmlns:v="https://vecta.io/nano"><style><![CDATA[.L{font-size:10px}.M{font-family:IBMPlexSerif}.N{stroke-dasharray:2.0036,2.0036}.O{font-family:IBMPlexSerif-Light}.P{stroke-miterlimit:10}.Q{fill:#939393}.R{font-family:IBMPlexSerif-SemiBold}]]></style><g fill="none" stroke="#878787" stroke-width=".5" class="P"><path d="M234.1 324.48v-1"/><path d="M234.1 321.48V46" class="N"/><path d="M234.1 45v-1m-59.45 280.48v-1"/><path d="M174.65 321.48V46" class="N"/><path d="M174.65 45v-1m-56.2 280.48v-1"/><path d="M118.44 321.48V46" class="N"/><path d="M118.44 45v-1m-57 280.48v-1"/><path d="M61.44 321.48V46" class="N"/><path d="M61.44 45v-1"/></g><path d="M3.323 312.787v-18.36h294.94v18.36zm-.003-20.4v-18.36h93.85v18.36zm.002-21.088v-18.36h72.1v18.36z" class="Q"/><path d="M3.325 65.674v-18.36h3.74v18.36z" fill="#c54343"/><path d="M3.323 86.236v-18.36h3.74v18.36z" class="Q"/><path d="M3.322 106.8V88.44h5.35v18.36zm.001 20.316v-18.36h7.07v18.36zm-.001 20.976v-18.36h9.78v18.36zm0 20.62v-18.36h9.78v18.36z" fill="#c54343"/><path d="M3.323 189.135v-18.36h26.46v18.36zm0 20.62v-18.36h29.34v18.36zm-.625 20.457v-18.36h40.42v18.36zm.008 20.538V232.4h62.9v18.36z" class="Q"/><path d="M3.32 315.48V44" fill="none" stroke="#000" class="P"/><text transform="translate(236.625 58.434)" class="L M">South Sudan</text><text transform="translate(264.154 79.088)" class="L M">Eritrea</text><text transform="translate(269.165 99.741)" class="L M">C._1_.R.</text><text transform="translate(236.645 161.702)" class="L M">Sierra Leone</text><text transform="translate(244.715 182.356)" class="L M">East Timor</text><text transform="translate(259.065 120.395)" class="L M">Rwanda</text><text transform="translate(272.934 141.049)" class="L M">Syria</text><text transform="translate(247.814 203.01)" class="L M">Venezuela</text><text transform="translate(262.474 223.663)" class="L M">Bhutan</text><text transform="translate(260.655 244.317)" class="L M">Albania</text><text transform="translate(257.445 264.971)" class="L M">Ecuador</text><text transform="translate(266.445 285.625)" class="L M">Gabon</text><text transform="translate(258.054 306.278)" class="L M">Bahrain</text><path d="M67.04 315.48V44" fill="none" stroke="#000" class="P"/><text><tspan font-size="8" x="69.901" y="53.561" class="M">Global</tspan><tspan y="63.161" font-size="8" x="69.901" class="M">median</tspan></text><text transform="translate(26.846 324.482)" class="L O">$5,000</text><text transform="translate(78.001 324.482)" class="L O">$10,000</text><text transform="translate(134.214 324.482)" class="L O">$15,000</text><text transform="translate(193.521 324.482)" class="L O">$20,000</text><text transform="translate(85.736 341.224)" font-size="12" class="M">Nominal G._2_.P. per capita</text><text><tspan font-size="12" x="3.001" y="12.964" class="R">Migration booms due to civil wars</tspan><tspan y="27.364" font-size="12" x="3.001" class="R">happen in poor countries</tspan></text></svg>