<?xml version="1.0" encoding="utf-8"?>
<!-- Generator: Adobe Illustrator 24.1.2, SVG Export Plug-In . SVG Version: 6.00 Build 0)  -->
<svg version="1.1" id="Layer_1" xmlns="http://www.w3.org/2000/svg" xmlns:xlink="http://www.w3.org/1999/xlink" x="0px" y="0px"
	 viewBox="0 0 300 344.53" style="enable-background:new 0 0 300 344.53;" xml:space="preserve">
<style type="text/css">
	.st0{fill:none;stroke:#878787;stroke-width:0.5;stroke-miterlimit:10;}
	.st1{fill:none;stroke:#878787;stroke-width:0.5;stroke-miterlimit:10;stroke-dasharray:2.0031,2.0031;}
	.st2{fill:none;stroke:#878787;stroke-width:0.5;stroke-miterlimit:10;stroke-dasharray:2.005,2.005;}
	.st3{fill:none;stroke:#878787;stroke-width:0.5;stroke-miterlimit:10;stroke-dasharray:1.9983,1.9983;}
	.st4{fill:#939393;}
	.st5{fill:#C54343;}
	.st6{fill:none;stroke:#000000;stroke-miterlimit:10;}
	.st7{fill:none;stroke:#878787;stroke-width:0.5;stroke-miterlimit:10;stroke-dasharray:2.0036,2.0036;}
	.st8{font-family:'IBMPlexSerif';}
	.st9{font-size:10px;}
	.st10{font-size:8px;}
	.st11{font-family:'IBMPlexSerif-Light';}
	.st12{font-size:12px;}
	.st13{font-family:'IBMPlexSerif-SemiBold';}
</style>
<g>
	<g>
		<line class="st0" x1="234.11" y1="324.48" x2="234.11" y2="323.48"/>
		<line class="st7" x1="234.11" y1="321.48" x2="234.11" y2="45.99"/>
		<line class="st0" x1="234.11" y1="44.99" x2="234.11" y2="43.99"/>
	</g>
</g>
<g>
	<g>
		<line class="st0" x1="174.65" y1="324.48" x2="174.65" y2="323.48"/>
		<line class="st7" x1="174.65" y1="321.48" x2="174.65" y2="45.99"/>
		<line class="st0" x1="174.65" y1="44.99" x2="174.65" y2="43.99"/>
	</g>
</g>
<g>
	<g>
		<line class="st0" x1="118.44" y1="324.48" x2="118.44" y2="323.48"/>
		<line class="st7" x1="118.44" y1="321.48" x2="118.44" y2="45.99"/>
		<line class="st0" x1="118.44" y1="44.99" x2="118.44" y2="43.99"/>
	</g>
</g>
<g>
	<g>
		<line class="st0" x1="61.44" y1="324.48" x2="61.44" y2="323.48"/>
		<line class="st7" x1="61.44" y1="321.48" x2="61.44" y2="45.99"/>
		<line class="st0" x1="61.44" y1="44.99" x2="61.44" y2="43.99"/>
	</g>
</g>
<rect x="141.61" y="156.14" transform="matrix(6.123234e-17 -1 1 6.123234e-17 -152.8174 454.397)" class="st4" width="18.36" height="294.94"/>
<rect x="41.07" y="236.28" transform="matrix(6.123234e-17 -1 1 6.123234e-17 -232.9603 333.4576)" class="st4" width="18.36" height="93.85"/>
<rect x="30.19" y="226.06" transform="matrix(6.123234e-17 -1 1 6.123234e-17 -222.7377 301.4892)" class="st4" width="18.36" height="72.11"/>
<rect x="-3.99" y="54.62" transform="matrix(6.123234e-17 -1 1 6.123234e-17 -51.2948 61.6835)" class="st5" width="18.36" height="3.74"/>
<rect x="-3.99" y="75.18" transform="matrix(6.123234e-17 -1 1 6.123234e-17 -71.8572 82.2459)" class="st4" width="18.36" height="3.74"/>
<rect x="-3.19" y="94.94" transform="matrix(6.123234e-17 -1 1 6.123234e-17 -91.6178 103.6102)" class="st5" width="18.36" height="5.35"/>
<rect x="-2.33" y="114.4" transform="matrix(6.123234e-17 -1 1 6.123234e-17 -111.077 124.7863)" class="st5" width="18.36" height="7.07"/>
<rect x="-0.97" y="134.02" transform="matrix(6.123234e-17 -1 1 6.123234e-17 -130.6983 147.1216)" class="st5" width="18.36" height="9.78"/>
<rect x="-0.97" y="154.64" transform="matrix(6.123234e-17 -1 1 6.123234e-17 -151.3184 167.7417)" class="st5" width="18.36" height="9.78"/>
<rect x="7.37" y="166.72" transform="matrix(6.123234e-17 -1 1 6.123234e-17 -163.397 196.5049)" class="st4" width="18.36" height="26.46"/>
<rect x="8.81" y="185.9" transform="matrix(6.123234e-17 -1 1 6.123234e-17 -182.5773 218.5647)" class="st4" width="18.36" height="29.34"/>
<rect x="13.73" y="200.82" transform="matrix(6.123234e-17 -1 1 6.123234e-17 -198.122 243.9423)" class="st4" width="18.36" height="40.42"/>
<rect x="24.98" y="210.12" transform="matrix(6.123234e-17 -1 1 6.123234e-17 -207.4143 275.7314)" class="st4" width="18.36" height="62.91"/>
<line class="st6" x1="3.32" y1="315.48" x2="3.32" y2="43.99"/>
<text transform="matrix(1 0 0 1 236.6246 58.434)" class="st8 st9">South Sudan</text>
<text transform="matrix(1 0 0 1 264.1544 79.0876)" class="st8 st9">Eritrea</text>
<text transform="matrix(1 0 0 1 269.1646 99.7411)" class="st8 st9">C.A.R.</text>
<text transform="matrix(1 0 0 1 236.6446 161.7022)" class="st8 st9">Sierra Leone</text>
<text transform="matrix(1 0 0 1 244.715 182.3563)" class="st8 st9">East Timor</text>
<text transform="matrix(1 0 0 1 259.0645 120.3951)" class="st8 st9">Rwanda</text>
<text transform="matrix(1 0 0 1 272.9342 141.0485)" class="st8 st9">Syria</text>
<text transform="matrix(1 0 0 1 247.8144 203.0098)" class="st8 st9">Venezuela</text>
<text transform="matrix(1 0 0 1 262.4744 223.6633)" class="st8 st9">Bhutan</text>
<text transform="matrix(1 0 0 1 260.6546 244.3173)" class="st8 st9">Albania</text>
<text transform="matrix(1 0 0 1 257.4446 264.971)" class="st8 st9">Ecuador</text>
<text transform="matrix(1 0 0 1 266.4445 285.6246)" class="st8 st9">Gabon</text>
<text transform="matrix(1 0 0 1 258.0542 306.2784)" class="st8 st9">Bahrain</text>
<line class="st6" x1="67.04" y1="315.48" x2="67.04" y2="43.99"/>
<text transform="matrix(1 0 0 1 69.9006 53.5613)"><tspan x="0" y="0" class="st8 st10">Global</tspan><tspan x="0" y="9.6" class="st8 st10">median</tspan></text>
<text transform="matrix(1 0 0 1 26.8458 324.4824)" class="st11 st9">$5,000</text>
<text transform="matrix(1 0 0 1 78.0006 324.4817)" class="st11 st9">$10,000</text>
<text transform="matrix(1 0 0 1 134.214 324.4824)" class="st11 st9">$15,000</text>
<text transform="matrix(1 0 0 1 193.5208 324.4816)" class="st11 st9">$20,000</text>
<text transform="matrix(1 0 0 1 85.736 341.2243)" class="st8 st12">Nominal G.D.P. per capita</text>
<text transform="matrix(1 0 0 1 3.0005 12.9638)"><tspan x="0" y="0" class="st13 st12">Migration booms due to civil wars</tspan><tspan x="0" y="14.4" class="st13 st12">happen in poor countries</tspan></text>
</svg>
