<?xml version="1.0" encoding="utf-8"?>
<!-- Generator: Adobe Illustrator 24.1.2, SVG Export Plug-In . SVG Version: 6.00 Build 0)  -->
<svg version="1.1" id="Layer_1" xmlns="http://www.w3.org/2000/svg" xmlns:xlink="http://www.w3.org/1999/xlink" x="0px" y="0px"
	 viewBox="0 0 650 454.78" style="enable-background:new 0 0 650 454.78;" xml:space="preserve">
<style type="text/css">
	.st0{fill:none;stroke:#878787;stroke-width:0.5;stroke-miterlimit:10;}
	.st1{fill:none;stroke:#878787;stroke-width:0.5;stroke-miterlimit:10;stroke-dasharray:2.0031,2.0031;}
	.st2{fill:#D88271;}
	.st3{font-family:'IBMPlexSerif-SemiBold';}
	.st4{font-size:12px;}
	.st5{fill:#4E9695;}
	.st6{fill:none;stroke:#000000;stroke-miterlimit:10;}
	.st7{font-family:'IBMPlexSerif-Light';}
	.st8{font-size:10px;}
	.st9{font-family:'IBMPlexSerif';}
	.st10{fill-rule:evenodd;clip-rule:evenodd;fill:#D1D3D4;stroke:#FFFFFF;stroke-width:0.5;stroke-linejoin:round;}
	.st11{fill-rule:evenodd;clip-rule:evenodd;fill:#6D7C93;stroke:#FFFFFF;stroke-width:0.5;stroke-linejoin:round;}
	.st12{fill:#FFFFFF;}
	.st13{font-family:'IBMPlexSans';}
	.st14{font-family:'IBMPlexSans-Light';}
	.st15{fill:none;stroke:#878787;stroke-width:0.5;stroke-miterlimit:10;stroke-dasharray:1.9907,1.9907;}
	.st16{fill:none;stroke:#878787;stroke-width:0.5;stroke-miterlimit:10;stroke-dasharray:2.0046,2.0046;}
	.st17{fill:none;stroke:#878787;stroke-width:0.5;stroke-miterlimit:10;stroke-dasharray:2.0819,2.0819;}
</style>
<g>
	<g>
		<line class="st0" x1="641.44" y1="169.66" x2="640.44" y2="169.66"/>
		<line class="st1" x1="638.44" y1="169.66" x2="6.47" y2="169.4"/>
		<line class="st0" x1="5.47" y1="169.4" x2="4.47" y2="169.4"/>
	</g>
</g>
<g>
	<g>
		<line class="st0" x1="641.44" y1="302.66" x2="640.44" y2="302.66"/>
		<line class="st1" x1="638.44" y1="302.66" x2="6.47" y2="302.4"/>
		<line class="st0" x1="5.47" y1="302.4" x2="4.47" y2="302.4"/>
	</g>
</g>
<rect x="45.98" y="343.71" transform="matrix(-1 -1.224647e-16 1.224647e-16 -1 135.4229 778.5835)" class="st2" width="43.47" height="91.17"/>
<text transform="matrix(1 0 0 1 2.6159 15.6892)" class="st3 st4">Destinations of migrants from Sierra Leone</text>
<rect x="89.45" y="72.16" transform="matrix(-1 -1.224647e-16 1.224647e-16 -1 222.3585 507.0307)" class="st5" width="43.47" height="362.72"/>
<rect x="146.13" y="425.1" transform="matrix(-1 -1.224647e-16 1.224647e-16 -1 335.7224 859.9777)" class="st2" width="43.47" height="9.77"/>
<rect x="189.6" y="270.53" transform="matrix(-1 -1.224647e-16 1.224647e-16 -1 422.658 705.405)" class="st5" width="43.47" height="164.34"/>
<rect x="244" y="425.1" transform="matrix(-1 -1.224647e-16 1.224647e-16 -1 531.4768 859.9777)" class="st2" width="43.47" height="9.77"/>
<rect x="287.47" y="415.85" transform="matrix(-1 -1.224647e-16 1.224647e-16 -1 618.4124 850.7206)" class="st5" width="43.47" height="19.03"/>
<rect x="344.29" y="419.2" transform="matrix(-1 -1.224647e-16 1.224647e-16 -1 732.0378 853.8145)" class="st2" width="43.47" height="15.42"/>
<rect x="387.75" y="419.2" transform="matrix(-1 -1.224647e-16 1.224647e-16 -1 818.9734 853.8145)" class="st5" width="43.47" height="15.42"/>
<rect x="444.83" y="426.91" transform="matrix(-1 -1.224647e-16 1.224647e-16 -1 933.1312 861.7822)" class="st2" width="43.47" height="7.97"/>
<rect x="488.3" y="419.2" transform="matrix(-1 -1.224647e-16 1.224647e-16 -1 1020.0668 854.072)" class="st5" width="43.47" height="15.68"/>
<rect x="543.91" y="419.77" transform="matrix(-1 -1.224647e-16 1.224647e-16 -1 1131.2888 854.3833)" class="st2" width="43.47" height="14.85"/>
<rect x="587.38" y="404.91" transform="matrix(-1 -1.224647e-16 1.224647e-16 -1 1218.2245 839.5317)" class="st5" width="43.47" height="29.7"/>
<line class="st6" x1="641.44" y1="435.14" x2="4.47" y2="434.87"/>
<text transform="matrix(1 0 0 1 4.4677 153.5677)"><tspan x="0" y="0" class="st7 st8">200,000</tspan><tspan x="0" y="12" class="st7 st8">migrants</tspan></text>
<text transform="matrix(1 0 0 1 4.4673 298.8984)" class="st7 st8">100,000</text>
<text transform="matrix(1 0 0 1 68.5261 450.0722)" class="st9 st4">Guinea</text>
<text transform="matrix(1 0 0 1 168.9911 450.0717)" class="st9 st4">Liberia</text>
<text transform="matrix(1 0 0 1 248.8923 450.0717)" class="st9 st4">United States</text>
<text transform="matrix(1 0 0 1 365.0726 450.0713)" class="st9 st4">Senegal</text>
<text transform="matrix(1 0 0 1 440.6897 450.0717)" class="st9 st4">United Kingdom</text>
<text transform="matrix(1 0 0 1 541.9824 450.0708)" class="st9 st4">Other countries</text>
<rect x="306.97" y="26.93" transform="matrix(-1 -1.224647e-16 1.224647e-16 -1 657.4163 63.5872)" class="st2" width="43.47" height="9.73"/>
<rect x="353.44" y="26.93" transform="matrix(-1 -1.224647e-16 1.224647e-16 -1 750.3525 63.5872)" class="st5" width="43.47" height="9.73"/>
<text transform="matrix(1 0 0 1 314.4586 22.0159)" class="st9 st4">1990</text>
<text transform="matrix(1 0 0 1 360.9268 22.0158)" class="st9 st4">1995</text>
<path id="GN" class="st10" d="M527.23,19.92l-3.63,1.81l-13.61-2.27l-1.81,3.18l-5.9,0.45l-18.14-6.8l-12.25-0.45l-0.45,9.53
	l-2.72,3.18l1.81,9.53l-3.63,4.08H461l-6.35,4.54l-7.71-0.45l-11.79,14.06l7.26,4.99l3.63,6.35l3.18,12.7l5.9,5.44l6.8,4.08
	l9.52,11.34l10.89,16.78l13.61-12.7l3.18-7.71l4.54-6.35l6.8-0.91l5.9-5.44h20.41l6.8,10.43l5.44,12.25l-0.91,8.16l4.08,7.71v10.43
	l6.8-1.36l5.44-0.91l6.8-3.18l10.43,17.69l-1.81,11.79l4.99,5.9l7.26,0.45l4.99-11.79l7.26,0.91h4.08l1.36-12.7l-1.81-5.44
	l2.72-4.08l9.07-3.63l-5.9-23.13l-5.9-11.79l2.27-9.98l4.99-2.27l-7.71-8.16l1.36-8.62l-3.18-3.18l-5.44,2.72l0.91-9.53l5.44-7.26
	l-10.43-12.25l-2.72-7.71l-5.9-6.35l-4.99-0.91l-5.9,4.08l-8.16,3.63l-7.26,6.35l-10.89-2.27l-6.8-7.26l-4.08-0.91l-6.8,3.63h-4.08
	L527.23,19.92L527.23,19.92z"/>
<path id="LR" class="st10" d="M604.33,157.36l-7.26-0.91l-4.99,11.79l-7.26-0.45l-4.99-5.9l1.81-11.79l-10.43-17.69l-6.8,3.18
	l-5.44,0.91l-11.79,13.61l-11.79,15.42l-1.36,8.62l-5.9,9.07l16.78,18.6l21.77,15.88l23.13,21.77l25.85,14.06l6.8-0.45l2.27-23.59
	l2.27-3.63l-0.91-11.34l-10.43-12.25l-8.16-1.81l-7.26-8.16l5.44-12.7l-2.72-14.06L604.33,157.36L604.33,157.36z"/>
<path id="SL" class="st11" d="M558.98,136.49l-6.8,1.36v-10.43l-4.08-7.71l0.91-8.16l-5.44-12.25l-6.8-10.43h-20.41l-5.9,5.44
	l-6.8,0.91l-4.54,6.35l-3.18,7.71l-13.61,12.7l3.18,21.32l4.08,10.43l13.15,15.88l18.6,11.34l6.8,2.27l5.9-9.07l1.36-8.62
	l11.79-15.42L558.98,136.49L558.98,136.49z"/>
<text transform="matrix(1 0 0 1 495.915 132.4107)"><tspan x="0" y="0" class="st12 st13 st4">SIERRA</tspan><tspan x="2.42" y="14.4" class="st12 st13 st4">LEONE</tspan></text>
<text transform="matrix(1 0 0 1 510.1348 71.3966)" class="st14 st4">GUINEA</text>
<text transform="matrix(1 0 0 1 546.4756 187.462)" class="st14 st4">LIBERIA</text>
</svg>
