<svg xmlns="http://www.w3.org/2000/svg" viewBox="0 0 650 454.78" xmlns:v="https://vecta.io/nano"><style><![CDATA[.P{font-size:12px}.Q{font-family:IBMPlexSerif}.R{fill:#d88271}.S{fill:#4e9695}.T{font-family:IBMPlexSerif-Light}.U{stroke-miterlimit:10}.V{stroke-dasharray:2.0031,2.0031}.W{stroke-linejoin:round}.X{font-family:IBMPlexSans}.Y{font-family:IBMPlexSans-Light}]]></style><g fill="none" stroke="#878787" stroke-width=".5" class="U"><path d="M641.44 169.66h-1"/><path d="M638.44 169.66L6.47 169.4" class="V"/><path d="M5.47 169.4h-1m636.97 133.26h-1"/><path d="M638.44 302.66L6.47 302.4" class="V"/><path d="M5.47 302.4h-1"/></g><path d="M89.443 434.874h-43.47v-91.17h43.47z" class="R"/><text transform="translate(2.616 15.689)" font-family="IBMPlexSerif-SemiBold" class="P">Destinations of migrants from Sierra Leone</text><path d="M132.91 434.87H89.44V72.15h43.47z" class="S"/><path d="M189.592 434.878h-43.47v-9.77h43.47z" class="R"/><path d="M233.058 434.875h-43.47v-164.34h43.47z" class="S"/><path d="M287.477 434.878h-43.47v-9.77h43.47z" class="R"/><path d="M330.942 434.87h-43.47v-19.03h43.47z" class="S"/><path d="M387.748 434.614h-43.47v-15.42h43.47z" class="R"/><path d="M431.223 434.614h-43.47v-15.42h43.47z" class="S"/><path d="M488.3 434.872h-43.47v-7.97h43.47z" class="R"/><path d="M531.767 434.872h-43.47v-15.68h43.47z" class="S"/><path d="M587.38 434.613h-43.47v-14.85h43.47z" class="R"/><path d="M630.844 434.622h-43.47v-29.7h43.47z" class="S"/><path d="M641.44 435.14l-636.97-.27" fill="none" stroke="#000" class="U"/><text><tspan font-size="10" x="4.468" y="153.568" class="T">200,000</tspan><tspan y="165.568" font-size="10" x="4.468" class="T">migrants</tspan></text><text transform="translate(4.467 298.898)" font-size="10" class="T">100,000</text><text transform="translate(68.526 450.072)" class="P Q">Guinea</text><text transform="translate(168.991 450.072)" class="P Q">Liberia</text><text transform="translate(248.892 450.072)" class="P Q">United States</text><text transform="translate(365.073 450.071)" class="P Q">Senegal</text><text transform="translate(440.69 450.072)" class="P Q">United Kingdom</text><text transform="translate(541.982 450.071)" class="P Q">Other countries</text><path d="M350.446 36.657h-43.47v-9.73h43.47z" class="R"/><path d="M396.912 36.657h-43.47v-9.73h43.47z" class="S"/><text transform="translate(314.459 22.016)" class="P Q">1990</text><text transform="translate(360.927 22.016)" class="P Q">1995</text><g stroke-width=".5" fill-rule="evenodd" class="W"><g fill="#d1d3d4" stroke="#fff"><path d="M527.23 19.92l-3.63 1.8-13.6-2.27-1.8 3.18-5.9.45-18.14-6.8-12.25-.45-.45 9.53-2.72 3.18 1.8 9.53-3.63 4.08H461l-6.35 4.54-7.7-.45-11.8 14.06 7.26 5 3.63 6.35 3.18 12.7 5.9 5.44 6.8 4.08 9.52 11.34 10.9 16.78 13.6-12.7 3.18-7.7 4.54-6.35 6.8-.9 5.9-5.44h20.4l6.8 10.43 5.44 12.25-.9 8.16 4.08 7.7v10.43l6.8-1.36 5.44-.9 6.8-3.18 10.43 17.7-1.8 11.8 5 5.9 7.26.45 5-11.8 7.26.9h4.08l1.36-12.7-1.8-5.44 2.72-4.08 9.07-3.63-5.9-23.13-5.9-11.8 2.27-9.98 5-2.27-7.7-8.16 1.36-8.62-3.18-3.18-5.44 2.72.9-9.53 5.44-7.26-10.43-12.25-2.72-7.7-5.9-6.35-5-.9-5.9 4.08-8.16 3.63-7.26 6.35-10.9-2.27-6.8-7.26-4.08-.9-6.8 3.63h-4.08l-1.36-10.42z"/><path d="M604.33 157.36l-7.26-.9-5 11.8-7.26-.45-5-5.9 1.8-11.8-10.43-17.7-6.8 3.18-5.44.9-11.8 13.6-11.8 15.42-1.36 8.62-5.9 9.07 16.78 18.6 21.77 15.88 23.13 21.77 25.85 14.06 6.8-.45 2.27-23.6 2.27-3.63-.9-11.34-10.43-12.25-8.16-1.8-7.26-8.16 5.44-12.7-2.72-14.06 1.37-8.18z"/></g><path d="M558.98 136.5l-6.8 1.36v-10.43l-4.08-7.7.9-8.16-5.44-12.25-6.8-10.43h-20.4l-5.9 5.44-6.8.9-4.54 6.35-3.18 7.7-13.6 12.7 3.18 21.32 4.08 10.43 13.15 15.88 18.6 11.34 6.8 2.27 5.9-9.07 1.36-8.62 11.8-15.42 11.8-13.62z" fill="#6d7c93" stroke="#fff"/></g><text><tspan fill="#fff" x="495.915" y="132.411" class="P X">SIERRA</tspan><tspan x="498.335" y="146.811" fill="#fff" class="P X">LEONE</tspan></text><text transform="translate(510.135 71.397)" class="P Y">GUINEA</text><text transform="translate(546.476 187.462)" class="P Y">LIBERIA</text></svg>