<?xml version="1.0" encoding="utf-8"?>
<!-- Generator: Adobe Illustrator 24.1.2, SVG Export Plug-In . SVG Version: 6.00 Build 0)  -->
<svg version="1.1" id="Layer_1" xmlns="http://www.w3.org/2000/svg" xmlns:xlink="http://www.w3.org/1999/xlink" x="0px" y="0px"
	 viewBox="0 0 300 324.61" style="enable-background:new 0 0 300 324.61;" xml:space="preserve">
<style type="text/css">
	.st0{fill:none;stroke:#878787;stroke-width:0.5;stroke-miterlimit:10;}
	.st1{fill:none;stroke:#878787;stroke-width:0.5;stroke-miterlimit:10;stroke-dasharray:2.0031,2.0031;}
	.st2{fill:#D88271;}
	.st3{font-family:'IBMPlexSerif-SemiBold';}
	.st4{font-size:12px;}
	.st5{fill:#4E9695;}
	.st6{fill:none;stroke:#000000;stroke-miterlimit:10;}
	.st7{fill-rule:evenodd;clip-rule:evenodd;fill:#D1D3D4;stroke:#FFFFFF;stroke-width:0.5;stroke-linejoin:round;}
	.st8{fill-rule:evenodd;clip-rule:evenodd;fill:#6D7C93;stroke:#FFFFFF;stroke-width:0.5;stroke-linejoin:round;}
	.st9{fill:none;stroke:#878787;stroke-width:0.5;stroke-miterlimit:10;stroke-dasharray:1.9907,1.9907;}
	.st10{fill:none;stroke:#878787;stroke-width:0.5;stroke-miterlimit:10;stroke-dasharray:2.0046,2.0046;}
	.st11{font-family:'IBMPlexSerif';}
	.st12{font-family:'IBMPlexSerif-Light';}
	.st13{font-size:10px;}
	.st14{fill:#FFFFFF;}
	.st15{font-family:'IBMPlexSans';}
	.st16{font-family:'IBMPlexSans-Light';}
	.st17{fill:none;stroke:#878787;stroke-width:0.5;stroke-miterlimit:10;stroke-dasharray:2.0819,2.0819;}
</style>
<text transform="matrix(1 0 0 1 3.0005 12.9638)" class="st3 st4">Destinations of migrants from Sierra Leone</text>
<g>
	<g>
		<line class="st0" x1="215.08" y1="113.65" x2="215.08" y2="112.65"/>
		<line class="st9" x1="215.08" y1="110.66" x2="215.08" y2="28.04"/>
		<line class="st0" x1="215.08" y1="27.05" x2="215.08" y2="26.05"/>
	</g>
</g>
<g>
	<g>
		<line class="st0" x1="109.08" y1="318.71" x2="109.08" y2="317.71"/>
		<line class="st10" x1="109.09" y1="315.71" x2="109.29" y2="28.05"/>
		<line class="st0" x1="109.29" y1="27.05" x2="109.29" y2="26.05"/>
	</g>
</g>
<g>
	
		<rect x="33.51" y="9.18" transform="matrix(-8.988432e-07 -1 1 -8.988432e-07 -5.2661 85.6075)" class="st2" width="13.33" height="72.52"/>
	
		<rect x="141.51" y="-85.5" transform="matrix(-8.988432e-07 -1 1 -8.988432e-07 89.41 206.9342)" class="st5" width="13.33" height="288.52"/>
</g>
<g>
	
		<rect x="1.14" y="91.35" transform="matrix(-8.988432e-07 -1 1 -8.988432e-07 -87.4342 103.0319)" class="st2" width="13.33" height="7.77"/>
	
		<rect x="62.61" y="43.2" transform="matrix(-8.988432e-07 -1 1 -8.988432e-07 -39.2832 177.8335)" class="st5" width="13.33" height="130.73"/>
</g>
<g>
	
		<rect x="1.14" y="141.14" transform="matrix(-8.988432e-07 -1 1 -8.988432e-07 -137.2304 152.8282)" class="st2" width="13.33" height="7.77"/>
	
		<rect x="4.82" y="150.79" transform="matrix(-8.988432e-07 -1 1 -8.988432e-07 -146.8741 169.8353)" class="st5" width="13.33" height="15.14"/>
</g>
<g>
	
		<rect x="3.59" y="188.69" transform="matrix(-8.988432e-07 -1 1 -8.988432e-07 -184.5754 205.0757)" class="st2" width="13.33" height="12.27"/>
	
		<rect x="3.59" y="202.02" transform="matrix(-8.988432e-07 -1 1 -8.988432e-07 -197.9008 218.4011)" class="st5" width="13.33" height="12.27"/>
</g>
<g>
	
		<rect x="0.42" y="241.45" transform="matrix(-8.988432e-07 -1 1 -8.988432e-07 -237.5405 251.7031)" class="st2" width="13.33" height="6.34"/>
	
		<rect x="3.48" y="251.71" transform="matrix(-8.988431e-07 -1 1 -8.988431e-07 -247.7994 268.095)" class="st5" width="13.33" height="12.47"/>
</g>
<g>
	
		<rect x="3.36" y="288.51" transform="matrix(-8.988431e-07 -1 1 -8.988431e-07 -284.394 304.4421)" class="st2" width="13.33" height="11.81"/>
	
		<rect x="9.27" y="295.93" transform="matrix(-8.988432e-07 -1 1 -8.988432e-07 -291.8127 323.6742)" class="st5" width="13.33" height="23.63"/>
</g>
<text transform="matrix(1 0 0 1 5.8091 35.7739)" class="st11 st4">Guinea</text>
<text transform="matrix(1 0 0 1 5.8089 85.5701)" class="st11 st4">Liberia</text>
<text transform="matrix(1 0 0 1 6.1173 135.3663)" class="st11 st4">United States</text>
<text transform="matrix(1 0 0 1 5.809 185.1629)" class="st11 st4">Senegal</text>
<text transform="matrix(1 0 0 1 5.8088 234.9588)" class="st11 st4">United Kingdom</text>
<text transform="matrix(1 0 0 1 6.1172 284.7551)" class="st11 st4">Other countries</text>
<line class="st0" x1="3.64" y1="318.71" x2="3.85" y2="26.05"/>
<text transform="matrix(1 0 0 1 217.9793 33.1929)" class="st12 st13">200,000</text>
<text transform="matrix(1 0 0 1 111.1869 33.1927)" class="st12 st13">100,000 migrants</text>
<path id="GN_1_" class="st7" d="M225.3,155.86l-2.53,1.26l-9.47-1.58l-1.26,2.21l-4.1,0.32l-12.63-4.74l-8.52-0.32l-0.32,6.63
	l-1.89,2.21l1.26,6.63l-2.53,2.84h-4.1l-4.42,3.16l-5.37-0.32l-8.21,9.79l5.05,3.47l2.53,4.42l2.21,8.84l4.1,3.79l4.74,2.84
	l6.63,7.89l7.58,11.68l9.47-8.84l2.21-5.37l3.16-4.42l4.74-0.63l4.1-3.79h14.21l4.74,7.26l3.79,8.52l-0.63,5.68l2.84,5.37v7.26
	l4.74-0.95l3.79-0.63l4.74-2.21l7.26,12.31l-1.26,8.21l3.47,4.1l5.05,0.32l3.47-8.21l5.05,0.63h2.84l0.95-8.84l-1.26-3.79l1.89-2.84
	l6.31-2.53l-4.1-16.1l-4.1-8.21l1.58-6.94l3.47-1.58l-5.37-5.68l0.95-6l-2.21-2.21l-3.79,1.89l0.63-6.63l3.79-5.05l-7.26-8.52
	l-1.89-5.37l-4.1-4.42l-3.47-0.63l-4.1,2.84l-5.68,2.53l-5.05,4.42l-7.58-1.58l-4.74-5.05l-2.84-0.63l-4.74,2.53h-2.84L225.3,155.86
	L225.3,155.86z"/>
<path id="LR_1_" class="st7" d="M278.96,251.51l-5.05-0.63l-3.47,8.21l-5.05-0.32l-3.47-4.1l1.26-8.21l-7.26-12.31l-4.74,2.21
	l-3.79,0.63l-8.21,9.47l-8.21,10.73l-0.95,6l-4.1,6.31l11.68,12.94l15.15,11.05l16.1,15.15l17.99,9.79l4.74-0.32l1.58-16.41
	l1.58-2.53l-0.63-7.89l-7.26-8.52l-5.68-1.26l-5.05-5.68l3.79-8.84l-1.89-9.79L278.96,251.51L278.96,251.51z"/>
<path id="SL_1_" class="st8" d="M247.39,236.98l-4.74,0.95v-7.26l-2.84-5.37l0.63-5.68l-3.79-8.52l-4.74-7.26h-14.21l-4.1,3.79
	l-4.74,0.63l-3.16,4.42l-2.21,5.37l-9.47,8.84l2.21,14.84l2.84,7.26l9.15,11.05l12.94,7.89l4.74,1.58l4.1-6.31l0.95-6l8.21-10.73
	L247.39,236.98L247.39,236.98z"/>
<text transform="matrix(1 0 0 1 197.1484 234.1431)"><tspan x="0" y="0" class="st14 st15 st4">SIERRA</tspan><tspan x="2.42" y="14.4" class="st14 st15 st4">LEONE</tspan></text>
<text transform="matrix(1 0 0 1 206.7582 191.6802)" class="st16 st4">GUINEA</text>
<text transform="matrix(1 0 0 1 231.8637 272.4575)" class="st16 st4">LIBERIA</text>
<rect x="180.96" y="133.2" transform="matrix(-1 -1.224647e-16 1.224647e-16 -1 405.3893 276.1329)" class="st2" width="43.47" height="9.73"/>
<rect x="227.43" y="133.2" transform="matrix(-1 -1.224647e-16 1.224647e-16 -1 498.3254 276.1329)" class="st5" width="43.47" height="9.73"/>
<text transform="matrix(1 0 0 1 188.4451 128.2887)" class="st11 st4">1990</text>
<text transform="matrix(1 0 0 1 234.9132 128.2887)" class="st11 st4">1995</text>
<g>
	<g>
		<line class="st0" x1="214.52" y1="317.26" x2="214.52" y2="316.26"/>
		<line class="st17" x1="214.52" y1="314.18" x2="214.52" y2="269.41"/>
		<line class="st0" x1="214.52" y1="268.37" x2="214.52" y2="267.37"/>
	</g>
</g>
</svg>
