<svg xmlns="http://www.w3.org/2000/svg" viewBox="0 0 300 324.61" xmlns:v="https://vecta.io/nano"><style><![CDATA[.Q{font-size:12px}.R{font-family:IBMPlexSerif}.S{fill:#d88271}.T{fill:#4e9695}.U{stroke-width:.5}.V{stroke:#878787}.W{stroke-miterlimit:10}.X{font-family:IBMPlexSerif-Light}.Y{stroke-linejoin:round}.Z{font-family:IBMPlexSans}.a{font-family:IBMPlexSans-Light}]]></style><text transform="translate(3.001 12.964)" font-family="IBMPlexSerif-SemiBold" class="Q">Destinations of migrants from Sierra Leone</text><g fill="none" class="U V W"><path d="M215.08 113.65v-1"/><path d="M215.08 110.66V28.04" stroke-dasharray="1.9907,1.9907"/><path d="M215.08 27.05v-1m-106 292.65v-1"/><path d="M109.1 315.7l.2-287.66" stroke-dasharray="2.0046,2.0046"/><path d="M109.3 27.05v-1"/></g><path d="M3.914 52.097v-13.33h72.52v13.33z" class="S"/><path d="M3.9 65.424v-13.33h288.52v13.33z" class="T"/><path d="M3.916 101.892v-13.33h7.77v13.33z" class="S"/><path d="M3.917 115.223v-13.33h130.73v13.33z" class="T"/><path d="M3.9 151.688v-13.33h7.77v13.33z" class="S"/><path d="M3.916 165.015v-13.33h15.14v13.33z" class="T"/><path d="M4.115 201.486v-13.33h12.27v13.33z" class="S"/><path d="M4.12 214.81v-13.33h12.27v13.33z" class="T"/><path d="M3.91 251.283v-13.33h6.34v13.33z" class="S"/><path d="M3.91 264.615v-13.33h12.47v13.33z" class="T"/><path d="M4.116 301.082v-13.33h11.8v13.33z" class="S"/><path d="M4.117 314.404v-13.33h23.63v13.33z" class="T"/><text transform="translate(5.809 35.774)" class="Q R">Guinea</text><text transform="translate(5.809 85.57)" class="Q R">Liberia</text><text transform="translate(6.117 135.366)" class="Q R">United States</text><text transform="translate(5.809 185.163)" class="Q R">Senegal</text><text transform="translate(5.809 234.959)" class="Q R">United Kingdom</text><text transform="translate(6.117 284.755)" class="Q R">Other countries</text><path d="M3.64 318.7l.2-292.66" fill="none" class="U V W"/><text transform="translate(217.979 33.193)" font-size="10" class="X">200,000</text><text transform="translate(111.187 33.193)" font-size="10" class="X">100,000 migrants</text><g fill-rule="evenodd" class="U Y"><g fill="#d1d3d4" stroke="#fff"><path d="M225.3 155.86l-2.53 1.26-9.47-1.58-1.26 2.2-4.1.32-12.63-4.74-8.52-.32-.32 6.63-1.9 2.2 1.26 6.63-2.53 2.84h-4.1l-4.42 3.16-5.37-.32-8.2 9.8 5.05 3.47 2.53 4.42 2.2 8.84 4.1 3.8 4.74 2.84 6.63 7.9 7.58 11.68 9.47-8.84 2.2-5.37 3.16-4.42 4.74-.63 4.1-3.8h14.2l4.74 7.26 3.8 8.52-.63 5.68 2.84 5.37v7.26l4.74-.95 3.8-.63 4.74-2.2 7.26 12.3-1.26 8.2 3.47 4.1 5.05.32 3.47-8.2 5.05.63h2.84l.95-8.84-1.26-3.8 1.9-2.84 6.3-2.53-4.1-16.1-4.1-8.2 1.58-6.94 3.47-1.58-5.37-5.68.95-6-2.2-2.2-3.8 1.9.63-6.63 3.8-5.05-7.26-8.52-1.9-5.37-4.1-4.42-3.47-.63-4.1 2.84-5.68 2.53-5.05 4.42-7.58-1.58-4.74-5.05-2.84-.63-4.74 2.53h-2.84l-.98-7.24z"/><path d="M278.96 251.5l-5.05-.63-3.47 8.2-5.05-.32-3.47-4.1 1.26-8.2-7.26-12.3-4.74 2.2-3.8.63-8.2 9.47-8.2 10.73-.95 6-4.1 6.3 11.68 12.94 15.15 11.05 16.1 15.15 18 9.8 4.74-.32 1.58-16.4 1.58-2.53-.63-7.9-7.26-8.52-5.68-1.26-5.05-5.68 3.8-8.84-1.9-9.8.94-5.68z"/></g><path d="M247.4 236.98l-4.74.95v-7.26l-2.84-5.37.63-5.68-3.8-8.52-4.74-7.26h-14.2l-4.1 3.8-4.74.63-3.16 4.42-2.2 5.37-9.47 8.84 2.2 14.84 2.84 7.26 9.15 11.05 12.94 7.9 4.74 1.58 4.1-6.3.95-6 8.2-10.73 8.23-9.5z" fill="#6d7c93" stroke="#fff"/></g><text><tspan fill="#fff" x="197.148" y="234.143" class="Q Z">SIERRA</tspan><tspan x="199.568" y="248.543" fill="#fff" class="Q Z">LEONE</tspan></text><text transform="translate(206.758 191.68)" class="Q a">GUINEA</text><text transform="translate(231.864 272.458)" class="Q a">LIBERIA</text><path d="M224.43 142.933h-43.47v-9.73h43.47z" class="S"/><path d="M270.895 142.933h-43.47v-9.73h43.47z" class="T"/><text transform="translate(188.445 128.289)" class="Q R">1990</text><text transform="translate(234.913 128.289)" class="Q R">1995</text><g fill="none" class="U V W"><path d="M214.52 317.26v-1"/><path d="M214.52 314.18V269.4" stroke-dasharray="2.0819,2.0819"/><path d="M214.52 268.37v-1"/></g></svg>