<svg xmlns="http://www.w3.org/2000/svg" viewBox="0 0 650 454.78" xmlns:v="https://vecta.io/nano"><style><![CDATA[.Q{font-size:12px}.R{font-family:IBMPlexSerif}.S{fill:#d88271}.T{fill:#4e9695}.U{font-family:IBMPlexSans-Light}.V{stroke-width:.5}.W{stroke-miterlimit:10}.X{font-family:IBMPlexSerif-Light}.Y{stroke-linejoin:round}.Z{stroke-dasharray:2.0031,2.0031}]]></style><g fill="none" stroke="#878787" class="V W"><path d="M641.44 169.66h-1"/><path d="M638.44 169.66L6.47 169.4" class="Z"/><path d="M5.47 169.4h-1m636.97 133.26h-1"/><path d="M638.44 302.66L6.47 302.4" class="Z"/><path d="M5.47 302.4h-1"/></g><text transform="translate(2.616 15.689)" font-family="IBMPlexSerif-SemiBold" class="Q">Destinations of migrants from Syria</text><path d="M641.44 435.14l-636.97-.27" fill="none" stroke="#000" class="W"/><text><tspan font-size="10" x="4.468" y="153.568" class="X">2 million</tspan><tspan y="165.568" font-size="10" x="4.468" class="X">migrants</tspan></text><text transform="translate(4.467 298.898)" font-size="10" class="X">1 million</text><path d="M75.85 434.876H42.97v-1.7h32.88z" class="S"/><path d="M108.73 434.874H75.85V68.044h32.88z" class="T"/><text transform="translate(55.105 450.071)" class="Q R">Turkey</text><path d="M151.598 434.87h-32.88v-2.93h32.88z" class="S"/><path d="M184.47 434.88h-32.88v-162.4h32.88z" class="T"/><text transform="translate(126.279 450.071)" class="Q R">Lebanon</text><path d="M225.62 434.876h-32.88v-19.8h32.88z" class="S"/><path d="M258.5 434.876h-32.88v-89.5h32.88z" class="T"/><text transform="translate(207.239 450.071)" class="Q R">Jordan</text><path d="M301.466 434.622h-32.88v-67.2h32.88z" class="S"/><path d="M334.336 434.62h-32.88V347.1h32.88z" class="T"/><text transform="translate(265.91 450.071)" class="Q R">Saudi Arabia</text><path d="M377.515 434.87h-32.88v-1.55h32.88z" class="S"/><path d="M410.385 434.876h-32.88v-33.97h32.88z" class="T"/><text transform="translate(366.831 450.071)" class="Q R">Iraq</text><path d="M452.444 434.62h-32.88v-2.86h32.88z" class="S"/><path d="M485.324 434.613h-32.88v-12.45h32.88z" class="T"/><text transform="translate(431.831 450.07)" class="Q R">Sweden</text><path d="M304.31 36.657h-43.47v-9.73h43.47z" class="S"/><path d="M350.777 36.657h-43.47v-9.73h43.47z" class="T"/><text transform="translate(268.326 22.016)" class="Q R">2010</text><text transform="translate(314.794 22.016)" class="Q R">2015</text><path d="M530.4 434.613h-32.88v-8.4h32.88z" class="S"/><path d="M563.28 434.614H530.4v-11.45h32.88z" class="T"/><text transform="translate(491.605 450.071)" class="Q R">United States</text><path d="M605.91 434.613h-32.88v-38.8h32.88z" class="S"/><path d="M638.78 434.62H605.9v-54.9h32.88z" class="T"/><text transform="translate(589.443 450.07)" class="Q R">Other</text><g fill-rule="evenodd" class="V Y"><g fill="#d1d3d4" stroke="#fff"><path d="M532.25 61.57l-8.88-1.3-3 1.43-3 5.87-3.87 2.3 1.72 6.73-1.3 11.17-15.75 9.6 4.44 11.02 9.6 2.43 12.17 6.44 23.9 18.18 14.6.72 4.58-8.73 5.3.72 4.58.57-4.87-4.87-.72-4.72h-2.43l.3-6.6-5-7.02-10.02-4.87-6.57-8.72.72-7.16 3.3-3.15-1.43-5.44-5.3-2.72-6.73-11.17-3.3 1.57-3-2.28z"/><path d="M502.62 108.4l-4.44-11.02-13.74 9.6-9.02-3.58-1 2.86.57 5.58-.86 2.72.57 3.44-2.43 14.6.43 1.3 8.73 1.43 3-2.86 1.57-3.3 5.73-1.15 1-3.15 2.43-1.43-8.73-9.16 14.9-4.44 1.3-1.43zM475.7 98.22l1.3-5 3.72-3.44L479 86.2l-3.44-.43-3.14 6.74-1.86 7.45h2.58l.57-1.57 2-.15z"/><path d="M562.9 136.16l-14.6-.72-23.9-18.18-12.17-6.44-9.6-2.43-1.3 1.43-14.9 4.44 8.73 9.16-2.43 1.43-1 3.15-5.73 1.15-1.57 3.3-3 2.86-8.73-1.43-.72 3.58v3.15l-.86 5H475l4.58 6.3 5.3 7.3 3.58 6.73 2.43 2.15 2.43 4.72-.3 2 3 5.3 4.3 1.86 4 3.58 5.15 10.02V201l1.3 6.3 5.73 8.73 3.58 1.43 5.87 6.3 2.72 7.45 4.58 7.6 4.3 3.3.86 3.58 2.58 2.72 1.3 4 3.3-3-1-3.87 1.72-4.44 3.44 2.43 2.15-.86 9.16-.3 1.43 1 7.73.86 3-.43 2.3 3 3.58-1.43 5-9.6 7.16-4.15 22.48-3.44 23.05-9.16 3.72-18.18-4.15-6.44-1.43 1.86-24.05-4.58-3.72-9.16-.57-2.15-1.72-3.44-2.15.57-2.58-1.72-1.43-2.3-1.3-3-2.43-2.58-1.43-3 .57-3-.86-3.87-5.73-3.72-1.72-3.3-4.15-2-3.87-7.87-5.44.3-2.43-4.44-7.04-.84z"/></g><path d="M498.18 97.36l15.75-9.6 1.3-11.17-1.72-6.73 3.87-2.3 3-5.87-8.45 1.57-4.02-.28-8.16 3.58h-6.16l-4.3-1.72-7.87 2.58-2.72-1.86.14 5.15-1.72 2.15-1.72 2-1.43 3.72 1.57 7.16 3.44.43 1.72 3.58-3.72 3.44-1.3 5 .43 3.72-.86 1.43h.14l9.02 3.58 13.76-9.6z" fill="#6d7c93" stroke="#fff"/><path d="M473.98 24.34l-13.9-6.3-12.17.3-8.16 2.43-8.02 5.73-14.17-1.15-2.3 6.87-11.3.3-7.3 8.73 5.15 4.3-2.86 7.16 6 5.15 5.3 9.16 8.3-.14 7.73 5 5.15-1.15 1.3-3.87 8.16.3 6.6 5 11.45-1 4.44-5.3 6.6 2.15 4.58-.86-2.43 3.44 3.3 4.3 1.72-2 1.72-2.15-.14-5.15 2.72 1.86 7.87-2.58 4.3 1.72h6.16l8.16-3.58 4 .3 8.45-1.57 3-1.43 8.88 1.3 3 2.3 3.3-1.57-5.3-7.45 1-2.86-4.15-10.45 4.72-2.58-3.44-2.72-6-2.15v-4.44l-1.86-3.15-8.02-4.3-7.73.43-7.87 4.58-6.44-.86-8.3 1.43-11.2-3.44zm-71 5.73l2.86-2.72 8.73-.57 1-2.15-6.73-2.86-1.3-3.44-6.44-1.15-7.16 2.86 3.87 2.3-1.72 5.58-1.57 1 .14 1.86 2.72 4.15 5.6-4.85z" fill="#d1d3d4" stroke="#fff"/></g><text transform="translate(478.167 83.334)" fill="#fff" font-family="IBMPlexSans" class="Q">SYRIA</text><text transform="translate(445.826 50.882)" class="Q U">TURKEY</text><text transform="translate(513.096 103.978)" class="Q U">IRAQ</text><text transform="translate(515.655 187.947)" class="Q U">SAUDI ARABIA</text><text transform="translate(423.285 122.141)" class="Q U">JORDAN</text><text transform="translate(409.72 96.024)" class="Q U">LEBANON</text><path d="M464.1 92.85h10.4m-4.07 25.6h11.63" fill="none" stroke="#000" class="V W"/></svg>