<?xml version="1.0" encoding="utf-8"?>
<!-- Generator: Adobe Illustrator 24.1.2, SVG Export Plug-In . SVG Version: 6.00 Build 0)  -->
<svg version="1.1" id="Layer_1" xmlns="http://www.w3.org/2000/svg" xmlns:xlink="http://www.w3.org/1999/xlink" x="0px" y="0px"
	 viewBox="0 0 650 454.78" style="enable-background:new 0 0 650 454.78;" xml:space="preserve">
<style type="text/css">
	.st0{fill:none;stroke:#878787;stroke-width:0.5;stroke-miterlimit:10;}
	.st1{fill:none;stroke:#878787;stroke-width:0.5;stroke-miterlimit:10;stroke-dasharray:1.9994,1.9994;}
	.st2{fill:#FFFFFF;}
	.st3{fill:none;stroke:#878787;stroke-width:0.5;stroke-miterlimit:10;stroke-dasharray:2.0031,2.0031;}
	.st4{font-family:'IBMPlexSerif-SemiBold';}
	.st5{font-size:12px;}
	.st6{fill:none;stroke:#000000;stroke-miterlimit:10;}
	.st7{font-family:'IBMPlexSerif-Light';}
	.st8{font-size:10px;}
	.st9{fill:#D88271;}
	.st10{fill:#4E9695;}
	.st11{font-family:'IBMPlexSerif';}
	.st12{fill:none;stroke:#878787;stroke-width:0.5;stroke-miterlimit:10;stroke-dasharray:1.9796,1.9796;}
	.st13{fill-rule:evenodd;clip-rule:evenodd;fill:#D1D3D4;stroke:#FFFFFF;stroke-width:0.5;stroke-linejoin:round;}
	.st14{fill-rule:evenodd;clip-rule:evenodd;fill:#6D7C93;stroke:#FFFFFF;stroke-width:0.5;stroke-linejoin:round;}
	.st15{font-family:'IBMPlexSans';}
	.st16{font-family:'IBMPlexSans-Light';}
	.st17{fill:none;stroke:#000000;stroke-width:0.5;stroke-miterlimit:10;}
	.st18{fill:none;stroke:#878787;stroke-width:0.5;stroke-miterlimit:10;stroke-dasharray:1.9695,1.9695;}
</style>
<g>
	<g>
		<line class="st0" x1="641.44" y1="169.66" x2="640.44" y2="169.66"/>
		<line class="st3" x1="638.44" y1="169.66" x2="6.47" y2="169.4"/>
		<line class="st0" x1="5.47" y1="169.4" x2="4.47" y2="169.4"/>
	</g>
</g>
<g>
	<g>
		<line class="st0" x1="641.44" y1="302.66" x2="640.44" y2="302.66"/>
		<line class="st3" x1="638.44" y1="302.66" x2="6.47" y2="302.4"/>
		<line class="st0" x1="5.47" y1="302.4" x2="4.47" y2="302.4"/>
	</g>
</g>
<text transform="matrix(1 0 0 1 2.6159 15.6892)" class="st4 st5">Destinations of migrants from Syria</text>
<line class="st6" x1="641.44" y1="435.14" x2="4.47" y2="434.87"/>
<text transform="matrix(1 0 0 1 4.4677 153.5677)"><tspan x="0" y="0" class="st7 st8">2 million</tspan><tspan x="0" y="12" class="st7 st8">migrants</tspan></text>
<text transform="matrix(1 0 0 1 4.4673 298.8984)" class="st7 st8">1 million</text>
<g>
	
		<rect x="42.98" y="433.18" transform="matrix(-1 -1.224647e-16 1.224647e-16 -1 118.8297 868.0562)" class="st9" width="32.88" height="1.69"/>
	
		<rect x="75.85" y="68.05" transform="matrix(-1 -1.224647e-16 1.224647e-16 -1 184.58 502.9239)" class="st10" width="32.88" height="366.83"/>
</g>
<text transform="matrix(1 0 0 1 55.1045 450.0711)" class="st11 st5">Turkey</text>
<g>
	
		<rect x="118.72" y="431.95" transform="matrix(-1 -1.224647e-16 1.224647e-16 -1 270.3184 866.8207)" class="st9" width="32.88" height="2.93"/>
	
		<rect x="151.6" y="272.47" transform="matrix(-1 -1.224647e-16 1.224647e-16 -1 336.0686 707.3488)" class="st10" width="32.88" height="162.4"/>
</g>
<text transform="matrix(1 0 0 1 126.2786 450.0707)" class="st11 st5">Lebanon</text>
<g>
	
		<rect x="192.75" y="415.08" transform="matrix(-1 -1.224647e-16 1.224647e-16 -1 418.3694 849.956)" class="st9" width="32.88" height="19.79"/>
	
		<rect x="225.62" y="345.36" transform="matrix(-1 -1.224647e-16 1.224647e-16 -1 484.1198 780.2357)" class="st10" width="32.88" height="89.51"/>
</g>
<text transform="matrix(1 0 0 1 207.2388 450.0706)" class="st11 st5">Jordan</text>
<g>
	
		<rect x="268.59" y="367.42" transform="matrix(-1 -1.224647e-16 1.224647e-16 -1 570.0558 802.0424)" class="st9" width="32.88" height="67.19"/>
	
		<rect x="301.47" y="347.09" transform="matrix(-1 -1.224647e-16 1.224647e-16 -1 635.8062 781.7109)" class="st10" width="32.88" height="87.52"/>
</g>
<text transform="matrix(1 0 0 1 265.9097 450.0705)" class="st11 st5">Saudi Arabia</text>
<g>
	
		<rect x="344.63" y="433.33" transform="matrix(-1 -1.224647e-16 1.224647e-16 -1 722.1448 868.2001)" class="st9" width="32.88" height="1.55"/>
	
		<rect x="377.51" y="400.9" transform="matrix(-1 -1.224647e-16 1.224647e-16 -1 787.8951 835.7762)" class="st10" width="32.88" height="33.97"/>
</g>
<text transform="matrix(1 0 0 1 366.8308 450.0709)" class="st11 st5">Iraq</text>
<g>
	
		<rect x="419.57" y="431.76" transform="matrix(-1 -1.224647e-16 1.224647e-16 -1 872.0136 866.3798)" class="st9" width="32.88" height="2.86"/>
	
		<rect x="452.44" y="422.17" transform="matrix(-1 -1.224647e-16 1.224647e-16 -1 937.7639 856.7829)" class="st10" width="32.88" height="12.45"/>
</g>
<text transform="matrix(1 0 0 1 431.8309 450.07)" class="st11 st5">Sweden</text>
<rect x="260.84" y="26.93" transform="matrix(-1 -1.224647e-16 1.224647e-16 -1 565.1506 63.5872)" class="st9" width="43.47" height="9.73"/>
<rect x="307.31" y="26.93" transform="matrix(-1 -1.224647e-16 1.224647e-16 -1 658.0869 63.5872)" class="st10" width="43.47" height="9.73"/>
<text transform="matrix(1 0 0 1 268.3258 22.0159)" class="st11 st5">2010</text>
<text transform="matrix(1 0 0 1 314.7939 22.0158)" class="st11 st5">2015</text>
<g>
	
		<rect x="497.53" y="426.22" transform="matrix(-1 -1.224647e-16 1.224647e-16 -1 1027.9398 860.8334)" class="st9" width="32.88" height="8.4"/>
	
		<rect x="530.41" y="423.17" transform="matrix(-1 -1.224647e-16 1.224647e-16 -1 1093.6901 857.7836)" class="st10" width="32.88" height="11.45"/>
</g>
<text transform="matrix(1 0 0 1 491.6052 450.0713)" class="st11 st5">United States</text>
<g>
	
		<rect x="573.03" y="395.82" transform="matrix(-1 -1.224647e-16 1.224647e-16 -1 1178.9387 830.4327)" class="st9" width="32.88" height="38.8"/>
	
		<rect x="605.91" y="379.72" transform="matrix(-1 -1.224647e-16 1.224647e-16 -1 1244.689 814.3394)" class="st10" width="32.88" height="54.9"/>
</g>
<text transform="matrix(1 0 0 1 589.4432 450.0699)" class="st11 st5">Other</text>
<path id="IQ" class="st13" d="M532.25,61.57l-8.88-1.29l-3.01,1.43l-3.01,5.87l-3.87,2.29l1.72,6.73l-1.29,11.17l-15.75,9.59
	l4.44,11.02l9.59,2.43l12.17,6.44l23.91,18.18l14.6,0.72l4.58-8.73l5.3,0.72l4.58,0.57l-4.87-4.87l-0.72-4.72h-2.43l0.29-6.59
	l-5.01-7.02l-10.02-4.87L548,91.92l0.72-7.16l3.29-3.15l-1.43-5.44l-5.3-2.72l-6.73-11.17l0,0l-3.29,1.57L532.25,61.57L532.25,61.57
	z"/>
<path id="JO" class="st13" d="M502.62,108.39l-4.44-11.02l-13.74,9.59l-9.02-3.58l-1,2.86l0.57,5.58l-0.86,2.72l0.57,3.44
	l-2.43,14.6l0.43,1.29l8.73,1.43l3.01-2.86l1.57-3.29l5.73-1.15l1-3.15l2.43-1.43l-8.73-9.16l14.89-4.44L502.62,108.39
	L502.62,108.39z"/>
<path id="LB" class="st13" d="M475.7,98.22l1.29-5.01l3.72-3.44l-1.72-3.58l-3.44-0.43l-0.14,0.29l-3.01,6.44l-1.86,7.45h2.58
	l0.57-1.57L475.7,98.22L475.7,98.22z"/>
<path id="SA" class="st13" d="M562.89,136.16l-14.6-0.72l-23.91-18.18l-12.17-6.44l-9.59-2.43l-1.29,1.43l-14.89,4.44l8.73,9.16
	l-2.43,1.43l-1,3.15l-5.73,1.15l-1.57,3.29l-3.01,2.86l-8.73-1.43l-0.72,3.58v3.15l-0.86,5.01h3.87l4.58,6.3l5.3,7.3l3.58,6.73
	l2.43,2.15l2.43,4.72l-0.29,2l3.01,5.3l4.3,1.86l4.01,3.58l5.15,10.02v5.44l1.29,6.3l5.73,8.73l3.58,1.43l5.87,6.3l2.72,7.45
	l4.58,7.59l4.3,3.29l0.86,3.58l2.58,2.72l1.29,4.01l3.29-3.01l-1-3.87l1.72-4.44l3.44,2.43l2.15-0.86l9.16-0.29l1.43,1l7.73,0.86
	l3.01-0.43l2.29,3.01l3.58-1.43l5.01-9.59l7.16-4.15l22.48-3.44l23.05-9.16l3.72-18.18l-4.15-6.44l-1.43,1.86l-24.05-4.58
	l-3.72-9.16l-0.57-2.15l-1.72-3.44l-2.15,0.57l-2.58-1.72l-1.43-2.29l-1.29-3.01l-2.43-2.58l-1.43-3.01l0.57-3.01l-0.86-3.87
	l-5.73-3.72l-1.72-3.29l-4.15-2l-3.87-7.87l-5.44,0.29l-2.43-4.44L562.89,136.16L562.89,136.16z"/>
<path id="SY" class="st14" d="M498.18,97.36l15.75-9.59l1.29-11.17l-1.72-6.73l3.87-2.29l3.01-5.87l-8.45,1.57L507.91,63l-8.16,3.58
	h-6.16l-4.3-1.72l-7.87,2.58l-2.72-1.86l0.14,5.15l-1.72,2.15l-1.72,2l-1.43,3.72l1.57,7.16l3.44,0.43l1.72,3.58l-3.72,3.44
	l-1.29,5.01l0.43,3.72l-0.86,1.43h0.14l9.02,3.58L498.18,97.36L498.18,97.36z"/>
<path id="TR" class="st13" d="M473.98,24.34l-13.89-6.3l-12.17,0.29l-8.16,2.43l-8.02,5.73l-14.17-1.15l-2.29,6.87l-11.31,0.29
	l-7.3,8.73l5.15,4.3l-2.86,7.16l6.01,5.15l5.3,9.16l8.3-0.14l7.73,5.01l5.15-1.15l1.29-3.87l8.16,0.29l6.59,5.01l11.45-1l4.44-5.3
	l6.59,2.15l4.58-0.86l-2.43,3.44l3.29,4.3l1.72-2l1.72-2.15l-0.14-5.15l2.72,1.86l7.87-2.58l4.3,1.72h6.16l8.16-3.58l4.01,0.29
	l8.45-1.57l3.01-1.43l8.88,1.29l3.01,2.29l3.29-1.57l0,0l-5.3-7.45l1-2.86l-4.15-10.45l4.72-2.58l-3.44-2.72l-6.01-2.15v-4.44
	l-1.86-3.15l-8.02-4.3l-7.73,0.43l-7.87,4.58l-6.44-0.86l-8.3,1.43L473.98,24.34L473.98,24.34z M402.97,30.07l2.86-2.72l8.73-0.57
	l1-2.15l-6.73-2.86l-1.29-3.44l-6.44-1.15l-7.16,2.86l3.87,2.29l-1.72,5.58l-1.57,1l0.14,1.86l2.72,4.15L402.97,30.07L402.97,30.07z
	"/>
<text transform="matrix(1 0 0 1 478.1667 83.3335)" class="st2 st15 st5">SYRIA</text>
<text transform="matrix(1 0 0 1 445.826 50.8818)" class="st16 st5">TURKEY</text>
<text transform="matrix(1 0 0 1 513.0964 103.9781)" class="st16 st5">IRAQ</text>
<text transform="matrix(1 0 0 1 515.6552 187.9472)" class="st16 st5">SAUDI ARABIA</text>
<text transform="matrix(1 0 0 1 423.2854 122.1409)" class="st16 st5">JORDAN</text>
<text transform="matrix(1 0 0 1 409.7202 96.0239)" class="st16 st5">LEBANON</text>
<line class="st17" x1="464.11" y1="92.85" x2="474.52" y2="92.85"/>
<line class="st17" x1="470.43" y1="118.46" x2="482.06" y2="118.46"/>
</svg>
