<?xml version="1.0" encoding="utf-8"?>
<!-- Generator: Adobe Illustrator 24.1.2, SVG Export Plug-In . SVG Version: 6.00 Build 0)  -->
<svg version="1.1" id="Layer_1" xmlns="http://www.w3.org/2000/svg" xmlns:xlink="http://www.w3.org/1999/xlink" x="0px" y="0px"
	 viewBox="0 0 300 420.95" style="enable-background:new 0 0 300 420.95;" xml:space="preserve">
<style type="text/css">
	.st0{fill:none;stroke:#878787;stroke-width:0.5;stroke-miterlimit:10;}
	.st1{fill:none;stroke:#878787;stroke-width:0.5;stroke-miterlimit:10;stroke-dasharray:1.9994,1.9994;}
	.st2{fill:#FFFFFF;}
	.st3{fill:none;stroke:#878787;stroke-width:0.5;stroke-miterlimit:10;stroke-dasharray:2.0031,2.0031;}
	.st4{font-family:'IBMPlexSerif-SemiBold';}
	.st5{font-size:12px;}
	.st6{fill:none;stroke:#000000;stroke-miterlimit:10;}
	.st7{fill:#D88271;}
	.st8{fill:#4E9695;}
	.st9{fill:none;stroke:#878787;stroke-width:0.5;stroke-miterlimit:10;stroke-dasharray:1.9796,1.9796;}
	.st10{font-family:'IBMPlexSerif';}
	.st11{font-family:'IBMPlexSerif-Light';}
	.st12{font-size:10px;}
	.st13{fill-rule:evenodd;clip-rule:evenodd;fill:#D1D3D4;stroke:#FFFFFF;stroke-width:0.5;stroke-linejoin:round;}
	.st14{fill-rule:evenodd;clip-rule:evenodd;fill:#6D7C93;stroke:#FFFFFF;stroke-width:0.5;stroke-linejoin:round;}
	.st15{fill:none;stroke:#000000;stroke-width:0.5;stroke-miterlimit:10;}
	.st16{font-family:'IBMPlexSans';}
	.st17{font-family:'IBMPlexSans-Light';}
	.st18{fill:none;stroke:#878787;stroke-width:0.5;stroke-miterlimit:10;stroke-dasharray:1.9695,1.9695;}
</style>
<g>
	<g>
		<line class="st0" x1="109.08" y1="417.93" x2="109.08" y2="416.93"/>
		<line class="st1" x1="109.08" y1="414.93" x2="109.29" y2="28.05"/>
		<line class="st0" x1="109.29" y1="27.05" x2="109.29" y2="26.05"/>
	</g>
</g>
<rect x="106.33" y="276.99" class="st2" width="4.86" height="13.58"/>
<rect x="105.56" y="218.31" class="st2" width="5.63" height="48.59"/>
<text transform="matrix(1 0 0 1 3.0005 12.9638)" class="st4 st5">Destinations of migrants from Syria</text>
<g>
	<g>
		<line class="st0" x1="215.08" y1="172.56" x2="215.08" y2="171.56"/>
		<line class="st9" x1="215.08" y1="169.58" x2="215.08" y2="28.04"/>
		<line class="st0" x1="215.08" y1="27.05" x2="215.08" y2="26.05"/>
	</g>
</g>
<text transform="matrix(1 0 0 1 5.7457 33.7722)" class="st10 st5">Turkey</text>
<line class="st0" x1="3.64" y1="417.93" x2="3.85" y2="26.05"/>
<text transform="matrix(1 0 0 1 217.9793 33.1929)" class="st11 st12">200,000</text>
<text transform="matrix(1 0 0 1 111.1869 33.1927)" class="st11 st12">100,000 migrants</text>
<g>
	
		<rect x="-2.37" y="44.89" transform="matrix(-6.656963e-07 -1 1 -6.656963e-07 -41.1422 49.9776)" class="st7" width="13.57" height="1.34"/>
	
		<rect x="142.48" y="-86.38" transform="matrix(-6.656963e-07 -1 1 -6.656963e-07 90.1305 208.3955)" class="st8" width="13.57" height="291.03"/>
</g>
<g>
	
		<rect x="-1.88" y="94.19" transform="matrix(-6.656965e-07 -1 1 -6.656965e-07 -90.4406 100.2562)" class="st7" width="13.57" height="2.32"/>
	
		<rect x="61.38" y="44.5" transform="matrix(-6.656962e-07 -1 1 -6.656962e-07 -40.752 177.0903)" class="st8" width="13.57" height="128.85"/>
</g>
<g>
	
		<rect x="4.81" y="137.28" transform="matrix(-6.656963e-07 -1 1 -6.656963e-07 -133.5391 156.7349)" class="st7" width="13.57" height="15.7"/>
	
		<rect x="32.47" y="123.2" transform="matrix(-6.656962e-07 -1 1 -6.656962e-07 -119.4542 197.9651)" class="st8" width="13.57" height="71.02"/>
</g>
<g>
	
		<rect x="23.61" y="168.27" transform="matrix(-6.656965e-07 -1 1 -6.656965e-07 -164.5249 225.3261)" class="st7" width="13.57" height="53.31"/>
	
		<rect x="31.68" y="173.78" transform="matrix(-6.656963e-07 -1 1 -6.656963e-07 -170.0323 246.9642)" class="st8" width="13.57" height="69.44"/>
</g>
<g>
	
		<rect x="-2.43" y="244.1" transform="matrix(-6.656965e-07 -1 1 -6.656965e-07 -240.3534 249.0748)" class="st7" width="13.57" height="1.23"/>
	
		<rect x="10.44" y="244.81" transform="matrix(-6.656962e-07 -1 1 -6.656962e-07 -241.0638 275.5098)" class="st8" width="13.57" height="26.95"/>
</g>
<g>
	
		<rect x="-1.91" y="293.37" transform="matrix(-6.656963e-07 -1 1 -6.656963e-07 -289.6241 299.3811)" class="st7" width="13.57" height="2.27"/>
	
		<rect x="1.9" y="303.14" transform="matrix(-6.656963e-07 -1 1 -6.656963e-07 -299.3899 316.7608)" class="st8" width="13.57" height="9.88"/>
</g>
<g>
	
		<rect x="0.29" y="340.96" transform="matrix(-6.656963e-07 -1 1 -6.656963e-07 -337.2125 351.3699)" class="st7" width="13.57" height="6.67"/>
	
		<rect x="1.5" y="353.32" transform="matrix(-6.656963e-07 -1 1 -6.656963e-07 -349.5753 366.1525)" class="st8" width="13.57" height="9.09"/>
</g>
<g>
	
		<rect x="12.35" y="378.69" transform="matrix(-6.656963e-07 -1 1 -6.656963e-07 -374.9413 413.2182)" class="st7" width="13.57" height="30.79"/>
	
		<rect x="18.74" y="385.88" transform="matrix(-6.656962e-07 -1 1 -6.656962e-07 -382.1299 433.175)" class="st8" width="13.57" height="43.55"/>
</g>
<text transform="matrix(1 0 0 1 6.7462 85.5616)" class="st10 st5">Lebanon</text>
<text transform="matrix(1 0 0 1 5.7457 133.3496)" class="st10 st5">Jordan</text>
<text transform="matrix(1 0 0 1 5.7457 183.1389)" class="st10 st5">Saudi Arabia</text>
<text transform="matrix(1 0 0 1 6.5207 232.9275)" class="st10 st5">Iraq</text>
<text transform="matrix(1 0 0 1 5.0005 282.716)" class="st10 st5">Sweden</text>
<text transform="matrix(1 0 0 1 5.7455 332.5045)" class="st10 st5">United States</text>
<text transform="matrix(1 0 0 1 5.7464 382.2929)" class="st10 st5">Other</text>
<path id="IQ_1_" class="st13" d="M206.74,258.77l-7.36-1.07l-2.49,1.19l-2.49,4.86l-3.2,1.9l1.42,5.58l-1.07,9.25l-13.05,7.95
	l3.68,9.14l7.95,2.02l10.09,5.34l19.81,15.07l12.1,0.59l3.8-7.24l4.39,0.59l3.8,0.47l-4.03-4.03l-0.59-3.92h-2.02l0.24-5.46
	l-4.15-5.81l-8.31-4.03l-5.46-7.24l0.59-5.93l2.73-2.61l-1.19-4.51l-4.39-2.25l-5.58-9.25l0,0l-2.73,1.31L206.74,258.77
	L206.74,258.77z"/>
<path id="JO_1_" class="st13" d="M182.18,297.57l-3.68-9.14l-11.39,7.95l-7.47-2.97l-0.83,2.37l0.47,4.63l-0.71,2.25l0.47,2.85
	l-2.02,12.1l0.36,1.07l7.24,1.19l2.49-2.37l1.31-2.73l4.75-0.95l0.83-2.61l2.02-1.19l-7.24-7.59l12.34-3.68L182.18,297.57
	L182.18,297.57z"/>
<path id="LB_1_" class="st13" d="M159.87,289.15l1.07-4.15l3.08-2.85l-1.42-2.97l-2.85-0.36l-0.12,0.24l-2.49,5.34l-1.54,6.17h2.14
	l0.47-1.31L159.87,289.15L159.87,289.15z"/>
<path id="SA_1_" class="st13" d="M232.13,320.59l-12.1-0.59l-19.81-15.07l-10.09-5.34l-7.95-2.02l-1.07,1.19l-12.34,3.68l7.24,7.59
	l-2.02,1.19l-0.83,2.61l-4.75,0.95l-1.31,2.73l-2.49,2.37l-7.24-1.19l-0.59,2.97v2.61l-0.71,4.15h3.2l3.8,5.22l4.39,6.05l2.97,5.58
	l2.02,1.78l2.02,3.92l-0.24,1.66l2.49,4.39l3.56,1.54l3.32,2.97l4.27,8.31v4.51l1.07,5.22l4.75,7.24l2.97,1.19l4.86,5.22l2.25,6.17
	l3.8,6.29l3.56,2.73l0.71,2.97l2.14,2.25l1.07,3.32l2.73-2.49l-0.83-3.2l1.42-3.68l2.85,2.02l1.78-0.71l7.59-0.24l1.19,0.83
	l6.41,0.71l2.49-0.36l1.9,2.49l2.97-1.19l4.15-7.95l5.93-3.44l18.63-2.85l19.1-7.59l3.08-15.07l-3.44-5.34l-1.19,1.54l-19.93-3.8
	l-3.08-7.59l-0.47-1.78l-1.42-2.85l-1.78,0.47l-2.14-1.42l-1.19-1.9l-1.07-2.49l-2.02-2.14l-1.19-2.49l0.47-2.49l-0.71-3.2
	l-4.75-3.08l-1.42-2.73l-3.44-1.66l-3.2-6.53l-4.51,0.24l-2.02-3.68L232.13,320.59L232.13,320.59z"/>
<path id="SY_1_" class="st14" d="M178.5,288.43l13.05-7.95l1.07-9.25l-1.42-5.58l3.2-1.9l2.49-4.86l-7,1.31l-3.32-0.24l-6.76,2.97
	h-5.1l-3.56-1.42l-6.53,2.14l-2.25-1.54l0.12,4.27l-1.42,1.78l-1.42,1.66l-1.19,3.08l1.31,5.93l2.85,0.36l1.42,2.97l-3.08,2.85
	l-1.07,4.15l0.36,3.08l-0.71,1.19h0.12l7.47,2.97L178.5,288.43L178.5,288.43z"/>
<path id="TR_1_" class="st13" d="M158.45,227.92l-11.51-5.22l-10.09,0.24l-6.76,2.02l-6.64,4.75l-11.75-0.95l-1.9,5.7l-9.37,0.24
	l-6.05,7.24l4.27,3.56l-2.37,5.93l4.98,4.27l4.39,7.59l6.88-0.12l6.41,4.15l4.27-0.95l1.07-3.2l6.76,0.24l5.46,4.15l9.49-0.83
	l3.68-4.39l5.46,1.78l3.8-0.71l-2.02,2.85l2.73,3.56l1.42-1.66l1.42-1.78l-0.12-4.27l2.25,1.54l6.53-2.14l3.56,1.42h5.1l6.76-2.97
	l3.32,0.24l7-1.31l2.49-1.19l7.36,1.07l2.49,1.9l2.73-1.31l0,0l-4.39-6.17l0.83-2.37l-3.44-8.66l3.92-2.14l-2.85-2.25l-4.98-1.78
	v-3.68l-1.54-2.61l-6.64-3.56l-6.41,0.36l-6.53,3.8l-5.34-0.71l-6.88,1.19L158.45,227.92L158.45,227.92z M99.6,232.67l2.37-2.25
	l7.24-0.47l0.83-1.78l-5.58-2.37l-1.07-2.85l-5.34-0.95l-5.93,2.37l3.2,1.9l-1.42,4.63l-1.31,0.83l0.12,1.54l2.25,3.44L99.6,232.67
	L99.6,232.67z"/>
<text transform="matrix(1 0 0 1 161.8385 276.8107)" class="st2 st16 st12">SYRIA</text>
<text transform="matrix(1 0 0 1 135.0172 249.9171)" class="st17 st12">TURKEY</text>
<text transform="matrix(1 0 0 1 190.8004 293.9171)" class="st17 st12">IRAQ</text>
<text transform="matrix(1 0 0 1 192.7995 363.5021)" class="st17 st12">SAUDI ARABIA</text>
<text transform="matrix(1 0 0 1 116.3341 308.9699)" class="st17 st12">JORDAN</text>
<text transform="matrix(1 0 0 1 105.0753 287.3263)" class="st17 st12">LEBANON</text>
<line class="st15" x1="150.27" y1="284.7" x2="158.89" y2="284.7"/>
<line class="st15" x1="155.5" y1="305.92" x2="165.15" y2="305.92"/>
<rect x="169.99" y="193.63" transform="matrix(-1 -1.224647e-16 1.224647e-16 -1 383.4546 396.9967)" class="st7" width="43.47" height="9.73"/>
<rect x="216.46" y="193.63" transform="matrix(-1 -1.224647e-16 1.224647e-16 -1 476.3908 396.9967)" class="st8" width="43.47" height="9.73"/>
<text transform="matrix(1 0 0 1 177.4778 188.7206)" class="st10 st5">2010</text>
<text transform="matrix(1 0 0 1 223.946 188.7205)" class="st10 st5">2015</text>
<g>
	<g>
		<line class="st0" x1="215.08" y1="254.82" x2="215.08" y2="253.82"/>
		<line class="st18" x1="215.08" y1="251.85" x2="215.08" y2="213.44"/>
		<line class="st0" x1="215.08" y1="212.46" x2="215.08" y2="211.46"/>
	</g>
</g>
</svg>
