<svg xmlns="http://www.w3.org/2000/svg" viewBox="0 0 300 420.95" xmlns:v="https://vecta.io/nano"><style><![CDATA[.R{font-size:12px}.S{font-family:IBMPlexSerif}.T{fill:#d88271}.U{fill:#4e9695}.V{font-size:10px}.W{stroke-width:.5}.X{stroke-miterlimit:10}.Y{font-family:IBMPlexSans-Light}.Z{stroke:#878787}.a{stroke-linejoin:round}.b{font-family:IBMPlexSerif-Light}]]></style><g fill="none" class="W X Z"><path d="M109.08 417.93v-1"/><path d="M109.08 414.93l.2-386.88" stroke-dasharray="1.9994,1.9994"/><path d="M109.3 27.05v-1"/></g><path d="M106.33 277h4.86v13.58h-4.86zm-.77-58.7h5.63v48.6h-5.63z" fill="#fff"/><text transform="translate(3.001 12.964)" font-family="IBMPlexSerif-SemiBold" class="R">Destinations of migrants from Syria</text><g fill="none" class="W X Z"><path d="M215.08 172.56v-1"/><path d="M215.08 169.58V28.04" stroke-dasharray="1.9796,1.9796"/><path d="M215.08 27.05v-1"/></g><text transform="translate(5.746 33.772)" class="R S">Turkey</text><path d="M3.64 417.93l.2-391.88" fill="none" class="W X Z"/><text transform="translate(217.979 33.193)" class="V b">200,000</text><text transform="translate(111.187 33.193)" class="V b">100,000 migrants</text><path d="M3.748 52.348v-13.57h1.34v13.57z" class="T"/><path d="M3.75 65.916v-13.57h291.03v13.57z" class="U"/><path d="M3.75 102.136v-13.57h2.32v13.57z" class="T"/><path d="M3.748 115.7v-13.57h128.85v13.57z" class="U"/><path d="M3.74 151.925v-13.57h15.7v13.57z" class="T"/><path d="M3.746 165.495v-13.57h71.02v13.57z" class="U"/><path d="M3.745 201.716v-13.57h53.3v13.57z" class="T"/><path d="M3.748 215.284v-13.57h69.44v13.57z" class="U"/><path d="M3.747 251.505v-13.57h1.23v13.57z" class="T"/><path d="M3.746 265.07V251.5h26.95v13.57z" class="U"/><path d="M3.746 301.29v-13.57h2.27v13.57z" class="T"/><path d="M3.75 314.86v-13.57h9.88v13.57z" class="U"/><path d="M3.747 351.08V337.5h6.67v13.57z" class="T"/><path d="M3.745 364.652v-13.57h9.1v13.57z" class="U"/><path d="M3.75 400.868v-13.57h30.8v13.57z" class="T"/><path d="M3.75 414.435v-13.57H47.3v13.57z" class="U"/><text transform="translate(6.746 85.562)" class="R S">Lebanon</text><text transform="translate(5.746 133.35)" class="R S">Jordan</text><text transform="translate(5.746 183.139)" class="R S">Saudi Arabia</text><text transform="translate(6.521 232.928)" class="R S">Iraq</text><text transform="translate(5.001 282.716)" class="R S">Sweden</text><text transform="translate(5.746 332.505)" class="R S">United States</text><text transform="translate(5.746 382.293)" class="R S">Other</text><g fill-rule="evenodd" class="W a"><g fill="#d1d3d4" stroke="#fff"><path d="M206.74 258.77l-7.36-1.07-2.5 1.2-2.5 4.86-3.2 1.9 1.42 5.58-1.07 9.25-13.05 7.95 3.68 9.14 7.95 2.02 10.1 5.34 19.8 15.07 12.1.6 3.8-7.24 4.4.6 3.8.47-4.03-4.03-.6-3.92h-2.02l.24-5.46-4.15-5.8-8.3-4.03-5.46-7.24.6-5.93 2.73-2.6-1.2-4.5-4.4-2.25-5.58-9.25-2.73 1.3-2.5-1.9z"/><path d="M182.18 297.57l-3.68-9.14-11.4 7.95-7.47-2.97-.83 2.37.47 4.63-.7 2.25.47 2.85-2.02 12.1.36 1.07 7.24 1.2 2.5-2.37 1.3-2.73 4.75-.95.83-2.6 2.02-1.2-7.24-7.6 12.34-3.68 1.06-1.18zm-22.3-8.42l1.07-4.15 3.08-2.85-1.42-2.97-2.85-.36-.12.24-2.5 5.34-1.54 6.17h2.14l.47-1.3 1.66-.1z"/><path d="M232.13 320.6l-12.1-.6-19.8-15.07-10.1-5.34-7.95-2.02-1.07 1.2-12.34 3.68 7.24 7.6-2.02 1.2-.83 2.6-4.75.95-1.3 2.73-2.5 2.37-7.24-1.2-.6 2.97v2.6l-.7 4.15h3.2l8.2 11.27 2.97 5.58 2.02 1.78 2.02 3.92-.24 1.66 2.5 4.4 3.56 1.54 3.32 2.97 4.27 8.3v4.5l1.07 5.22 4.75 7.24 2.97 1.2 4.86 5.22 2.25 6.17 3.8 6.3 3.56 2.73.7 2.97 2.14 2.25 1.07 3.32 2.73-2.5-.83-3.2 1.42-3.68 2.85 2.02 1.78-.7 7.6-.24 1.2.83 6.4.7 2.5-.36 1.9 2.5 2.97-1.2 4.15-7.95 5.93-3.44 18.63-2.85 19.1-7.6 3.08-15.07-3.44-5.34-1.2 1.54-19.93-3.8-3.08-7.6-.47-1.78-1.42-2.85-1.78.47-2.14-1.42-1.2-1.9-1.07-2.5-2.02-2.14-1.2-2.5.47-2.5-.7-3.2-4.75-3.08-1.42-2.73-3.44-1.66-3.2-6.53-4.5.24-2.02-3.68-5.8-.72z"/></g><path d="M178.5 288.43l13.05-7.95 1.07-9.25-1.42-5.58 3.2-1.9 2.5-4.86-7 1.3-3.32-.24-6.76 2.97h-5.1l-3.56-1.42-6.53 2.14-2.25-1.54.12 4.27-1.42 1.78-1.42 1.66-1.2 3.08 1.3 5.93 2.85.36 1.42 2.97-3.08 2.85-1.07 4.15.36 3.08-.7 1.2h.12l7.47 2.97 11.37-7.97z" fill="#6d7c93" stroke="#fff"/><path d="M158.45 227.92l-11.5-5.22-10.1.24-6.76 2.02-6.64 4.75-11.75-.95-1.9 5.7-9.37.24-6.05 7.24 4.27 3.56-2.37 5.93 4.98 4.27 4.4 7.6 6.88-.12 6.4 4.15 4.27-.95 1.07-3.2 6.76.24 5.46 4.15 9.5-.83 3.68-4.4 5.46 1.78 3.8-.7-2.02 2.85 2.73 3.56 1.42-1.66 1.42-1.78-.12-4.27 2.25 1.54 6.53-2.14 3.56 1.42h5.1l6.76-2.97 3.32.24 7-1.3 2.5-1.2 7.36 1.07 2.5 1.9 2.73-1.3-4.4-6.17.83-2.37-3.44-8.66 3.92-2.14-2.85-2.25-4.98-1.78v-3.68l-1.54-2.6-6.64-3.56-6.4.36-6.53 3.8-5.34-.7-6.88 1.2-9.25-2.86zm-58.85 4.75l2.37-2.25 7.24-.47.83-1.78-5.58-2.37-1.07-2.85-5.34-.95-5.93 2.37 3.2 1.9-1.42 4.63-1.3.83.12 1.54 2.25 3.44 4.64-4.04z" fill="#d1d3d4" stroke="#fff"/></g><text transform="translate(161.839 276.811)" fill="#fff" font-family="IBMPlexSans" class="V">SYRIA</text><text transform="translate(135.017 249.917)" class="V Y">TURKEY</text><text transform="translate(190.8 293.917)" class="V Y">IRAQ</text><text transform="translate(192.8 363.502)" class="V Y">SAUDI ARABIA</text><text transform="translate(116.334 308.97)" class="V Y">JORDAN</text><text transform="translate(105.075 287.326)" class="V Y">LEBANON</text><path d="M150.27 284.7h8.62m-3.4 21.22h9.65" fill="none" stroke="#000" class="W X"/><path d="M213.465 203.367h-43.47v-9.73h43.47z" class="T"/><path d="M259.93 203.367h-43.47v-9.73h43.47z" class="U"/><text transform="translate(177.478 188.721)" class="R S">2010</text><text transform="translate(223.946 188.721)" class="R S">2015</text><g fill="none" class="W X Z"><path d="M215.08 254.82v-1"/><path d="M215.08 251.85v-38.4" stroke-dasharray="1.9695,1.9695"/><path d="M215.08 212.46v-1"/></g></svg>